<mxfile host="65bd71144e" pages="5">
    <diagram id="wVQgwLLqrXT_e7wsT3SM" name="Phase 1 Design">
        <mxGraphModel dx="1056" dy="1158" grid="0" gridSize="10" guides="1" tooltips="1" connect="1" arrows="1" fold="1" page="0" pageScale="1" pageWidth="850" pageHeight="1100" math="0" shadow="0">
            <root>
                <mxCell id="0"/>
                <mxCell id="1" parent="0"/>
                <mxCell id="PHQWkyu8HvDM8TcoegYn-228" style="edgeStyle=orthogonalEdgeStyle;rounded=0;orthogonalLoop=1;jettySize=auto;html=1;entryX=0;entryY=0.5;entryDx=0;entryDy=0;" parent="1" source="PHQWkyu8HvDM8TcoegYn-2" target="PHQWkyu8HvDM8TcoegYn-6" edge="1">
                    <mxGeometry relative="1" as="geometry">
                        <Array as="points">
                            <mxPoint x="604" y="21"/>
                            <mxPoint x="604" y="-35"/>
                        </Array>
                    </mxGeometry>
                </mxCell>
                <mxCell id="PHQWkyu8HvDM8TcoegYn-2" value="Code Memory" style="rounded=0;whiteSpace=wrap;html=1;movable=1;resizable=1;rotatable=1;deletable=1;editable=1;connectable=1;" parent="1" vertex="1">
                    <mxGeometry x="460" y="-9" width="120" height="60" as="geometry"/>
                </mxCell>
                <mxCell id="PHQWkyu8HvDM8TcoegYn-3" value="" style="edgeStyle=orthogonalEdgeStyle;rounded=0;orthogonalLoop=1;jettySize=auto;html=1;movable=1;resizable=1;rotatable=1;deletable=1;editable=1;connectable=1;" parent="1" source="PHQWkyu8HvDM8TcoegYn-4" target="PHQWkyu8HvDM8TcoegYn-2" edge="1">
                    <mxGeometry relative="1" as="geometry"/>
                </mxCell>
                <mxCell id="PHQWkyu8HvDM8TcoegYn-196" style="edgeStyle=orthogonalEdgeStyle;rounded=0;orthogonalLoop=1;jettySize=auto;html=1;entryX=0;entryY=0.25;entryDx=0;entryDy=0;" parent="1" source="PHQWkyu8HvDM8TcoegYn-4" target="PHQWkyu8HvDM8TcoegYn-9" edge="1">
                    <mxGeometry relative="1" as="geometry">
                        <Array as="points">
                            <mxPoint x="380" y="-89"/>
                        </Array>
                    </mxGeometry>
                </mxCell>
                <mxCell id="PHQWkyu8HvDM8TcoegYn-4" value="PC (32)" style="rounded=0;whiteSpace=wrap;html=1;movable=1;resizable=1;rotatable=1;deletable=1;editable=1;connectable=1;fillColor=#FF0000;" parent="1" vertex="1">
                    <mxGeometry x="350" y="11" width="60" height="33" as="geometry"/>
                </mxCell>
                <mxCell id="PHQWkyu8HvDM8TcoegYn-226" style="edgeStyle=orthogonalEdgeStyle;rounded=0;orthogonalLoop=1;jettySize=auto;html=1;entryX=0;entryY=0.25;entryDx=0;entryDy=0;" parent="1" source="PHQWkyu8HvDM8TcoegYn-5" target="PHQWkyu8HvDM8TcoegYn-213" edge="1">
                    <mxGeometry relative="1" as="geometry">
                        <Array as="points">
                            <mxPoint x="770" y="-35"/>
                            <mxPoint x="770" y="186"/>
                        </Array>
                    </mxGeometry>
                </mxCell>
                <mxCell id="PHQWkyu8HvDM8TcoegYn-5" value="F/D" style="swimlane;fontStyle=0;childLayout=stackLayout;horizontal=1;startSize=26;horizontalStack=0;resizeParent=1;resizeParentMax=0;resizeLast=0;collapsible=1;marginBottom=0;align=center;fontSize=14;movable=1;resizable=1;rotatable=1;deletable=1;editable=1;connectable=1;fillColor=#33FF33;" parent="1" vertex="1">
                    <mxGeometry x="618" y="-76" width="120" height="56" as="geometry"/>
                </mxCell>
                <mxCell id="PHQWkyu8HvDM8TcoegYn-6" value="Instruction (16 bit)" style="text;strokeColor=none;fillColor=none;spacingLeft=4;spacingRight=4;overflow=hidden;rotatable=1;points=[[0,0.5],[1,0.5]];portConstraint=eastwest;fontSize=12;movable=1;resizable=1;deletable=1;editable=1;connectable=1;" parent="PHQWkyu8HvDM8TcoegYn-5" vertex="1">
                    <mxGeometry y="26" width="120" height="30" as="geometry"/>
                </mxCell>
                <mxCell id="PHQWkyu8HvDM8TcoegYn-8" style="edgeStyle=orthogonalEdgeStyle;rounded=0;orthogonalLoop=1;jettySize=auto;html=1;movable=1;resizable=1;rotatable=1;deletable=1;editable=1;connectable=1;" parent="1" source="PHQWkyu8HvDM8TcoegYn-9" target="PHQWkyu8HvDM8TcoegYn-13" edge="1">
                    <mxGeometry relative="1" as="geometry">
                        <mxPoint x="250.0666666666666" y="-39" as="targetPoint"/>
                        <Array as="points">
                            <mxPoint x="250" y="-112"/>
                            <mxPoint x="250" y="-19"/>
                        </Array>
                    </mxGeometry>
                </mxCell>
                <mxCell id="PHQWkyu8HvDM8TcoegYn-9" value="ADD" style="rounded=0;whiteSpace=wrap;html=1;movable=1;resizable=1;rotatable=1;deletable=1;editable=1;connectable=1;" parent="1" vertex="1">
                    <mxGeometry x="540" y="-98" width="60" height="34" as="geometry"/>
                </mxCell>
                <mxCell id="PHQWkyu8HvDM8TcoegYn-10" value="" style="edgeStyle=orthogonalEdgeStyle;rounded=0;orthogonalLoop=1;jettySize=auto;html=1;movable=1;resizable=1;rotatable=1;deletable=1;editable=1;connectable=1;" parent="1" source="PHQWkyu8HvDM8TcoegYn-11" target="PHQWkyu8HvDM8TcoegYn-9" edge="1">
                    <mxGeometry relative="1" as="geometry"/>
                </mxCell>
                <mxCell id="PHQWkyu8HvDM8TcoegYn-11" value="1" style="text;html=1;strokeColor=none;fillColor=none;align=center;verticalAlign=middle;whiteSpace=wrap;rounded=0;movable=1;resizable=1;rotatable=1;deletable=1;editable=1;connectable=1;" parent="1" vertex="1">
                    <mxGeometry x="430" y="-89" width="60" height="30" as="geometry"/>
                </mxCell>
                <mxCell id="PHQWkyu8HvDM8TcoegYn-12" value="" style="edgeStyle=orthogonalEdgeStyle;rounded=0;orthogonalLoop=1;jettySize=auto;html=1;movable=1;resizable=1;rotatable=1;deletable=1;editable=1;connectable=1;" parent="1" source="PHQWkyu8HvDM8TcoegYn-13" target="PHQWkyu8HvDM8TcoegYn-4" edge="1">
                    <mxGeometry relative="1" as="geometry"/>
                </mxCell>
                <mxCell id="PHQWkyu8HvDM8TcoegYn-13" value="MUX" style="shape=trapezoid;perimeter=trapezoidPerimeter;whiteSpace=wrap;html=1;fixedSize=1;direction=south;movable=1;resizable=1;rotatable=1;deletable=1;editable=1;connectable=1;" parent="1" vertex="1">
                    <mxGeometry x="270" y="-39" width="60" height="120" as="geometry"/>
                </mxCell>
                <mxCell id="PHQWkyu8HvDM8TcoegYn-14" value="0" style="text;html=1;strokeColor=none;fillColor=none;align=center;verticalAlign=middle;whiteSpace=wrap;rounded=0;movable=1;resizable=1;rotatable=1;deletable=1;editable=1;connectable=1;" parent="1" vertex="1">
                    <mxGeometry x="250" y="-29" width="60" height="30" as="geometry"/>
                </mxCell>
                <mxCell id="PHQWkyu8HvDM8TcoegYn-208" style="edgeStyle=orthogonalEdgeStyle;rounded=0;orthogonalLoop=1;jettySize=auto;html=1;entryX=0;entryY=0.5;entryDx=0;entryDy=0;" parent="1" source="PHQWkyu8HvDM8TcoegYn-16" target="PHQWkyu8HvDM8TcoegYn-32" edge="1">
                    <mxGeometry relative="1" as="geometry">
                        <Array as="points">
                            <mxPoint x="1042" y="-224"/>
                            <mxPoint x="1042" y="-55"/>
                        </Array>
                    </mxGeometry>
                </mxCell>
                <mxCell id="PHQWkyu8HvDM8TcoegYn-16" value="CU" style="rounded=0;whiteSpace=wrap;html=1;movable=1;resizable=1;rotatable=1;deletable=1;editable=1;connectable=1;" parent="1" vertex="1">
                    <mxGeometry x="807" y="-259" width="60" height="70" as="geometry"/>
                </mxCell>
                <mxCell id="PHQWkyu8HvDM8TcoegYn-17" value="" style="edgeStyle=orthogonalEdgeStyle;rounded=0;orthogonalLoop=1;jettySize=auto;html=1;exitX=1;exitY=0.5;exitDx=0;exitDy=0;movable=1;resizable=1;rotatable=1;deletable=1;editable=1;connectable=1;entryX=0.652;entryY=0.976;entryDx=0;entryDy=0;entryPerimeter=0;" parent="1" source="PHQWkyu8HvDM8TcoegYn-6" target="PHQWkyu8HvDM8TcoegYn-153" edge="1">
                    <mxGeometry relative="1" as="geometry">
                        <mxPoint x="790" y="-144.0000000000001" as="sourcePoint"/>
                        <Array as="points">
                            <mxPoint x="750" y="-37"/>
                            <mxPoint x="770" y="-37"/>
                            <mxPoint x="770" y="-489"/>
                            <mxPoint x="820" y="-489"/>
                            <mxPoint x="820" y="-429"/>
                            <mxPoint x="819" y="-429"/>
                        </Array>
                        <mxPoint x="810" y="-429" as="targetPoint"/>
                    </mxGeometry>
                </mxCell>
                <mxCell id="PHQWkyu8HvDM8TcoegYn-18" style="edgeStyle=orthogonalEdgeStyle;rounded=0;orthogonalLoop=1;jettySize=auto;html=1;entryX=-0.019;entryY=0.113;entryDx=0;entryDy=0;entryPerimeter=0;movable=1;resizable=1;rotatable=1;deletable=1;editable=1;connectable=1;" parent="1" target="PHQWkyu8HvDM8TcoegYn-19" edge="1">
                    <mxGeometry relative="1" as="geometry">
                        <mxPoint x="770" y="-69" as="sourcePoint"/>
                    </mxGeometry>
                </mxCell>
                <mxCell id="PHQWkyu8HvDM8TcoegYn-19" value="&lt;font style=&quot;font-size: 24px;&quot;&gt;Reg File&lt;/font&gt;" style="rounded=0;whiteSpace=wrap;html=1;movable=1;resizable=1;rotatable=1;deletable=1;editable=1;connectable=1;" parent="1" vertex="1">
                    <mxGeometry x="873" y="-98" width="130" height="250" as="geometry"/>
                </mxCell>
                <mxCell id="PHQWkyu8HvDM8TcoegYn-20" value="Read Add1" style="text;html=1;strokeColor=none;fillColor=none;align=center;verticalAlign=middle;whiteSpace=wrap;rounded=0;movable=1;resizable=1;rotatable=1;deletable=1;editable=1;connectable=1;" parent="1" vertex="1">
                    <mxGeometry x="860" y="-83" width="90" height="30" as="geometry"/>
                </mxCell>
                <mxCell id="PHQWkyu8HvDM8TcoegYn-21" value="Inst [15:13](opcode)" style="text;html=1;strokeColor=none;fillColor=none;align=center;verticalAlign=middle;whiteSpace=wrap;rounded=0;movable=1;resizable=1;rotatable=1;deletable=1;editable=1;connectable=1;rotation=270;" parent="1" vertex="1">
                    <mxGeometry x="707" y="-132" width="90" height="30" as="geometry"/>
                </mxCell>
                <mxCell id="PHQWkyu8HvDM8TcoegYn-22" style="edgeStyle=orthogonalEdgeStyle;rounded=0;orthogonalLoop=1;jettySize=auto;html=1;entryX=0;entryY=0.306;entryDx=0;entryDy=0;entryPerimeter=0;movable=1;resizable=1;rotatable=1;deletable=1;editable=1;connectable=1;" parent="1" target="PHQWkyu8HvDM8TcoegYn-19" edge="1">
                    <mxGeometry relative="1" as="geometry">
                        <mxPoint x="770" y="-39" as="sourcePoint"/>
                        <mxPoint x="874.5300000000002" y="-13.750000000000114" as="targetPoint"/>
                        <Array as="points">
                            <mxPoint x="770" y="-21"/>
                        </Array>
                    </mxGeometry>
                </mxCell>
                <mxCell id="PHQWkyu8HvDM8TcoegYn-23" value="Read Add2" style="text;html=1;strokeColor=none;fillColor=none;align=center;verticalAlign=middle;whiteSpace=wrap;rounded=0;movable=1;resizable=1;rotatable=1;deletable=1;editable=1;connectable=1;" parent="1" vertex="1">
                    <mxGeometry x="860" y="-29" width="90" height="30" as="geometry"/>
                </mxCell>
                <mxCell id="PHQWkyu8HvDM8TcoegYn-24" value="Inst [12:10]" style="text;html=1;strokeColor=none;fillColor=none;align=center;verticalAlign=middle;whiteSpace=wrap;rounded=0;movable=1;resizable=1;rotatable=1;deletable=1;editable=1;connectable=1;" parent="1" vertex="1">
                    <mxGeometry x="770" y="-94" width="90" height="30" as="geometry"/>
                </mxCell>
                <mxCell id="PHQWkyu8HvDM8TcoegYn-25" value="Inst [9:7]" style="text;html=1;strokeColor=none;fillColor=none;align=center;verticalAlign=middle;whiteSpace=wrap;rounded=0;movable=1;resizable=1;rotatable=1;deletable=1;editable=1;connectable=1;" parent="1" vertex="1">
                    <mxGeometry x="770" y="-49" width="90" height="30" as="geometry"/>
                </mxCell>
                <mxCell id="PHQWkyu8HvDM8TcoegYn-26" value="Write Add" style="text;html=1;strokeColor=none;fillColor=none;align=center;verticalAlign=middle;whiteSpace=wrap;rounded=0;movable=1;resizable=1;rotatable=1;deletable=1;editable=1;connectable=1;" parent="1" vertex="1">
                    <mxGeometry x="860" y="56" width="90" height="30" as="geometry"/>
                </mxCell>
                <mxCell id="PHQWkyu8HvDM8TcoegYn-27" value="Write Data" style="text;html=1;strokeColor=none;fillColor=none;align=center;verticalAlign=middle;whiteSpace=wrap;rounded=0;movable=1;resizable=1;rotatable=1;deletable=1;editable=1;connectable=1;" parent="1" vertex="1">
                    <mxGeometry x="864" y="103" width="90" height="30" as="geometry"/>
                </mxCell>
                <mxCell id="PHQWkyu8HvDM8TcoegYn-28" style="edgeStyle=orthogonalEdgeStyle;rounded=0;orthogonalLoop=1;jettySize=auto;html=1;exitX=1;exitY=0.25;exitDx=0;exitDy=0;entryX=0;entryY=0.5;entryDx=0;entryDy=0;movable=1;resizable=1;rotatable=1;deletable=1;editable=1;connectable=1;" parent="1" source="PHQWkyu8HvDM8TcoegYn-29" target="PHQWkyu8HvDM8TcoegYn-33" edge="1">
                    <mxGeometry relative="1" as="geometry"/>
                </mxCell>
                <mxCell id="PHQWkyu8HvDM8TcoegYn-29" value="Read Data1" style="text;html=1;strokeColor=none;fillColor=none;align=center;verticalAlign=middle;whiteSpace=wrap;rounded=0;movable=1;resizable=1;rotatable=1;deletable=1;editable=1;connectable=1;" parent="1" vertex="1">
                    <mxGeometry x="913" y="-62" width="90" height="30" as="geometry"/>
                </mxCell>
                <mxCell id="PHQWkyu8HvDM8TcoegYn-31" value="D/E" style="swimlane;fontStyle=0;childLayout=stackLayout;horizontal=1;startSize=26;horizontalStack=0;resizeParent=1;resizeParentMax=0;resizeLast=0;collapsible=1;marginBottom=0;align=center;fontSize=14;movable=1;resizable=1;rotatable=1;deletable=1;editable=1;connectable=1;shadow=0;strokeColor=#000000;fillColor=#33FF33;" parent="1" vertex="1">
                    <mxGeometry x="1061" y="-98" width="120" height="180" as="geometry"/>
                </mxCell>
                <mxCell id="PHQWkyu8HvDM8TcoegYn-32" value="Control Signals" style="text;strokeColor=none;fillColor=none;spacingLeft=4;spacingRight=4;overflow=hidden;rotatable=1;points=[[0,0.5],[1,0.5]];portConstraint=eastwest;fontSize=12;movable=1;resizable=1;deletable=1;editable=1;connectable=1;" parent="PHQWkyu8HvDM8TcoegYn-31" vertex="1">
                    <mxGeometry y="26" width="120" height="34" as="geometry"/>
                </mxCell>
                <mxCell id="PHQWkyu8HvDM8TcoegYn-33" value="Read Data1 (16)" style="text;strokeColor=none;fillColor=none;spacingLeft=4;spacingRight=4;overflow=hidden;rotatable=1;points=[[0,0.5],[1,0.5]];portConstraint=eastwest;fontSize=12;movable=1;resizable=1;deletable=1;editable=1;connectable=1;" parent="PHQWkyu8HvDM8TcoegYn-31" vertex="1">
                    <mxGeometry y="60" width="120" height="30" as="geometry"/>
                </mxCell>
                <mxCell id="PHQWkyu8HvDM8TcoegYn-34" value="Read Data 2 (16)" style="text;strokeColor=none;fillColor=none;spacingLeft=4;spacingRight=4;overflow=hidden;rotatable=1;points=[[0,0.5],[1,0.5]];portConstraint=eastwest;fontSize=12;movable=1;resizable=1;deletable=1;editable=1;connectable=1;" parent="PHQWkyu8HvDM8TcoegYn-31" vertex="1">
                    <mxGeometry y="90" width="120" height="30" as="geometry"/>
                </mxCell>
                <mxCell id="PHQWkyu8HvDM8TcoegYn-35" value="Write Add (3 bits)" style="text;strokeColor=none;fillColor=none;spacingLeft=4;spacingRight=4;overflow=hidden;rotatable=1;points=[[0,0.5],[1,0.5]];portConstraint=eastwest;fontSize=12;movable=1;resizable=1;deletable=1;editable=1;connectable=1;" parent="PHQWkyu8HvDM8TcoegYn-31" vertex="1">
                    <mxGeometry y="120" width="120" height="30" as="geometry"/>
                </mxCell>
                <mxCell id="PHQWkyu8HvDM8TcoegYn-36" value="Function" style="text;strokeColor=none;fillColor=none;spacingLeft=4;spacingRight=4;overflow=hidden;rotatable=1;points=[[0,0.5],[1,0.5]];portConstraint=eastwest;fontSize=12;movable=1;resizable=1;deletable=1;editable=1;connectable=1;" parent="PHQWkyu8HvDM8TcoegYn-31" vertex="1">
                    <mxGeometry y="150" width="120" height="30" as="geometry"/>
                </mxCell>
                <mxCell id="PHQWkyu8HvDM8TcoegYn-38" style="edgeStyle=orthogonalEdgeStyle;rounded=0;orthogonalLoop=1;jettySize=auto;html=1;exitX=0.5;exitY=1;exitDx=0;exitDy=0;fontSize=24;movable=1;resizable=1;rotatable=1;deletable=1;editable=1;connectable=1;" parent="PHQWkyu8HvDM8TcoegYn-31" edge="1">
                    <mxGeometry relative="1" as="geometry">
                        <mxPoint x="60" y="150" as="sourcePoint"/>
                        <mxPoint x="60" y="150" as="targetPoint"/>
                    </mxGeometry>
                </mxCell>
                <mxCell id="PHQWkyu8HvDM8TcoegYn-37" style="edgeStyle=orthogonalEdgeStyle;rounded=0;orthogonalLoop=1;jettySize=auto;html=1;fontSize=24;exitX=1.002;exitY=0.363;exitDx=0;exitDy=0;exitPerimeter=0;movable=1;resizable=1;rotatable=1;deletable=1;editable=1;connectable=1;" parent="1" source="PHQWkyu8HvDM8TcoegYn-19" target="PHQWkyu8HvDM8TcoegYn-34" edge="1">
                    <mxGeometry relative="1" as="geometry"/>
                </mxCell>
                <mxCell id="PHQWkyu8HvDM8TcoegYn-40" value="Inst [9:7]" style="text;html=1;strokeColor=none;fillColor=none;align=center;verticalAlign=middle;whiteSpace=wrap;rounded=0;movable=1;resizable=1;rotatable=1;deletable=1;editable=1;connectable=1;" parent="1" vertex="1">
                    <mxGeometry x="783" y="164" width="90" height="30" as="geometry"/>
                </mxCell>
                <mxCell id="PHQWkyu8HvDM8TcoegYn-41" style="edgeStyle=orthogonalEdgeStyle;rounded=0;orthogonalLoop=1;jettySize=auto;html=1;entryX=0;entryY=0.5;entryDx=0;entryDy=0;fontSize=12;movable=1;resizable=1;rotatable=1;deletable=1;editable=1;connectable=1;exitX=1;exitY=0.5;exitDx=0;exitDy=0;" parent="1" source="PHQWkyu8HvDM8TcoegYn-43" edge="1">
                    <mxGeometry relative="1" as="geometry">
                        <mxPoint x="1497" y="-1.933333333333394" as="sourcePoint"/>
                        <mxPoint x="1618" y="-28" as="targetPoint"/>
                    </mxGeometry>
                </mxCell>
                <mxCell id="PHQWkyu8HvDM8TcoegYn-42" style="edgeStyle=orthogonalEdgeStyle;rounded=0;orthogonalLoop=1;jettySize=auto;html=1;exitX=1;exitY=0.25;exitDx=0;exitDy=0;entryX=0;entryY=0.5;entryDx=0;entryDy=0;fontSize=12;movable=1;resizable=1;rotatable=1;deletable=1;editable=1;connectable=1;strokeColor=#FF9933;" parent="1" source="PHQWkyu8HvDM8TcoegYn-43" target="PHQWkyu8HvDM8TcoegYn-61" edge="1">
                    <mxGeometry relative="1" as="geometry">
                        <mxPoint x="1440" y="-85" as="targetPoint"/>
                    </mxGeometry>
                </mxCell>
                <mxCell id="PHQWkyu8HvDM8TcoegYn-43" value="ALU" style="rounded=0;whiteSpace=wrap;html=1;movable=1;resizable=1;rotatable=1;deletable=1;editable=1;connectable=1;" parent="1" vertex="1">
                    <mxGeometry x="1320" y="-52" width="90" height="100" as="geometry"/>
                </mxCell>
                <mxCell id="PHQWkyu8HvDM8TcoegYn-44" style="edgeStyle=orthogonalEdgeStyle;rounded=0;orthogonalLoop=1;jettySize=auto;html=1;entryX=0.5;entryY=0;entryDx=0;entryDy=0;fontSize=24;movable=1;resizable=1;rotatable=1;deletable=1;editable=1;connectable=1;" parent="1" source="PHQWkyu8HvDM8TcoegYn-45" target="PHQWkyu8HvDM8TcoegYn-43" edge="1">
                    <mxGeometry relative="1" as="geometry"/>
                </mxCell>
                <mxCell id="PHQWkyu8HvDM8TcoegYn-45" value="ALU Control" style="ellipse;whiteSpace=wrap;html=1;fontSize=24;movable=1;resizable=1;rotatable=1;deletable=1;editable=1;connectable=1;" parent="1" vertex="1">
                    <mxGeometry x="1305" y="-185" width="120" height="80" as="geometry"/>
                </mxCell>
                <mxCell id="PHQWkyu8HvDM8TcoegYn-46" style="edgeStyle=orthogonalEdgeStyle;rounded=0;orthogonalLoop=1;jettySize=auto;html=1;exitX=1;exitY=0.5;exitDx=0;exitDy=0;entryX=0.5;entryY=0;entryDx=0;entryDy=0;fontSize=24;movable=1;resizable=1;rotatable=1;deletable=1;editable=1;connectable=1;" parent="1" source="PHQWkyu8HvDM8TcoegYn-32" edge="1">
                    <mxGeometry relative="1" as="geometry">
                        <Array as="points">
                            <mxPoint x="1250" y="-57"/>
                            <mxPoint x="1250" y="-198"/>
                            <mxPoint x="1365" y="-198"/>
                        </Array>
                        <mxPoint x="1365" y="-178" as="targetPoint"/>
                    </mxGeometry>
                </mxCell>
                <mxCell id="PHQWkyu8HvDM8TcoegYn-47" value="&lt;font style=&quot;font-size: 12px;&quot;&gt;operation&lt;/font&gt;" style="text;html=1;strokeColor=none;fillColor=none;align=center;verticalAlign=middle;whiteSpace=wrap;rounded=0;fontSize=24;movable=1;resizable=1;rotatable=1;deletable=1;editable=1;connectable=1;" parent="1" vertex="1">
                    <mxGeometry x="1338" y="-62" width="60" height="30" as="geometry"/>
                </mxCell>
                <mxCell id="PHQWkyu8HvDM8TcoegYn-50" style="edgeStyle=orthogonalEdgeStyle;rounded=0;orthogonalLoop=1;jettySize=auto;html=1;exitX=1;exitY=0.5;exitDx=0;exitDy=0;entryX=0;entryY=0.5;entryDx=0;entryDy=0;fontSize=12;movable=1;resizable=1;rotatable=1;deletable=1;editable=1;connectable=1;" parent="1" source="PHQWkyu8HvDM8TcoegYn-36" edge="1">
                    <mxGeometry relative="1" as="geometry">
                        <Array as="points">
                            <mxPoint x="1280" y="63"/>
                            <mxPoint x="1280" y="-138"/>
                        </Array>
                        <mxPoint x="1304.9999999999832" y="-138" as="targetPoint"/>
                    </mxGeometry>
                </mxCell>
                <mxCell id="PHQWkyu8HvDM8TcoegYn-51" value="E/M" style="swimlane;fontStyle=0;childLayout=stackLayout;horizontal=1;startSize=26;horizontalStack=0;resizeParent=1;resizeParentMax=0;resizeLast=0;collapsible=1;marginBottom=0;align=center;fontSize=14;movable=1;resizable=1;rotatable=1;deletable=1;editable=1;connectable=1;fillColor=#33FF33;" parent="1" vertex="1">
                    <mxGeometry x="1618" y="-105" width="122" height="138" as="geometry"/>
                </mxCell>
                <mxCell id="PHQWkyu8HvDM8TcoegYn-52" value="Control Signals" style="text;strokeColor=none;fillColor=none;spacingLeft=4;spacingRight=4;overflow=hidden;rotatable=1;points=[[0,0.5],[1,0.5]];portConstraint=eastwest;fontSize=12;movable=1;resizable=1;deletable=1;editable=1;connectable=1;" parent="PHQWkyu8HvDM8TcoegYn-51" vertex="1">
                    <mxGeometry y="26" width="122" height="30" as="geometry"/>
                </mxCell>
                <mxCell id="PHQWkyu8HvDM8TcoegYn-53" value="ALU Data (16 bit)" style="text;strokeColor=none;fillColor=none;spacingLeft=4;spacingRight=4;overflow=hidden;rotatable=1;points=[[0,0.5],[1,0.5]];portConstraint=eastwest;fontSize=12;movable=1;resizable=1;deletable=1;editable=1;connectable=1;" parent="PHQWkyu8HvDM8TcoegYn-51" vertex="1">
                    <mxGeometry y="56" width="122" height="22" as="geometry"/>
                </mxCell>
                <mxCell id="PHQWkyu8HvDM8TcoegYn-54" value="Write Add (3 bit)" style="text;strokeColor=none;fillColor=none;spacingLeft=4;spacingRight=4;overflow=hidden;rotatable=1;points=[[0,0.5],[1,0.5]];portConstraint=eastwest;fontSize=12;movable=1;resizable=1;deletable=1;editable=1;connectable=1;" parent="PHQWkyu8HvDM8TcoegYn-51" vertex="1">
                    <mxGeometry y="78" width="122" height="30" as="geometry"/>
                </mxCell>
                <mxCell id="PHQWkyu8HvDM8TcoegYn-55" value="Read Data2 " style="text;strokeColor=none;fillColor=none;spacingLeft=4;spacingRight=4;overflow=hidden;rotatable=1;points=[[0,0.5],[1,0.5]];portConstraint=eastwest;fontSize=12;movable=1;resizable=1;deletable=1;editable=1;connectable=1;" parent="PHQWkyu8HvDM8TcoegYn-51" vertex="1">
                    <mxGeometry y="108" width="122" height="30" as="geometry"/>
                </mxCell>
                <mxCell id="PHQWkyu8HvDM8TcoegYn-59" value="Flag reg" style="swimlane;fontStyle=0;childLayout=stackLayout;horizontal=1;startSize=26;horizontalStack=0;resizeParent=1;resizeParentMax=0;resizeLast=0;collapsible=1;marginBottom=0;align=center;fontSize=14;movable=1;resizable=1;rotatable=1;deletable=1;editable=1;connectable=1;fillColor=#FF0000;" parent="1" vertex="1">
                    <mxGeometry x="1457" y="-159" width="50" height="116" as="geometry"/>
                </mxCell>
                <mxCell id="PHQWkyu8HvDM8TcoegYn-60" value="cf" style="text;strokeColor=none;fillColor=none;spacingLeft=4;spacingRight=4;overflow=hidden;rotatable=1;points=[[0,0.5],[1,0.5]];portConstraint=eastwest;fontSize=12;movable=1;resizable=1;deletable=1;editable=1;connectable=1;" parent="PHQWkyu8HvDM8TcoegYn-59" vertex="1">
                    <mxGeometry y="26" width="50" height="30" as="geometry"/>
                </mxCell>
                <mxCell id="PHQWkyu8HvDM8TcoegYn-61" value="zf" style="text;strokeColor=none;fillColor=none;spacingLeft=4;spacingRight=4;overflow=hidden;rotatable=1;points=[[0,0.5],[1,0.5]];portConstraint=eastwest;fontSize=12;movable=1;resizable=1;deletable=1;editable=1;connectable=1;" parent="PHQWkyu8HvDM8TcoegYn-59" vertex="1">
                    <mxGeometry y="56" width="50" height="30" as="geometry"/>
                </mxCell>
                <mxCell id="PHQWkyu8HvDM8TcoegYn-62" value="nf" style="text;strokeColor=none;fillColor=none;spacingLeft=4;spacingRight=4;overflow=hidden;rotatable=1;points=[[0,0.5],[1,0.5]];portConstraint=eastwest;fontSize=12;movable=1;resizable=1;deletable=1;editable=1;connectable=1;" parent="PHQWkyu8HvDM8TcoegYn-59" vertex="1">
                    <mxGeometry y="86" width="50" height="30" as="geometry"/>
                </mxCell>
                <mxCell id="PHQWkyu8HvDM8TcoegYn-63" value="Data Memory (16 bit)" style="rounded=0;whiteSpace=wrap;html=1;movable=1;resizable=1;rotatable=1;deletable=1;editable=1;connectable=1;fillColor=#FF0000;" parent="1" vertex="1">
                    <mxGeometry x="2094" y="-124" width="100" height="200" as="geometry"/>
                </mxCell>
                <mxCell id="PHQWkyu8HvDM8TcoegYn-64" value="M/W" style="swimlane;fontStyle=0;childLayout=stackLayout;horizontal=1;startSize=26;horizontalStack=0;resizeParent=1;resizeParentMax=0;resizeLast=0;collapsible=1;marginBottom=0;align=center;fontSize=14;movable=1;resizable=1;rotatable=1;deletable=1;editable=1;connectable=1;fillColor=#33FF33;" parent="1" vertex="1">
                    <mxGeometry x="1540" y="240" width="110" height="116" as="geometry"/>
                </mxCell>
                <mxCell id="PHQWkyu8HvDM8TcoegYn-65" value="Regwr, out, in&#10;" style="text;strokeColor=none;fillColor=none;spacingLeft=4;spacingRight=4;overflow=hidden;rotatable=1;points=[[0,0.5],[1,0.5]];portConstraint=eastwest;fontSize=12;movable=1;resizable=1;deletable=1;editable=1;connectable=1;" parent="PHQWkyu8HvDM8TcoegYn-64" vertex="1">
                    <mxGeometry y="26" width="110" height="30" as="geometry"/>
                </mxCell>
                <mxCell id="PHQWkyu8HvDM8TcoegYn-66" value="ALU Data (16 bit)" style="text;strokeColor=none;fillColor=none;spacingLeft=4;spacingRight=4;overflow=hidden;rotatable=1;points=[[0,0.5],[1,0.5]];portConstraint=eastwest;fontSize=12;movable=1;resizable=1;deletable=1;editable=1;connectable=1;" parent="PHQWkyu8HvDM8TcoegYn-64" vertex="1">
                    <mxGeometry y="56" width="110" height="30" as="geometry"/>
                </mxCell>
                <mxCell id="PHQWkyu8HvDM8TcoegYn-67" value="Write Add (3 bit)" style="text;strokeColor=none;fillColor=none;spacingLeft=4;spacingRight=4;overflow=hidden;rotatable=1;points=[[0,0.5],[1,0.5]];portConstraint=eastwest;fontSize=12;movable=1;resizable=1;deletable=1;editable=1;connectable=1;" parent="PHQWkyu8HvDM8TcoegYn-64" vertex="1">
                    <mxGeometry y="86" width="110" height="30" as="geometry"/>
                </mxCell>
                <mxCell id="PHQWkyu8HvDM8TcoegYn-68" style="edgeStyle=orthogonalEdgeStyle;rounded=0;orthogonalLoop=1;jettySize=auto;html=1;entryX=0.001;entryY=0.672;entryDx=0;entryDy=0;entryPerimeter=0;fontSize=12;movable=1;resizable=1;rotatable=1;deletable=1;editable=1;connectable=1;" parent="1" source="PHQWkyu8HvDM8TcoegYn-67" target="PHQWkyu8HvDM8TcoegYn-19" edge="1">
                    <mxGeometry relative="1" as="geometry">
                        <Array as="points">
                            <mxPoint x="790" y="341"/>
                            <mxPoint x="790" y="70"/>
                        </Array>
                    </mxGeometry>
                </mxCell>
                <mxCell id="PHQWkyu8HvDM8TcoegYn-69" value="Reg Write" style="text;html=1;strokeColor=none;fillColor=none;align=center;verticalAlign=middle;whiteSpace=wrap;rounded=0;movable=1;resizable=1;rotatable=1;deletable=1;editable=1;connectable=1;" parent="1" vertex="1">
                    <mxGeometry x="887" y="122" width="90" height="30" as="geometry"/>
                </mxCell>
                <mxCell id="PHQWkyu8HvDM8TcoegYn-71" value="&lt;span style=&quot;font-size: 12px;&quot;&gt;in2&lt;/span&gt;" style="text;html=1;strokeColor=none;fillColor=none;align=center;verticalAlign=middle;whiteSpace=wrap;rounded=0;fontSize=24;movable=1;resizable=1;rotatable=1;deletable=1;editable=1;connectable=1;" parent="1" vertex="1">
                    <mxGeometry x="1317" y="14" width="93" height="30" as="geometry"/>
                </mxCell>
                <mxCell id="PHQWkyu8HvDM8TcoegYn-72" value="Inst [15:0]" style="text;html=1;strokeColor=none;fillColor=none;align=center;verticalAlign=middle;whiteSpace=wrap;rounded=0;movable=1;resizable=1;rotatable=1;deletable=1;editable=1;connectable=1;" parent="1" vertex="1">
                    <mxGeometry x="797" y="231" width="90" height="30" as="geometry"/>
                </mxCell>
                <mxCell id="PHQWkyu8HvDM8TcoegYn-77" style="edgeStyle=orthogonalEdgeStyle;rounded=0;orthogonalLoop=1;jettySize=auto;html=1;exitX=1;exitY=0.5;exitDx=0;exitDy=0;entryX=0;entryY=0.25;entryDx=0;entryDy=0;fontSize=12;movable=1;resizable=1;rotatable=1;deletable=1;editable=1;connectable=1;" parent="1" source="PHQWkyu8HvDM8TcoegYn-35" target="PHQWkyu8HvDM8TcoegYn-241" edge="1">
                    <mxGeometry relative="1" as="geometry">
                        <Array as="points">
                            <mxPoint x="1181" y="33"/>
                            <mxPoint x="1220" y="33"/>
                            <mxPoint x="1220" y="88"/>
                            <mxPoint x="1443" y="88"/>
                            <mxPoint x="1443" y="156"/>
                            <mxPoint x="1464" y="156"/>
                        </Array>
                        <mxPoint x="1618" y="-2" as="targetPoint"/>
                    </mxGeometry>
                </mxCell>
                <mxCell id="PHQWkyu8HvDM8TcoegYn-81" value="1" style="text;html=1;strokeColor=none;fillColor=none;align=center;verticalAlign=middle;whiteSpace=wrap;rounded=0;movable=1;resizable=1;rotatable=1;deletable=1;editable=1;connectable=1;" parent="1" vertex="1">
                    <mxGeometry x="263" y="35" width="60" height="30" as="geometry"/>
                </mxCell>
                <mxCell id="PHQWkyu8HvDM8TcoegYn-102" value="Memorywrite" style="text;strokeColor=none;fillColor=none;spacingLeft=4;spacingRight=4;overflow=hidden;rotatable=1;points=[[0,0.5],[1,0.5]];portConstraint=eastwest;fontSize=12;movable=1;resizable=1;deletable=1;editable=1;connectable=1;" parent="1" vertex="1">
                    <mxGeometry x="2097" y="-98" width="120" height="30" as="geometry"/>
                </mxCell>
                <mxCell id="PHQWkyu8HvDM8TcoegYn-103" value="-" style="text;strokeColor=none;fillColor=none;spacingLeft=4;spacingRight=4;overflow=hidden;rotatable=1;points=[[0,0.5],[1,0.5]];portConstraint=eastwest;fontSize=12;movable=1;resizable=1;deletable=1;editable=1;connectable=1;" parent="1" vertex="1">
                    <mxGeometry x="1930" y="270" width="120" height="30" as="geometry"/>
                </mxCell>
                <mxCell id="PHQWkyu8HvDM8TcoegYn-104" style="edgeStyle=orthogonalEdgeStyle;rounded=0;orthogonalLoop=1;jettySize=auto;html=1;entryX=0.25;entryY=1;entryDx=0;entryDy=0;movable=1;resizable=1;rotatable=1;deletable=1;editable=1;connectable=1;" parent="1" source="PHQWkyu8HvDM8TcoegYn-105" target="PHQWkyu8HvDM8TcoegYn-107" edge="1">
                    <mxGeometry relative="1" as="geometry">
                        <Array as="points">
                            <mxPoint x="2207" y="15"/>
                            <mxPoint x="2207" y="-7"/>
                            <mxPoint x="2310" y="-7"/>
                            <mxPoint x="2310" y="201"/>
                            <mxPoint x="1980" y="201"/>
                        </Array>
                    </mxGeometry>
                </mxCell>
                <mxCell id="PHQWkyu8HvDM8TcoegYn-105" value="ReadData" style="text;strokeColor=none;fillColor=none;spacingLeft=4;spacingRight=4;overflow=hidden;rotatable=1;points=[[0,0.5],[1,0.5]];portConstraint=eastwest;fontSize=12;movable=1;resizable=1;deletable=1;editable=1;connectable=1;" parent="1" vertex="1">
                    <mxGeometry x="2127" y="-1" width="76" height="28" as="geometry"/>
                </mxCell>
                <mxCell id="PHQWkyu8HvDM8TcoegYn-106" style="edgeStyle=orthogonalEdgeStyle;rounded=0;orthogonalLoop=1;jettySize=auto;html=1;entryX=1;entryY=0.5;entryDx=0;entryDy=0;movable=1;resizable=1;rotatable=1;deletable=1;editable=1;connectable=1;" parent="1" source="PHQWkyu8HvDM8TcoegYn-107" target="PHQWkyu8HvDM8TcoegYn-66" edge="1">
                    <mxGeometry relative="1" as="geometry"/>
                </mxCell>
                <mxCell id="PHQWkyu8HvDM8TcoegYn-107" value="" style="shape=trapezoid;perimeter=trapezoidPerimeter;whiteSpace=wrap;html=1;fixedSize=1;rotation=90;direction=south;movable=1;resizable=1;rotatable=1;deletable=1;editable=1;connectable=1;" parent="1" vertex="1">
                    <mxGeometry x="1927.5" y="209.5" width="45" height="120" as="geometry"/>
                </mxCell>
                <mxCell id="PHQWkyu8HvDM8TcoegYn-108" style="edgeStyle=orthogonalEdgeStyle;rounded=0;orthogonalLoop=1;jettySize=auto;html=1;exitX=1;exitY=0.5;exitDx=0;exitDy=0;entryX=1;entryY=0.5;entryDx=0;entryDy=0;movable=1;resizable=1;rotatable=1;deletable=1;editable=1;connectable=1;" parent="1" source="PHQWkyu8HvDM8TcoegYn-52" target="PHQWkyu8HvDM8TcoegYn-107" edge="1">
                    <mxGeometry relative="1" as="geometry">
                        <Array as="points">
                            <mxPoint x="1800" y="-62"/>
                            <mxPoint x="1800" y="270"/>
                        </Array>
                    </mxGeometry>
                </mxCell>
                <mxCell id="PHQWkyu8HvDM8TcoegYn-109" value="Memory Read" style="text;strokeColor=none;fillColor=none;spacingLeft=4;spacingRight=4;overflow=hidden;rotatable=1;points=[[0,0.5],[1,0.5]];portConstraint=eastwest;fontSize=12;movable=1;resizable=1;deletable=1;editable=1;connectable=1;" parent="1" vertex="1">
                    <mxGeometry x="2097" y="-124" width="120" height="30" as="geometry"/>
                </mxCell>
                <mxCell id="PHQWkyu8HvDM8TcoegYn-111" value="Mem to reg" style="text;strokeColor=none;fillColor=none;spacingLeft=4;spacingRight=4;overflow=hidden;rotatable=1;points=[[0,0.5],[1,0.5]];portConstraint=eastwest;fontSize=12;movable=1;resizable=1;deletable=1;editable=1;connectable=1;" parent="1" vertex="1">
                    <mxGeometry x="1815" y="270" width="110" height="30" as="geometry"/>
                </mxCell>
                <mxCell id="PHQWkyu8HvDM8TcoegYn-112" value="Write Data" style="text;strokeColor=none;fillColor=none;spacingLeft=4;spacingRight=4;overflow=hidden;rotatable=1;points=[[0,0.5],[1,0.5]];portConstraint=eastwest;fontSize=12;movable=1;resizable=1;deletable=1;editable=1;connectable=1;" parent="1" vertex="1">
                    <mxGeometry x="2094" y="35" width="120" height="30" as="geometry"/>
                </mxCell>
                <mxCell id="PHQWkyu8HvDM8TcoegYn-114" value="Read Add" style="text;strokeColor=none;fillColor=none;spacingLeft=4;spacingRight=4;overflow=hidden;rotatable=1;points=[[0,0.5],[1,0.5]];portConstraint=eastwest;fontSize=12;movable=1;resizable=1;deletable=1;editable=1;connectable=1;" parent="1" vertex="1">
                    <mxGeometry x="2097" y="-64" width="120" height="30" as="geometry"/>
                </mxCell>
                <mxCell id="PHQWkyu8HvDM8TcoegYn-117" style="edgeStyle=orthogonalEdgeStyle;rounded=0;orthogonalLoop=1;jettySize=auto;html=1;exitX=1;exitY=0.5;exitDx=0;exitDy=0;entryX=0.75;entryY=1;entryDx=0;entryDy=0;movable=1;resizable=1;rotatable=1;deletable=1;editable=1;connectable=1;" parent="1" source="PHQWkyu8HvDM8TcoegYn-53" target="PHQWkyu8HvDM8TcoegYn-107" edge="1">
                    <mxGeometry relative="1" as="geometry">
                        <Array as="points">
                            <mxPoint x="1740" y="-36"/>
                            <mxPoint x="1914" y="-36"/>
                            <mxPoint x="1914" y="230"/>
                            <mxPoint x="1920" y="230"/>
                        </Array>
                    </mxGeometry>
                </mxCell>
                <mxCell id="PHQWkyu8HvDM8TcoegYn-238" style="edgeStyle=orthogonalEdgeStyle;rounded=0;orthogonalLoop=1;jettySize=auto;html=1;exitX=0.5;exitY=0;exitDx=0;exitDy=0;entryX=0;entryY=0.25;entryDx=0;entryDy=0;strokeColor=#000000;fillColor=#FF9933;" parent="1" source="PHQWkyu8HvDM8TcoegYn-119" target="PHQWkyu8HvDM8TcoegYn-43" edge="1">
                    <mxGeometry relative="1" as="geometry">
                        <Array as="points">
                            <mxPoint x="1297" y="168"/>
                            <mxPoint x="1297" y="-27"/>
                        </Array>
                    </mxGeometry>
                </mxCell>
                <mxCell id="PHQWkyu8HvDM8TcoegYn-119" value="" style="shape=trapezoid;perimeter=trapezoidPerimeter;whiteSpace=wrap;html=1;fixedSize=1;movable=1;resizable=1;rotatable=1;deletable=1;editable=1;connectable=1;" parent="1" vertex="1">
                    <mxGeometry x="1230" y="168" width="110" height="40" as="geometry"/>
                </mxCell>
                <mxCell id="PHQWkyu8HvDM8TcoegYn-120" style="edgeStyle=orthogonalEdgeStyle;rounded=0;orthogonalLoop=1;jettySize=auto;html=1;exitX=1;exitY=0.5;exitDx=0;exitDy=0;movable=1;resizable=1;rotatable=1;deletable=1;editable=1;connectable=1;entryX=0.5;entryY=1;entryDx=0;entryDy=0;" parent="1" target="PHQWkyu8HvDM8TcoegYn-127" edge="1">
                    <mxGeometry relative="1" as="geometry">
                        <Array as="points">
                            <mxPoint x="750" y="-39"/>
                            <mxPoint x="770" y="-39"/>
                            <mxPoint x="770" y="256"/>
                            <mxPoint x="1320" y="256"/>
                        </Array>
                        <mxPoint x="749.5" y="-36.07" as="sourcePoint"/>
                        <mxPoint x="1311" y="236" as="targetPoint"/>
                    </mxGeometry>
                </mxCell>
                <mxCell id="PHQWkyu8HvDM8TcoegYn-121" style="edgeStyle=orthogonalEdgeStyle;rounded=0;orthogonalLoop=1;jettySize=auto;html=1;exitX=1;exitY=0.5;exitDx=0;exitDy=0;entryX=0.25;entryY=1;entryDx=0;entryDy=0;movable=1;resizable=1;rotatable=1;deletable=1;editable=1;connectable=1;" parent="1" source="PHQWkyu8HvDM8TcoegYn-33" target="PHQWkyu8HvDM8TcoegYn-119" edge="1">
                    <mxGeometry relative="1" as="geometry">
                        <Array as="points">
                            <mxPoint x="1210" y="-33"/>
                            <mxPoint x="1210" y="228"/>
                            <mxPoint x="1258" y="228"/>
                        </Array>
                    </mxGeometry>
                </mxCell>
                <mxCell id="PHQWkyu8HvDM8TcoegYn-122" style="edgeStyle=orthogonalEdgeStyle;rounded=0;orthogonalLoop=1;jettySize=auto;html=1;exitX=1;exitY=0.5;exitDx=0;exitDy=0;entryX=0;entryY=0.75;entryDx=0;entryDy=0;movable=1;resizable=1;rotatable=1;deletable=1;editable=1;connectable=1;" parent="1" source="PHQWkyu8HvDM8TcoegYn-34" target="PHQWkyu8HvDM8TcoegYn-71" edge="1">
                    <mxGeometry relative="1" as="geometry"/>
                </mxCell>
                <mxCell id="PHQWkyu8HvDM8TcoegYn-123" value="" style="endArrow=classic;html=1;rounded=0;movable=1;resizable=1;rotatable=1;deletable=1;editable=1;connectable=1;" parent="1" target="PHQWkyu8HvDM8TcoegYn-119" edge="1">
                    <mxGeometry width="50" height="50" relative="1" as="geometry">
                        <mxPoint x="1170" y="198" as="sourcePoint"/>
                        <mxPoint x="1220" y="163" as="targetPoint"/>
                        <Array as="points">
                            <mxPoint x="1180" y="188"/>
                        </Array>
                    </mxGeometry>
                </mxCell>
                <mxCell id="PHQWkyu8HvDM8TcoegYn-125" value="ALU src" style="text;html=1;strokeColor=none;fillColor=none;align=center;verticalAlign=middle;whiteSpace=wrap;rounded=0;movable=1;resizable=1;rotatable=1;deletable=1;editable=1;connectable=1;" parent="1" vertex="1">
                    <mxGeometry x="1111" y="179.5" width="60" height="30" as="geometry"/>
                </mxCell>
                <mxCell id="PHQWkyu8HvDM8TcoegYn-126" value="0" style="text;html=1;strokeColor=none;fillColor=none;align=center;verticalAlign=middle;whiteSpace=wrap;rounded=0;movable=1;resizable=1;rotatable=1;deletable=1;editable=1;connectable=1;" parent="1" vertex="1">
                    <mxGeometry x="1230" y="178" width="60" height="30" as="geometry"/>
                </mxCell>
                <mxCell id="PHQWkyu8HvDM8TcoegYn-127" value="1" style="text;html=1;strokeColor=none;fillColor=none;align=center;verticalAlign=middle;whiteSpace=wrap;rounded=0;movable=1;resizable=1;rotatable=1;deletable=1;editable=1;connectable=1;" parent="1" vertex="1">
                    <mxGeometry x="1290" y="176" width="60" height="30" as="geometry"/>
                </mxCell>
                <mxCell id="PHQWkyu8HvDM8TcoegYn-150" value="0" style="text;strokeColor=none;fillColor=none;spacingLeft=4;spacingRight=4;overflow=hidden;rotatable=1;points=[[0,0.5],[1,0.5]];portConstraint=eastwest;fontSize=12;movable=1;resizable=1;deletable=1;editable=1;connectable=1;" parent="1" vertex="1">
                    <mxGeometry x="1910" y="254.5" width="110" height="30" as="geometry"/>
                </mxCell>
                <mxCell id="PHQWkyu8HvDM8TcoegYn-151" value="1" style="text;strokeColor=none;fillColor=none;spacingLeft=4;spacingRight=4;overflow=hidden;rotatable=1;points=[[0,0.5],[1,0.5]];portConstraint=eastwest;fontSize=12;movable=1;resizable=1;deletable=1;editable=1;connectable=1;" parent="1" vertex="1">
                    <mxGeometry x="1980" y="254.5" width="110" height="30" as="geometry"/>
                </mxCell>
                <mxCell id="PHQWkyu8HvDM8TcoegYn-152" style="edgeStyle=orthogonalEdgeStyle;rounded=0;orthogonalLoop=1;jettySize=auto;html=1;entryX=0.5;entryY=0;entryDx=0;entryDy=0;fontFamily=Helvetica;fontSize=12;fontColor=default;movable=1;resizable=1;rotatable=1;deletable=1;editable=1;connectable=1;" parent="1" source="PHQWkyu8HvDM8TcoegYn-153" target="PHQWkyu8HvDM8TcoegYn-16" edge="1">
                    <mxGeometry relative="1" as="geometry">
                        <Array as="points">
                            <mxPoint x="837" y="-269"/>
                        </Array>
                    </mxGeometry>
                </mxCell>
                <mxCell id="PHQWkyu8HvDM8TcoegYn-153" value="MUX" style="shape=trapezoid;perimeter=trapezoidPerimeter;whiteSpace=wrap;html=1;fixedSize=1;direction=south;movable=1;resizable=1;rotatable=1;deletable=1;editable=1;connectable=1;rotation=90;" parent="1" vertex="1">
                    <mxGeometry x="807" y="-456.25" width="60" height="120" as="geometry"/>
                </mxCell>
                <mxCell id="PHQWkyu8HvDM8TcoegYn-154" value="ALU src (control signal of previous inst)" style="text;html=1;strokeColor=none;fillColor=none;align=center;verticalAlign=middle;whiteSpace=wrap;rounded=0;movable=1;resizable=1;rotatable=1;deletable=1;editable=1;connectable=1;" parent="1" vertex="1">
                    <mxGeometry x="910" y="-414" width="191" height="30" as="geometry"/>
                </mxCell>
                <mxCell id="PHQWkyu8HvDM8TcoegYn-156" value="0" style="text;html=1;strokeColor=none;fillColor=none;align=center;verticalAlign=middle;whiteSpace=wrap;rounded=0;movable=1;resizable=1;rotatable=1;deletable=1;editable=1;connectable=1;" parent="1" vertex="1">
                    <mxGeometry x="788" y="-430" width="60" height="30" as="geometry"/>
                </mxCell>
                <mxCell id="PHQWkyu8HvDM8TcoegYn-199" style="edgeStyle=orthogonalEdgeStyle;rounded=0;orthogonalLoop=1;jettySize=auto;html=1;entryX=0.25;entryY=1;entryDx=0;entryDy=0;" parent="1" source="PHQWkyu8HvDM8TcoegYn-158" target="PHQWkyu8HvDM8TcoegYn-153" edge="1">
                    <mxGeometry relative="1" as="geometry">
                        <Array as="points">
                            <mxPoint x="867" y="-461"/>
                            <mxPoint x="867" y="-461"/>
                        </Array>
                    </mxGeometry>
                </mxCell>
                <mxCell id="PHQWkyu8HvDM8TcoegYn-158" value="101" style="text;html=1;strokeColor=none;fillColor=none;align=center;verticalAlign=middle;whiteSpace=wrap;rounded=0;movable=1;resizable=1;rotatable=1;deletable=1;editable=1;connectable=1;" parent="1" vertex="1">
                    <mxGeometry x="837" y="-500" width="60" height="30" as="geometry"/>
                </mxCell>
                <mxCell id="PHQWkyu8HvDM8TcoegYn-169" value="Micro processor" style="rounded=0;whiteSpace=wrap;html=1;movable=1;resizable=1;rotatable=1;deletable=1;editable=1;connectable=1;" parent="1" vertex="1">
                    <mxGeometry x="238" y="-728" width="145" height="184" as="geometry"/>
                </mxCell>
                <mxCell id="PHQWkyu8HvDM8TcoegYn-170" value="clk1" style="text;html=1;strokeColor=none;fillColor=none;align=center;verticalAlign=middle;whiteSpace=wrap;rounded=0;" parent="1" vertex="1">
                    <mxGeometry x="321" y="-570" width="60" height="30" as="geometry"/>
                </mxCell>
                <mxCell id="PHQWkyu8HvDM8TcoegYn-171" value="clk2" style="text;html=1;strokeColor=none;fillColor=none;align=center;verticalAlign=middle;whiteSpace=wrap;rounded=0;" parent="1" vertex="1">
                    <mxGeometry x="250" y="-568" width="60" height="30" as="geometry"/>
                </mxCell>
                <mxCell id="PHQWkyu8HvDM8TcoegYn-172" value="fetchReset" style="text;html=1;strokeColor=none;fillColor=none;align=center;verticalAlign=middle;whiteSpace=wrap;rounded=0;" parent="1" vertex="1">
                    <mxGeometry x="283" y="-725" width="60" height="30" as="geometry"/>
                </mxCell>
                <mxCell id="PHQWkyu8HvDM8TcoegYn-180" style="edgeStyle=orthogonalEdgeStyle;rounded=0;orthogonalLoop=1;jettySize=auto;html=1;entryX=0.75;entryY=1;entryDx=0;entryDy=0;" parent="1" source="PHQWkyu8HvDM8TcoegYn-173" target="PHQWkyu8HvDM8TcoegYn-4" edge="1">
                    <mxGeometry relative="1" as="geometry">
                        <mxPoint x="400" y="69.99999999999977" as="targetPoint"/>
                    </mxGeometry>
                </mxCell>
                <mxCell id="PHQWkyu8HvDM8TcoegYn-173" value="clk1" style="ellipse;whiteSpace=wrap;html=1;aspect=fixed;" parent="1" vertex="1">
                    <mxGeometry x="-43" y="164" width="74" height="74" as="geometry"/>
                </mxCell>
                <mxCell id="PHQWkyu8HvDM8TcoegYn-178" style="edgeStyle=orthogonalEdgeStyle;rounded=0;orthogonalLoop=1;jettySize=auto;html=1;entryX=0.5;entryY=1;entryDx=0;entryDy=0;" parent="1" source="PHQWkyu8HvDM8TcoegYn-174" target="PHQWkyu8HvDM8TcoegYn-4" edge="1">
                    <mxGeometry relative="1" as="geometry">
                        <Array as="points">
                            <mxPoint x="-6" y="147"/>
                            <mxPoint x="380" y="147"/>
                        </Array>
                    </mxGeometry>
                </mxCell>
                <mxCell id="PHQWkyu8HvDM8TcoegYn-174" value="reset" style="ellipse;whiteSpace=wrap;html=1;aspect=fixed;" parent="1" vertex="1">
                    <mxGeometry x="-49.5" y="31" width="87" height="87" as="geometry"/>
                </mxCell>
                <mxCell id="PHQWkyu8HvDM8TcoegYn-283" style="edgeStyle=orthogonalEdgeStyle;rounded=0;orthogonalLoop=1;jettySize=auto;html=1;strokeColor=#000000;fillColor=#FF9933;" parent="1" source="PHQWkyu8HvDM8TcoegYn-177" edge="1">
                    <mxGeometry relative="1" as="geometry">
                        <mxPoint x="101" y="322" as="targetPoint"/>
                    </mxGeometry>
                </mxCell>
                <mxCell id="PHQWkyu8HvDM8TcoegYn-177" value="clk2" style="ellipse;whiteSpace=wrap;html=1;aspect=fixed;strokeColor=#00CC00;fillColor=#00FF00;" parent="1" vertex="1">
                    <mxGeometry x="-43" y="284.5" width="74" height="74" as="geometry"/>
                </mxCell>
                <mxCell id="PHQWkyu8HvDM8TcoegYn-182" style="edgeStyle=orthogonalEdgeStyle;rounded=0;orthogonalLoop=1;jettySize=auto;html=1;entryX=0;entryY=0.5;entryDx=0;entryDy=0;" parent="1" source="PHQWkyu8HvDM8TcoegYn-181" target="PHQWkyu8HvDM8TcoegYn-13" edge="1">
                    <mxGeometry relative="1" as="geometry"/>
                </mxCell>
                <mxCell id="PHQWkyu8HvDM8TcoegYn-181" value="branch" style="ellipse;whiteSpace=wrap;html=1;aspect=fixed;fillColor=#FF9933;" parent="1" vertex="1">
                    <mxGeometry x="263" y="-381" width="74" height="74" as="geometry"/>
                </mxCell>
                <mxCell id="PHQWkyu8HvDM8TcoegYn-190" style="edgeStyle=orthogonalEdgeStyle;rounded=0;orthogonalLoop=1;jettySize=auto;html=1;entryX=0.75;entryY=1;entryDx=0;entryDy=0;" parent="1" source="PHQWkyu8HvDM8TcoegYn-184" target="PHQWkyu8HvDM8TcoegYn-13" edge="1">
                    <mxGeometry relative="1" as="geometry"/>
                </mxCell>
                <mxCell id="PHQWkyu8HvDM8TcoegYn-184" value="SignExtend" style="rounded=0;whiteSpace=wrap;html=1;fillColor=#FFFFFF;" parent="1" vertex="1">
                    <mxGeometry x="142" y="23" width="80" height="54" as="geometry"/>
                </mxCell>
                <mxCell id="PHQWkyu8HvDM8TcoegYn-193" style="edgeStyle=orthogonalEdgeStyle;rounded=0;orthogonalLoop=1;jettySize=auto;html=1;entryX=0;entryY=0.5;entryDx=0;entryDy=0;fillColor=#FF9933;strokeColor=#FF9933;" parent="1" source="PHQWkyu8HvDM8TcoegYn-33" target="PHQWkyu8HvDM8TcoegYn-184" edge="1">
                    <mxGeometry relative="1" as="geometry">
                        <Array as="points">
                            <mxPoint x="1193" y="-32"/>
                            <mxPoint x="1193" y="-170"/>
                            <mxPoint x="122" y="-170"/>
                            <mxPoint x="122" y="50"/>
                        </Array>
                    </mxGeometry>
                </mxCell>
                <mxCell id="PHQWkyu8HvDM8TcoegYn-194" value="Manually" style="ellipse;whiteSpace=wrap;html=1;aspect=fixed;fillColor=#FF9933;" parent="1" vertex="1">
                    <mxGeometry x="-259" y="540" width="74" height="74" as="geometry"/>
                </mxCell>
                <mxCell id="PHQWkyu8HvDM8TcoegYn-195" value="Negative Edge clk1" style="ellipse;whiteSpace=wrap;html=1;aspect=fixed;fillColor=#FF0000;" parent="1" vertex="1">
                    <mxGeometry x="-121" y="545" width="74" height="74" as="geometry"/>
                </mxCell>
                <mxCell id="PHQWkyu8HvDM8TcoegYn-197" style="edgeStyle=orthogonalEdgeStyle;rounded=0;orthogonalLoop=1;jettySize=auto;html=1;entryX=0;entryY=0.25;entryDx=0;entryDy=0;" parent="1" edge="1">
                    <mxGeometry relative="1" as="geometry">
                        <mxPoint x="1181" y="-57" as="sourcePoint"/>
                        <mxPoint x="883.1538461538462" y="-386.71153846153845" as="targetPoint"/>
                        <Array as="points">
                            <mxPoint x="1216" y="-57"/>
                            <mxPoint x="1216" y="-387"/>
                        </Array>
                    </mxGeometry>
                </mxCell>
                <mxCell id="PHQWkyu8HvDM8TcoegYn-200" value="1" style="text;html=1;strokeColor=none;fillColor=none;align=center;verticalAlign=middle;whiteSpace=wrap;rounded=0;movable=1;resizable=1;rotatable=1;deletable=1;editable=1;connectable=1;" parent="1" vertex="1">
                    <mxGeometry x="834" y="-426" width="60" height="30" as="geometry"/>
                </mxCell>
                <mxCell id="PHQWkyu8HvDM8TcoegYn-207" value="Read Data2" style="text;html=1;strokeColor=none;fillColor=none;align=center;verticalAlign=middle;whiteSpace=wrap;rounded=0;movable=1;resizable=1;rotatable=1;deletable=1;editable=1;connectable=1;" parent="1" vertex="1">
                    <mxGeometry x="923" y="-20" width="90" height="30" as="geometry"/>
                </mxCell>
                <mxCell id="PHQWkyu8HvDM8TcoegYn-212" value="ALUop-AluSrc-MEMW-MEMR-MTR-Branch-regWrite-In-Out-Stack_op-Push" style="text;html=1;strokeColor=none;fillColor=none;align=center;verticalAlign=middle;whiteSpace=wrap;rounded=0;" parent="1" vertex="1">
                    <mxGeometry x="883" y="-288" width="288" height="94" as="geometry"/>
                </mxCell>
                <mxCell id="PHQWkyu8HvDM8TcoegYn-216" style="edgeStyle=orthogonalEdgeStyle;rounded=0;orthogonalLoop=1;jettySize=auto;html=1;entryX=0;entryY=0.5;entryDx=0;entryDy=0;" parent="1" source="PHQWkyu8HvDM8TcoegYn-213" target="PHQWkyu8HvDM8TcoegYn-35" edge="1">
                    <mxGeometry relative="1" as="geometry">
                        <Array as="points">
                            <mxPoint x="1018" y="194"/>
                            <mxPoint x="1018" y="37"/>
                        </Array>
                    </mxGeometry>
                </mxCell>
                <mxCell id="PHQWkyu8HvDM8TcoegYn-218" style="edgeStyle=orthogonalEdgeStyle;rounded=0;orthogonalLoop=1;jettySize=auto;html=1;entryX=0;entryY=0.5;entryDx=0;entryDy=0;" parent="1" source="PHQWkyu8HvDM8TcoegYn-213" target="PHQWkyu8HvDM8TcoegYn-36" edge="1">
                    <mxGeometry relative="1" as="geometry">
                        <Array as="points">
                            <mxPoint x="1043" y="206"/>
                            <mxPoint x="1043" y="67"/>
                        </Array>
                    </mxGeometry>
                </mxCell>
                <mxCell id="PHQWkyu8HvDM8TcoegYn-213" value="Decode buffer" style="rounded=1;whiteSpace=wrap;html=1;fillColor=#FF0000;" parent="1" vertex="1">
                    <mxGeometry x="881" y="171" width="120" height="60" as="geometry"/>
                </mxCell>
                <mxCell id="PHQWkyu8HvDM8TcoegYn-49" value="Inst [2:0]" style="text;html=1;strokeColor=none;fillColor=none;align=center;verticalAlign=middle;whiteSpace=wrap;rounded=0;movable=1;resizable=1;rotatable=1;deletable=1;editable=1;connectable=1;" parent="1" vertex="1">
                    <mxGeometry x="780" y="194" width="90" height="30" as="geometry"/>
                </mxCell>
                <mxCell id="PHQWkyu8HvDM8TcoegYn-225" style="edgeStyle=orthogonalEdgeStyle;rounded=0;orthogonalLoop=1;jettySize=auto;html=1;entryX=0;entryY=0.75;entryDx=0;entryDy=0;" parent="1" source="PHQWkyu8HvDM8TcoegYn-6" target="PHQWkyu8HvDM8TcoegYn-213" edge="1">
                    <mxGeometry relative="1" as="geometry">
                        <Array as="points">
                            <mxPoint x="770" y="-35"/>
                            <mxPoint x="770" y="217"/>
                            <mxPoint x="873" y="217"/>
                        </Array>
                    </mxGeometry>
                </mxCell>
                <mxCell id="PHQWkyu8HvDM8TcoegYn-227" style="edgeStyle=orthogonalEdgeStyle;rounded=0;orthogonalLoop=1;jettySize=auto;html=1;entryX=0.5;entryY=1;entryDx=0;entryDy=0;" parent="1" source="PHQWkyu8HvDM8TcoegYn-65" target="PHQWkyu8HvDM8TcoegYn-69" edge="1">
                    <mxGeometry relative="1" as="geometry">
                        <Array as="points">
                            <mxPoint x="1081" y="281"/>
                            <mxPoint x="1081" y="168"/>
                            <mxPoint x="932" y="168"/>
                        </Array>
                    </mxGeometry>
                </mxCell>
                <mxCell id="PHQWkyu8HvDM8TcoegYn-236" value="&lt;span style=&quot;font-size: 12px;&quot;&gt;in1&lt;/span&gt;" style="text;html=1;strokeColor=none;fillColor=none;align=center;verticalAlign=middle;whiteSpace=wrap;rounded=0;fontSize=24;movable=1;resizable=1;rotatable=1;deletable=1;editable=1;connectable=1;" parent="1" vertex="1">
                    <mxGeometry x="1290" y="-49" width="93" height="30" as="geometry"/>
                </mxCell>
                <mxCell id="PHQWkyu8HvDM8TcoegYn-239" value="&lt;span style=&quot;font-size: 12px;&quot;&gt;out&lt;/span&gt;" style="text;html=1;strokeColor=none;fillColor=none;align=center;verticalAlign=middle;whiteSpace=wrap;rounded=0;fontSize=24;movable=1;resizable=1;rotatable=1;deletable=1;editable=1;connectable=1;" parent="1" vertex="1">
                    <mxGeometry x="1350" y="-16" width="93" height="30" as="geometry"/>
                </mxCell>
                <mxCell id="PHQWkyu8HvDM8TcoegYn-240" value="&lt;span style=&quot;font-size: 12px;&quot;&gt;flag&lt;/span&gt;" style="text;html=1;strokeColor=none;fillColor=none;align=center;verticalAlign=middle;whiteSpace=wrap;rounded=0;fontSize=24;movable=1;resizable=1;rotatable=1;deletable=1;editable=1;connectable=1;" parent="1" vertex="1">
                    <mxGeometry x="1337" y="-43" width="93" height="30" as="geometry"/>
                </mxCell>
                <mxCell id="PHQWkyu8HvDM8TcoegYn-243" style="edgeStyle=orthogonalEdgeStyle;rounded=0;orthogonalLoop=1;jettySize=auto;html=1;exitX=1;exitY=0.25;exitDx=0;exitDy=0;entryX=0;entryY=0.5;entryDx=0;entryDy=0;strokeColor=#000000;fillColor=#FF9933;" parent="1" source="PHQWkyu8HvDM8TcoegYn-241" target="PHQWkyu8HvDM8TcoegYn-54" edge="1">
                    <mxGeometry relative="1" as="geometry">
                        <Array as="points">
                            <mxPoint x="1589" y="155"/>
                            <mxPoint x="1589" y="-12"/>
                        </Array>
                    </mxGeometry>
                </mxCell>
                <mxCell id="PHQWkyu8HvDM8TcoegYn-244" style="edgeStyle=orthogonalEdgeStyle;rounded=0;orthogonalLoop=1;jettySize=auto;html=1;exitX=1;exitY=0.75;exitDx=0;exitDy=0;entryX=0;entryY=0.5;entryDx=0;entryDy=0;strokeColor=#000000;fillColor=#FF9933;" parent="1" source="PHQWkyu8HvDM8TcoegYn-241" target="PHQWkyu8HvDM8TcoegYn-55" edge="1">
                    <mxGeometry relative="1" as="geometry">
                        <Array as="points">
                            <mxPoint x="1609" y="185"/>
                            <mxPoint x="1609" y="18"/>
                        </Array>
                    </mxGeometry>
                </mxCell>
                <mxCell id="PHQWkyu8HvDM8TcoegYn-257" style="edgeStyle=orthogonalEdgeStyle;rounded=0;orthogonalLoop=1;jettySize=auto;html=1;entryX=0;entryY=0.5;entryDx=0;entryDy=0;strokeColor=#000000;fillColor=#FF9933;" parent="1" source="PHQWkyu8HvDM8TcoegYn-241" target="PHQWkyu8HvDM8TcoegYn-52" edge="1">
                    <mxGeometry relative="1" as="geometry"/>
                </mxCell>
                <mxCell id="PHQWkyu8HvDM8TcoegYn-241" value="Excute Bufer" style="rounded=1;whiteSpace=wrap;html=1;fillColor=#FF0000;" parent="1" vertex="1">
                    <mxGeometry x="1465" y="140" width="120" height="60" as="geometry"/>
                </mxCell>
                <mxCell id="PHQWkyu8HvDM8TcoegYn-242" style="edgeStyle=orthogonalEdgeStyle;rounded=0;orthogonalLoop=1;jettySize=auto;html=1;entryX=0;entryY=0.75;entryDx=0;entryDy=0;strokeColor=#000000;fillColor=#FF9933;" parent="1" source="PHQWkyu8HvDM8TcoegYn-34" target="PHQWkyu8HvDM8TcoegYn-241" edge="1">
                    <mxGeometry relative="1" as="geometry">
                        <Array as="points">
                            <mxPoint x="1237" y="7"/>
                            <mxPoint x="1237" y="145"/>
                            <mxPoint x="1425" y="145"/>
                            <mxPoint x="1425" y="185"/>
                        </Array>
                    </mxGeometry>
                </mxCell>
                <mxCell id="PHQWkyu8HvDM8TcoegYn-256" style="edgeStyle=orthogonalEdgeStyle;rounded=0;orthogonalLoop=1;jettySize=auto;html=1;entryX=0.5;entryY=1;entryDx=0;entryDy=0;strokeColor=#000000;fillColor=#FF9933;" parent="1" source="PHQWkyu8HvDM8TcoegYn-252" target="PHQWkyu8HvDM8TcoegYn-241" edge="1">
                    <mxGeometry relative="1" as="geometry">
                        <Array as="points">
                            <mxPoint x="1525" y="228"/>
                            <mxPoint x="1525" y="228"/>
                        </Array>
                    </mxGeometry>
                </mxCell>
                <mxCell id="PHQWkyu8HvDM8TcoegYn-252" value="Control Signals(without branch-AluSrc-AluOp)" style="text;strokeColor=none;fillColor=none;spacingLeft=4;spacingRight=4;overflow=hidden;rotatable=1;points=[[0,0.5],[1,0.5]];portConstraint=eastwest;fontSize=12;movable=1;resizable=1;deletable=1;editable=1;connectable=1;" parent="1" vertex="1">
                    <mxGeometry x="1354" y="219" width="360" height="29.5" as="geometry"/>
                </mxCell>
                <mxCell id="PHQWkyu8HvDM8TcoegYn-261" style="edgeStyle=orthogonalEdgeStyle;rounded=0;orthogonalLoop=1;jettySize=auto;html=1;strokeColor=#000000;fillColor=#FF9933;" parent="1" source="PHQWkyu8HvDM8TcoegYn-52" target="PHQWkyu8HvDM8TcoegYn-109" edge="1">
                    <mxGeometry relative="1" as="geometry">
                        <Array as="points">
                            <mxPoint x="1775" y="-64"/>
                            <mxPoint x="1775" y="-246"/>
                            <mxPoint x="2138" y="-246"/>
                        </Array>
                    </mxGeometry>
                </mxCell>
                <mxCell id="PHQWkyu8HvDM8TcoegYn-262" value="MEWR" style="text;html=1;strokeColor=none;fillColor=none;align=center;verticalAlign=middle;whiteSpace=wrap;rounded=0;movable=1;resizable=1;rotatable=1;deletable=1;editable=1;connectable=1;" parent="1" vertex="1">
                    <mxGeometry x="1885" y="-277" width="84" height="30" as="geometry"/>
                </mxCell>
                <mxCell id="PHQWkyu8HvDM8TcoegYn-265" style="edgeStyle=orthogonalEdgeStyle;rounded=0;orthogonalLoop=1;jettySize=auto;html=1;strokeColor=#000000;fillColor=#FF9933;" parent="1" source="PHQWkyu8HvDM8TcoegYn-52" target="PHQWkyu8HvDM8TcoegYn-102" edge="1">
                    <mxGeometry relative="1" as="geometry"/>
                </mxCell>
                <mxCell id="PHQWkyu8HvDM8TcoegYn-266" value="MEMW" style="text;html=1;strokeColor=none;fillColor=none;align=center;verticalAlign=middle;whiteSpace=wrap;rounded=0;movable=1;resizable=1;rotatable=1;deletable=1;editable=1;connectable=1;" parent="1" vertex="1">
                    <mxGeometry x="1936" y="-110" width="84" height="30" as="geometry"/>
                </mxCell>
                <mxCell id="PHQWkyu8HvDM8TcoegYn-269" style="edgeStyle=orthogonalEdgeStyle;rounded=0;orthogonalLoop=1;jettySize=auto;html=1;entryX=0;entryY=0.5;entryDx=0;entryDy=0;strokeColor=#000000;fillColor=#FF9933;" parent="1" source="PHQWkyu8HvDM8TcoegYn-53" target="PHQWkyu8HvDM8TcoegYn-114" edge="1">
                    <mxGeometry relative="1" as="geometry">
                        <Array as="points">
                            <mxPoint x="1918" y="-45"/>
                            <mxPoint x="1918" y="-49"/>
                        </Array>
                    </mxGeometry>
                </mxCell>
                <mxCell id="PHQWkyu8HvDM8TcoegYn-270" style="edgeStyle=orthogonalEdgeStyle;rounded=0;orthogonalLoop=1;jettySize=auto;html=1;strokeColor=#000000;fillColor=#FF9933;" parent="1" source="PHQWkyu8HvDM8TcoegYn-55" target="PHQWkyu8HvDM8TcoegYn-112" edge="1">
                    <mxGeometry relative="1" as="geometry">
                        <Array as="points">
                            <mxPoint x="1941" y="18"/>
                            <mxPoint x="1941" y="50"/>
                        </Array>
                    </mxGeometry>
                </mxCell>
                <mxCell id="PHQWkyu8HvDM8TcoegYn-273" style="edgeStyle=orthogonalEdgeStyle;rounded=0;orthogonalLoop=1;jettySize=auto;html=1;entryX=1;entryY=0.5;entryDx=0;entryDy=0;strokeColor=#000000;fillColor=#FF9933;" parent="1" source="PHQWkyu8HvDM8TcoegYn-271" target="PHQWkyu8HvDM8TcoegYn-67" edge="1">
                    <mxGeometry relative="1" as="geometry"/>
                </mxCell>
                <mxCell id="PHQWkyu8HvDM8TcoegYn-277" style="edgeStyle=orthogonalEdgeStyle;rounded=0;orthogonalLoop=1;jettySize=auto;html=1;strokeColor=#000000;fillColor=#FF9933;" parent="1" source="PHQWkyu8HvDM8TcoegYn-271" target="PHQWkyu8HvDM8TcoegYn-65" edge="1">
                    <mxGeometry relative="1" as="geometry">
                        <Array as="points">
                            <mxPoint x="1702" y="281"/>
                        </Array>
                    </mxGeometry>
                </mxCell>
                <mxCell id="PHQWkyu8HvDM8TcoegYn-271" value="Excute Bufer" style="rounded=1;whiteSpace=wrap;html=1;fillColor=#FF0000;" parent="1" vertex="1">
                    <mxGeometry x="1668" y="198" width="120" height="60" as="geometry"/>
                </mxCell>
                <mxCell id="PHQWkyu8HvDM8TcoegYn-275" style="edgeStyle=orthogonalEdgeStyle;rounded=0;orthogonalLoop=1;jettySize=auto;html=1;entryX=0.5;entryY=0;entryDx=0;entryDy=0;strokeColor=#000000;fillColor=#FF9933;" parent="1" source="PHQWkyu8HvDM8TcoegYn-54" target="PHQWkyu8HvDM8TcoegYn-271" edge="1">
                    <mxGeometry relative="1" as="geometry"/>
                </mxCell>
                <mxCell id="PHQWkyu8HvDM8TcoegYn-276" style="edgeStyle=orthogonalEdgeStyle;rounded=0;orthogonalLoop=1;jettySize=auto;html=1;entryX=0.843;entryY=0.014;entryDx=0;entryDy=0;entryPerimeter=0;strokeColor=#000000;fillColor=#FF9933;" parent="1" source="PHQWkyu8HvDM8TcoegYn-52" target="PHQWkyu8HvDM8TcoegYn-271" edge="1">
                    <mxGeometry relative="1" as="geometry"/>
                </mxCell>
                <mxCell id="PHQWkyu8HvDM8TcoegYn-278" value="Control Signals(RegWr-In-Out)" style="text;strokeColor=none;fillColor=none;spacingLeft=4;spacingRight=4;overflow=hidden;rotatable=1;points=[[0,0.5],[1,0.5]];portConstraint=eastwest;fontSize=12;movable=1;resizable=1;deletable=1;editable=1;connectable=1;rotation=-90;" parent="1" vertex="1">
                    <mxGeometry x="1688" y="51" width="230" height="68" as="geometry"/>
                </mxCell>
                <mxCell id="PHQWkyu8HvDM8TcoegYn-279" value="Reg Write" style="text;html=1;strokeColor=none;fillColor=none;align=center;verticalAlign=middle;whiteSpace=wrap;rounded=0;movable=1;resizable=1;rotatable=1;deletable=1;editable=1;connectable=1;" parent="1" vertex="1">
                    <mxGeometry x="1065" y="210" width="90" height="30" as="geometry"/>
                </mxCell>
                <mxCell id="PHQWkyu8HvDM8TcoegYn-280" style="edgeStyle=orthogonalEdgeStyle;rounded=0;orthogonalLoop=1;jettySize=auto;html=1;entryX=0;entryY=0.5;entryDx=0;entryDy=0;strokeColor=#000000;fillColor=#FF9933;" parent="1" source="PHQWkyu8HvDM8TcoegYn-66" target="PHQWkyu8HvDM8TcoegYn-27" edge="1">
                    <mxGeometry relative="1" as="geometry">
                        <Array as="points">
                            <mxPoint x="663" y="311"/>
                            <mxPoint x="663" y="118"/>
                        </Array>
                    </mxGeometry>
                </mxCell>
                <mxCell id="PHQWkyu8HvDM8TcoegYn-281" value="Postive Edge clk2" style="ellipse;whiteSpace=wrap;html=1;aspect=fixed;fillColor=#33FF33;" parent="1" vertex="1">
                    <mxGeometry x="17" y="549" width="74" height="74" as="geometry"/>
                </mxCell>
                <mxCell id="PHQWkyu8HvDM8TcoegYn-284" value="&lt;h1&gt;Reg File write +ve Read -ve clk1&lt;/h1&gt;" style="text;html=1;strokeColor=none;fillColor=#33FF33;spacing=5;spacingTop=-20;whiteSpace=wrap;overflow=hidden;rounded=0;" parent="1" vertex="1">
                    <mxGeometry x="855" y="382" width="190" height="120" as="geometry"/>
                </mxCell>
            </root>
        </mxGraphModel>
    </diagram>
    <diagram name="Initial Design" id="kgFTZ6A16qWdoX_X9Zli">
        <mxGraphModel dx="1703" dy="1982" grid="1" gridSize="10" guides="1" tooltips="1" connect="1" arrows="1" fold="1" page="1" pageScale="1.5" pageWidth="1169" pageHeight="826" background="none" math="0" shadow="0">
            <root>
                <mxCell id="0" style=";html=1;"/>
                <mxCell id="1" style=";html=1;" parent="0"/>
                <mxCell id="qtC0jDbBa8BHLBBzWzsQ-12" value="" style="edgeStyle=orthogonalEdgeStyle;rounded=0;orthogonalLoop=1;jettySize=auto;html=1;movable=0;resizable=0;rotatable=0;deletable=0;editable=0;connectable=0;" parent="1" source="qtC0jDbBa8BHLBBzWzsQ-2" edge="1">
                    <mxGeometry relative="1" as="geometry">
                        <mxPoint x="429.9999999999998" y="325.0769230769231" as="targetPoint"/>
                        <Array as="points">
                            <mxPoint x="420" y="370"/>
                            <mxPoint x="420" y="325"/>
                        </Array>
                    </mxGeometry>
                </mxCell>
                <mxCell id="qtC0jDbBa8BHLBBzWzsQ-2" value="Code Memory" style="rounded=0;whiteSpace=wrap;html=1;movable=0;resizable=0;rotatable=0;deletable=0;editable=0;connectable=0;" parent="1" vertex="1">
                    <mxGeometry x="260" y="340" width="120" height="60" as="geometry"/>
                </mxCell>
                <mxCell id="qtC0jDbBa8BHLBBzWzsQ-4" value="" style="edgeStyle=orthogonalEdgeStyle;rounded=0;orthogonalLoop=1;jettySize=auto;html=1;movable=0;resizable=0;rotatable=0;deletable=0;editable=0;connectable=0;" parent="1" source="qtC0jDbBa8BHLBBzWzsQ-3" target="qtC0jDbBa8BHLBBzWzsQ-2" edge="1">
                    <mxGeometry relative="1" as="geometry"/>
                </mxCell>
                <mxCell id="qtC0jDbBa8BHLBBzWzsQ-3" value="PC (32)" style="rounded=0;whiteSpace=wrap;html=1;movable=0;resizable=0;rotatable=0;deletable=0;editable=0;connectable=0;" parent="1" vertex="1">
                    <mxGeometry x="150" y="360" width="60" height="20" as="geometry"/>
                </mxCell>
                <mxCell id="qtC0jDbBa8BHLBBzWzsQ-7" value="F/D" style="swimlane;fontStyle=0;childLayout=stackLayout;horizontal=1;startSize=26;horizontalStack=0;resizeParent=1;resizeParentMax=0;resizeLast=0;collapsible=1;marginBottom=0;align=center;fontSize=14;movable=0;resizable=0;rotatable=0;deletable=0;editable=0;connectable=0;" parent="1" vertex="1">
                    <mxGeometry x="430" y="274" width="120" height="56" as="geometry"/>
                </mxCell>
                <mxCell id="qtC0jDbBa8BHLBBzWzsQ-8" value="Instruction (32)" style="text;strokeColor=none;fillColor=none;spacingLeft=4;spacingRight=4;overflow=hidden;rotatable=1;points=[[0,0.5],[1,0.5]];portConstraint=eastwest;fontSize=12;movable=1;resizable=1;deletable=1;editable=1;connectable=1;" parent="qtC0jDbBa8BHLBBzWzsQ-7" vertex="1">
                    <mxGeometry y="26" width="120" height="30" as="geometry"/>
                </mxCell>
                <mxCell id="qtC0jDbBa8BHLBBzWzsQ-17" value="" style="edgeStyle=orthogonalEdgeStyle;rounded=0;orthogonalLoop=1;jettySize=auto;html=1;movable=0;resizable=0;rotatable=0;deletable=0;editable=0;connectable=0;" parent="1" target="qtC0jDbBa8BHLBBzWzsQ-14" edge="1">
                    <mxGeometry relative="1" as="geometry">
                        <mxPoint x="230" y="370" as="sourcePoint"/>
                        <Array as="points">
                            <mxPoint x="230" y="250"/>
                        </Array>
                    </mxGeometry>
                </mxCell>
                <mxCell id="qtC0jDbBa8BHLBBzWzsQ-31" style="edgeStyle=orthogonalEdgeStyle;rounded=0;orthogonalLoop=1;jettySize=auto;html=1;movable=0;resizable=0;rotatable=0;deletable=0;editable=0;connectable=0;" parent="1" source="qtC0jDbBa8BHLBBzWzsQ-14" target="qtC0jDbBa8BHLBBzWzsQ-27" edge="1">
                    <mxGeometry relative="1" as="geometry">
                        <mxPoint x="50.066666666666606" y="310" as="targetPoint"/>
                        <Array as="points">
                            <mxPoint x="50" y="237"/>
                            <mxPoint x="50" y="330"/>
                        </Array>
                    </mxGeometry>
                </mxCell>
                <mxCell id="qtC0jDbBa8BHLBBzWzsQ-14" value="ADD" style="rounded=0;whiteSpace=wrap;html=1;movable=1;resizable=1;rotatable=1;deletable=1;editable=1;connectable=1;" parent="1" vertex="1">
                    <mxGeometry x="340" y="251" width="60" height="34" as="geometry"/>
                </mxCell>
                <mxCell id="qtC0jDbBa8BHLBBzWzsQ-24" value="" style="edgeStyle=orthogonalEdgeStyle;rounded=0;orthogonalLoop=1;jettySize=auto;html=1;movable=0;resizable=0;rotatable=0;deletable=0;editable=0;connectable=0;" parent="1" source="qtC0jDbBa8BHLBBzWzsQ-22" target="qtC0jDbBa8BHLBBzWzsQ-14" edge="1">
                    <mxGeometry relative="1" as="geometry"/>
                </mxCell>
                <mxCell id="qtC0jDbBa8BHLBBzWzsQ-22" value="1" style="text;html=1;strokeColor=none;fillColor=none;align=center;verticalAlign=middle;whiteSpace=wrap;rounded=0;movable=0;resizable=0;rotatable=0;deletable=0;editable=0;connectable=0;" parent="1" vertex="1">
                    <mxGeometry x="230" y="260" width="60" height="30" as="geometry"/>
                </mxCell>
                <mxCell id="qtC0jDbBa8BHLBBzWzsQ-28" value="" style="edgeStyle=orthogonalEdgeStyle;rounded=0;orthogonalLoop=1;jettySize=auto;html=1;movable=0;resizable=0;rotatable=0;deletable=0;editable=0;connectable=0;" parent="1" source="qtC0jDbBa8BHLBBzWzsQ-27" target="qtC0jDbBa8BHLBBzWzsQ-3" edge="1">
                    <mxGeometry relative="1" as="geometry"/>
                </mxCell>
                <mxCell id="qtC0jDbBa8BHLBBzWzsQ-27" value="MUX" style="shape=trapezoid;perimeter=trapezoidPerimeter;whiteSpace=wrap;html=1;fixedSize=1;direction=south;movable=0;resizable=0;rotatable=0;deletable=0;editable=0;connectable=0;" parent="1" vertex="1">
                    <mxGeometry x="70" y="310" width="60" height="120" as="geometry"/>
                </mxCell>
                <mxCell id="qtC0jDbBa8BHLBBzWzsQ-32" value="0" style="text;html=1;strokeColor=none;fillColor=none;align=center;verticalAlign=middle;whiteSpace=wrap;rounded=0;movable=0;resizable=0;rotatable=0;deletable=0;editable=0;connectable=0;" parent="1" vertex="1">
                    <mxGeometry x="50" y="320" width="60" height="30" as="geometry"/>
                </mxCell>
                <mxCell id="qtC0jDbBa8BHLBBzWzsQ-85" style="edgeStyle=orthogonalEdgeStyle;rounded=0;orthogonalLoop=1;jettySize=auto;html=1;exitX=1;exitY=0.75;exitDx=0;exitDy=0;fontSize=24;entryX=0;entryY=0.5;entryDx=0;entryDy=0;movable=0;resizable=0;rotatable=0;deletable=0;editable=0;connectable=0;" parent="1" source="qtC0jDbBa8BHLBBzWzsQ-33" target="qtC0jDbBa8BHLBBzWzsQ-64" edge="1">
                    <mxGeometry relative="1" as="geometry">
                        <mxPoint x="820" y="244.9999999999999" as="targetPoint"/>
                        <Array as="points">
                            <mxPoint x="810" y="132"/>
                            <mxPoint x="810" y="285"/>
                        </Array>
                    </mxGeometry>
                </mxCell>
                <mxCell id="qtC0jDbBa8BHLBBzWzsQ-33" value="CU" style="rounded=0;whiteSpace=wrap;html=1;movable=1;resizable=1;rotatable=1;deletable=1;editable=1;connectable=1;" parent="1" vertex="1">
                    <mxGeometry x="590" y="80" width="60" height="70" as="geometry"/>
                </mxCell>
                <mxCell id="qtC0jDbBa8BHLBBzWzsQ-38" value="" style="edgeStyle=orthogonalEdgeStyle;rounded=0;orthogonalLoop=1;jettySize=auto;html=1;exitX=1;exitY=0.5;exitDx=0;exitDy=0;movable=1;resizable=1;rotatable=1;deletable=1;editable=1;connectable=1;" parent="1" source="qtC0jDbBa8BHLBBzWzsQ-8" edge="1">
                    <mxGeometry relative="1" as="geometry">
                        <mxPoint x="590" y="204.9999999999999" as="sourcePoint"/>
                        <Array as="points">
                            <mxPoint x="570" y="315"/>
                            <mxPoint x="570" y="-140"/>
                            <mxPoint x="620" y="-140"/>
                        </Array>
                        <mxPoint x="610" y="-80" as="targetPoint"/>
                    </mxGeometry>
                </mxCell>
                <mxCell id="qtC0jDbBa8BHLBBzWzsQ-49" style="edgeStyle=orthogonalEdgeStyle;rounded=0;orthogonalLoop=1;jettySize=auto;html=1;entryX=-0.019;entryY=0.113;entryDx=0;entryDy=0;entryPerimeter=0;movable=0;resizable=0;rotatable=0;deletable=0;editable=0;connectable=0;" parent="1" target="qtC0jDbBa8BHLBBzWzsQ-41" edge="1">
                    <mxGeometry relative="1" as="geometry">
                        <mxPoint x="570" y="280" as="sourcePoint"/>
                    </mxGeometry>
                </mxCell>
                <mxCell id="qtC0jDbBa8BHLBBzWzsQ-41" value="&lt;font style=&quot;font-size: 24px;&quot;&gt;Reg File&lt;/font&gt;" style="rounded=0;whiteSpace=wrap;html=1;movable=1;resizable=1;rotatable=1;deletable=1;editable=1;connectable=1;" parent="1" vertex="1">
                    <mxGeometry x="667" y="251" width="130" height="250" as="geometry"/>
                </mxCell>
                <mxCell id="qtC0jDbBa8BHLBBzWzsQ-42" value="Read Add1" style="text;html=1;strokeColor=none;fillColor=none;align=center;verticalAlign=middle;whiteSpace=wrap;rounded=0;movable=0;resizable=0;rotatable=0;deletable=0;editable=0;connectable=0;" parent="1" vertex="1">
                    <mxGeometry x="660" y="270" width="90" height="30" as="geometry"/>
                </mxCell>
                <mxCell id="qtC0jDbBa8BHLBBzWzsQ-47" value="Inst [15:13]" style="text;html=1;strokeColor=none;fillColor=none;align=center;verticalAlign=middle;whiteSpace=wrap;rounded=0;movable=0;resizable=0;rotatable=0;deletable=0;editable=0;connectable=0;" parent="1" vertex="1">
                    <mxGeometry x="490" y="230" width="90" height="30" as="geometry"/>
                </mxCell>
                <mxCell id="qtC0jDbBa8BHLBBzWzsQ-50" style="edgeStyle=orthogonalEdgeStyle;rounded=0;orthogonalLoop=1;jettySize=auto;html=1;entryX=0;entryY=0.306;entryDx=0;entryDy=0;entryPerimeter=0;movable=0;resizable=0;rotatable=0;deletable=0;editable=0;connectable=0;" parent="1" target="qtC0jDbBa8BHLBBzWzsQ-41" edge="1">
                    <mxGeometry relative="1" as="geometry">
                        <mxPoint x="570" y="310" as="sourcePoint"/>
                        <mxPoint x="674.5300000000002" y="335.2499999999999" as="targetPoint"/>
                    </mxGeometry>
                </mxCell>
                <mxCell id="qtC0jDbBa8BHLBBzWzsQ-51" value="Read Add2" style="text;html=1;strokeColor=none;fillColor=none;align=center;verticalAlign=middle;whiteSpace=wrap;rounded=0;movable=0;resizable=0;rotatable=0;deletable=0;editable=0;connectable=0;" parent="1" vertex="1">
                    <mxGeometry x="660" y="320" width="90" height="30" as="geometry"/>
                </mxCell>
                <mxCell id="qtC0jDbBa8BHLBBzWzsQ-52" value="Inst [12:10]" style="text;html=1;strokeColor=none;fillColor=none;align=center;verticalAlign=middle;whiteSpace=wrap;rounded=0;movable=0;resizable=0;rotatable=0;deletable=0;editable=0;connectable=0;" parent="1" vertex="1">
                    <mxGeometry x="575" y="254" width="90" height="30" as="geometry"/>
                </mxCell>
                <mxCell id="qtC0jDbBa8BHLBBzWzsQ-53" value="Inst [9:7]" style="text;html=1;strokeColor=none;fillColor=none;align=center;verticalAlign=middle;whiteSpace=wrap;rounded=0;movable=0;resizable=0;rotatable=0;deletable=0;editable=0;connectable=0;" parent="1" vertex="1">
                    <mxGeometry x="575" y="287" width="90" height="30" as="geometry"/>
                </mxCell>
                <mxCell id="qtC0jDbBa8BHLBBzWzsQ-54" value="Write Add" style="text;html=1;strokeColor=none;fillColor=none;align=center;verticalAlign=middle;whiteSpace=wrap;rounded=0;movable=0;resizable=0;rotatable=0;deletable=0;editable=0;connectable=0;" parent="1" vertex="1">
                    <mxGeometry x="650" y="410" width="90" height="30" as="geometry"/>
                </mxCell>
                <mxCell id="qtC0jDbBa8BHLBBzWzsQ-55" value="Write Data" style="text;html=1;strokeColor=none;fillColor=none;align=center;verticalAlign=middle;whiteSpace=wrap;rounded=0;movable=1;resizable=1;rotatable=1;deletable=1;editable=1;connectable=1;" parent="1" vertex="1">
                    <mxGeometry x="667" y="457" width="90" height="30" as="geometry"/>
                </mxCell>
                <mxCell id="nEk47-ToGR5tLwDKOAZd-76" style="edgeStyle=orthogonalEdgeStyle;rounded=0;orthogonalLoop=1;jettySize=auto;html=1;exitX=1;exitY=0.25;exitDx=0;exitDy=0;entryX=0;entryY=0.5;entryDx=0;entryDy=0;" parent="1" source="qtC0jDbBa8BHLBBzWzsQ-60" target="qtC0jDbBa8BHLBBzWzsQ-67" edge="1">
                    <mxGeometry relative="1" as="geometry"/>
                </mxCell>
                <mxCell id="qtC0jDbBa8BHLBBzWzsQ-60" value="Read Data1" style="text;html=1;strokeColor=none;fillColor=none;align=center;verticalAlign=middle;whiteSpace=wrap;rounded=0;movable=1;resizable=1;rotatable=1;deletable=1;editable=1;connectable=1;" parent="1" vertex="1">
                    <mxGeometry x="707" y="291" width="90" height="30" as="geometry"/>
                </mxCell>
                <mxCell id="qtC0jDbBa8BHLBBzWzsQ-61" value="Read Data2" style="text;html=1;strokeColor=none;fillColor=none;align=center;verticalAlign=middle;whiteSpace=wrap;rounded=0;movable=0;resizable=0;rotatable=0;deletable=0;editable=0;connectable=0;" parent="1" vertex="1">
                    <mxGeometry x="716" y="333" width="90" height="30" as="geometry"/>
                </mxCell>
                <mxCell id="qtC0jDbBa8BHLBBzWzsQ-63" value="D/E" style="swimlane;fontStyle=0;childLayout=stackLayout;horizontal=1;startSize=26;horizontalStack=0;resizeParent=1;resizeParentMax=0;resizeLast=0;collapsible=1;marginBottom=0;align=center;fontSize=14;movable=1;resizable=1;rotatable=1;deletable=1;editable=1;connectable=1;shadow=0;strokeColor=#000000;" parent="1" vertex="1">
                    <mxGeometry x="861" y="251" width="120" height="180" as="geometry"/>
                </mxCell>
                <mxCell id="qtC0jDbBa8BHLBBzWzsQ-64" value="ALU OP ,Regwr, alusrc&#10;Branch, out, in, memtoreg push" style="text;strokeColor=none;fillColor=none;spacingLeft=4;spacingRight=4;overflow=hidden;rotatable=1;points=[[0,0.5],[1,0.5]];portConstraint=eastwest;fontSize=12;movable=1;resizable=1;deletable=1;editable=1;connectable=1;" parent="qtC0jDbBa8BHLBBzWzsQ-63" vertex="1">
                    <mxGeometry y="26" width="120" height="34" as="geometry"/>
                </mxCell>
                <mxCell id="qtC0jDbBa8BHLBBzWzsQ-67" value="Read Data1 (16)" style="text;strokeColor=none;fillColor=none;spacingLeft=4;spacingRight=4;overflow=hidden;rotatable=1;points=[[0,0.5],[1,0.5]];portConstraint=eastwest;fontSize=12;movable=1;resizable=1;deletable=1;editable=1;connectable=1;" parent="qtC0jDbBa8BHLBBzWzsQ-63" vertex="1">
                    <mxGeometry y="60" width="120" height="30" as="geometry"/>
                </mxCell>
                <mxCell id="qtC0jDbBa8BHLBBzWzsQ-65" value="Read Data 2 (16)" style="text;strokeColor=none;fillColor=none;spacingLeft=4;spacingRight=4;overflow=hidden;rotatable=1;points=[[0,0.5],[1,0.5]];portConstraint=eastwest;fontSize=12;movable=1;resizable=1;deletable=1;editable=1;connectable=1;" parent="qtC0jDbBa8BHLBBzWzsQ-63" vertex="1">
                    <mxGeometry y="90" width="120" height="30" as="geometry"/>
                </mxCell>
                <mxCell id="qtC0jDbBa8BHLBBzWzsQ-74" value="Write Add (3)" style="text;strokeColor=none;fillColor=none;spacingLeft=4;spacingRight=4;overflow=hidden;rotatable=1;points=[[0,0.5],[1,0.5]];portConstraint=eastwest;fontSize=12;movable=1;resizable=1;deletable=1;editable=1;connectable=1;" parent="qtC0jDbBa8BHLBBzWzsQ-63" vertex="1">
                    <mxGeometry y="120" width="120" height="30" as="geometry"/>
                </mxCell>
                <mxCell id="qtC0jDbBa8BHLBBzWzsQ-94" value="Function" style="text;strokeColor=none;fillColor=none;spacingLeft=4;spacingRight=4;overflow=hidden;rotatable=1;points=[[0,0.5],[1,0.5]];portConstraint=eastwest;fontSize=12;movable=1;resizable=1;deletable=1;editable=1;connectable=1;" parent="qtC0jDbBa8BHLBBzWzsQ-63" vertex="1">
                    <mxGeometry y="150" width="120" height="30" as="geometry"/>
                </mxCell>
                <mxCell id="qtC0jDbBa8BHLBBzWzsQ-72" style="edgeStyle=orthogonalEdgeStyle;rounded=0;orthogonalLoop=1;jettySize=auto;html=1;fontSize=24;exitX=1.002;exitY=0.363;exitDx=0;exitDy=0;exitPerimeter=0;movable=0;resizable=0;rotatable=0;deletable=0;editable=0;connectable=0;" parent="1" source="qtC0jDbBa8BHLBBzWzsQ-41" target="qtC0jDbBa8BHLBBzWzsQ-65" edge="1">
                    <mxGeometry relative="1" as="geometry"/>
                </mxCell>
                <mxCell id="qtC0jDbBa8BHLBBzWzsQ-73" style="edgeStyle=orthogonalEdgeStyle;rounded=0;orthogonalLoop=1;jettySize=auto;html=1;exitX=0.5;exitY=1;exitDx=0;exitDy=0;fontSize=24;movable=0;resizable=0;rotatable=0;deletable=0;editable=0;connectable=0;" parent="1" source="qtC0jDbBa8BHLBBzWzsQ-61" target="qtC0jDbBa8BHLBBzWzsQ-61" edge="1">
                    <mxGeometry relative="1" as="geometry"/>
                </mxCell>
                <mxCell id="qtC0jDbBa8BHLBBzWzsQ-76" style="edgeStyle=orthogonalEdgeStyle;rounded=0;orthogonalLoop=1;jettySize=auto;html=1;fontSize=24;entryX=0;entryY=0.5;entryDx=0;entryDy=0;movable=0;resizable=0;rotatable=0;deletable=0;editable=0;connectable=0;" parent="1" target="qtC0jDbBa8BHLBBzWzsQ-74" edge="1">
                    <mxGeometry relative="1" as="geometry">
                        <mxPoint x="570" y="310" as="sourcePoint"/>
                        <Array as="points">
                            <mxPoint x="570" y="550"/>
                            <mxPoint x="840" y="550"/>
                            <mxPoint x="840" y="375"/>
                        </Array>
                    </mxGeometry>
                </mxCell>
                <mxCell id="qtC0jDbBa8BHLBBzWzsQ-77" value="Inst [9:7]" style="text;html=1;strokeColor=none;fillColor=none;align=center;verticalAlign=middle;whiteSpace=wrap;rounded=0;movable=1;resizable=1;rotatable=1;deletable=1;editable=1;connectable=1;" parent="1" vertex="1">
                    <mxGeometry x="577" y="517" width="90" height="30" as="geometry"/>
                </mxCell>
                <mxCell id="qtC0jDbBa8BHLBBzWzsQ-105" style="edgeStyle=orthogonalEdgeStyle;rounded=0;orthogonalLoop=1;jettySize=auto;html=1;entryX=0;entryY=0.5;entryDx=0;entryDy=0;fontSize=12;movable=1;resizable=1;rotatable=1;deletable=1;editable=1;connectable=1;exitX=1;exitY=0.5;exitDx=0;exitDy=0;" parent="1" source="qtC0jDbBa8BHLBBzWzsQ-80" edge="1">
                    <mxGeometry relative="1" as="geometry">
                        <mxPoint x="1297" y="347.0666666666666" as="sourcePoint"/>
                        <mxPoint x="1418" y="321" as="targetPoint"/>
                    </mxGeometry>
                </mxCell>
                <mxCell id="qtC0jDbBa8BHLBBzWzsQ-138" style="edgeStyle=orthogonalEdgeStyle;rounded=0;orthogonalLoop=1;jettySize=auto;html=1;exitX=1;exitY=0.25;exitDx=0;exitDy=0;entryX=0;entryY=0.5;entryDx=0;entryDy=0;fontSize=12;movable=0;resizable=0;rotatable=0;deletable=0;editable=0;connectable=0;" parent="1" source="qtC0jDbBa8BHLBBzWzsQ-80" target="qtC0jDbBa8BHLBBzWzsQ-140" edge="1">
                    <mxGeometry relative="1" as="geometry">
                        <mxPoint x="1240" y="264" as="targetPoint"/>
                    </mxGeometry>
                </mxCell>
                <mxCell id="qtC0jDbBa8BHLBBzWzsQ-80" value="ALU" style="rounded=0;whiteSpace=wrap;html=1;movable=1;resizable=1;rotatable=1;deletable=1;editable=1;connectable=1;" parent="1" vertex="1">
                    <mxGeometry x="1120" y="297" width="90" height="100" as="geometry"/>
                </mxCell>
                <mxCell id="qtC0jDbBa8BHLBBzWzsQ-92" style="edgeStyle=orthogonalEdgeStyle;rounded=0;orthogonalLoop=1;jettySize=auto;html=1;entryX=0.5;entryY=0;entryDx=0;entryDy=0;fontSize=24;movable=0;resizable=0;rotatable=0;deletable=0;editable=0;connectable=0;" parent="1" source="qtC0jDbBa8BHLBBzWzsQ-83" target="qtC0jDbBa8BHLBBzWzsQ-80" edge="1">
                    <mxGeometry relative="1" as="geometry"/>
                </mxCell>
                <mxCell id="qtC0jDbBa8BHLBBzWzsQ-83" value="ALU Control" style="ellipse;whiteSpace=wrap;html=1;fontSize=24;movable=0;resizable=0;rotatable=0;deletable=0;editable=0;connectable=0;" parent="1" vertex="1">
                    <mxGeometry x="1105" y="164" width="120" height="80" as="geometry"/>
                </mxCell>
                <mxCell id="qtC0jDbBa8BHLBBzWzsQ-91" style="edgeStyle=orthogonalEdgeStyle;rounded=0;orthogonalLoop=1;jettySize=auto;html=1;exitX=1;exitY=0.5;exitDx=0;exitDy=0;entryX=0.5;entryY=0;entryDx=0;entryDy=0;fontSize=24;movable=1;resizable=1;rotatable=1;deletable=1;editable=1;connectable=1;" parent="1" source="qtC0jDbBa8BHLBBzWzsQ-64" edge="1">
                    <mxGeometry relative="1" as="geometry">
                        <Array as="points">
                            <mxPoint x="1050" y="292"/>
                            <mxPoint x="1050" y="151"/>
                            <mxPoint x="1165" y="151"/>
                        </Array>
                        <mxPoint x="1165" y="171" as="targetPoint"/>
                    </mxGeometry>
                </mxCell>
                <mxCell id="qtC0jDbBa8BHLBBzWzsQ-93" value="&lt;font style=&quot;font-size: 12px;&quot;&gt;operation&lt;/font&gt;" style="text;html=1;strokeColor=none;fillColor=none;align=center;verticalAlign=middle;whiteSpace=wrap;rounded=0;fontSize=24;movable=0;resizable=0;rotatable=0;deletable=0;editable=0;connectable=0;" parent="1" vertex="1">
                    <mxGeometry x="1135" y="280" width="60" height="30" as="geometry"/>
                </mxCell>
                <mxCell id="qtC0jDbBa8BHLBBzWzsQ-96" style="edgeStyle=orthogonalEdgeStyle;rounded=0;orthogonalLoop=1;jettySize=auto;html=1;exitX=0;exitY=0.5;exitDx=0;exitDy=0;fontSize=12;entryX=0;entryY=0.5;entryDx=0;entryDy=0;movable=0;resizable=0;rotatable=0;deletable=0;editable=0;connectable=0;" parent="1" target="qtC0jDbBa8BHLBBzWzsQ-94" edge="1">
                    <mxGeometry relative="1" as="geometry">
                        <mxPoint x="570" y="550" as="sourcePoint"/>
                        <Array as="points">
                            <mxPoint x="570" y="580"/>
                            <mxPoint x="850" y="580"/>
                            <mxPoint x="850" y="405"/>
                        </Array>
                    </mxGeometry>
                </mxCell>
                <mxCell id="qtC0jDbBa8BHLBBzWzsQ-97" value="Inst [:0]" style="text;html=1;strokeColor=none;fillColor=none;align=center;verticalAlign=middle;whiteSpace=wrap;rounded=0;movable=1;resizable=1;rotatable=1;deletable=1;editable=1;connectable=1;" parent="1" vertex="1">
                    <mxGeometry x="575" y="547" width="90" height="30" as="geometry"/>
                </mxCell>
                <mxCell id="qtC0jDbBa8BHLBBzWzsQ-98" style="edgeStyle=orthogonalEdgeStyle;rounded=0;orthogonalLoop=1;jettySize=auto;html=1;exitX=1;exitY=0.5;exitDx=0;exitDy=0;entryX=0;entryY=0.5;entryDx=0;entryDy=0;fontSize=12;movable=1;resizable=1;rotatable=1;deletable=1;editable=1;connectable=1;" parent="1" source="qtC0jDbBa8BHLBBzWzsQ-94" edge="1">
                    <mxGeometry relative="1" as="geometry">
                        <Array as="points">
                            <mxPoint x="1080" y="412"/>
                            <mxPoint x="1080" y="211"/>
                        </Array>
                        <mxPoint x="1104.9999999999832" y="211" as="targetPoint"/>
                    </mxGeometry>
                </mxCell>
                <mxCell id="qtC0jDbBa8BHLBBzWzsQ-99" value="E/M" style="swimlane;fontStyle=0;childLayout=stackLayout;horizontal=1;startSize=26;horizontalStack=0;resizeParent=1;resizeParentMax=0;resizeLast=0;collapsible=1;marginBottom=0;align=center;fontSize=14;movable=1;resizable=1;rotatable=1;deletable=1;editable=1;connectable=1;" parent="1" vertex="1">
                    <mxGeometry x="1418" y="244" width="122" height="138" as="geometry"/>
                </mxCell>
                <mxCell id="qtC0jDbBa8BHLBBzWzsQ-100" value="Regwr, out, in, sp op&#10;memtoreg,MR,MW,,stack op push" style="text;strokeColor=none;fillColor=none;spacingLeft=4;spacingRight=4;overflow=hidden;rotatable=1;points=[[0,0.5],[1,0.5]];portConstraint=eastwest;fontSize=12;movable=1;resizable=1;deletable=1;editable=1;connectable=1;" parent="qtC0jDbBa8BHLBBzWzsQ-99" vertex="1">
                    <mxGeometry y="26" width="122" height="30" as="geometry"/>
                </mxCell>
                <mxCell id="qtC0jDbBa8BHLBBzWzsQ-101" value="ALU Data (16 bit)" style="text;strokeColor=none;fillColor=none;spacingLeft=4;spacingRight=4;overflow=hidden;rotatable=1;points=[[0,0.5],[1,0.5]];portConstraint=eastwest;fontSize=12;movable=1;resizable=1;deletable=1;editable=1;connectable=1;" parent="qtC0jDbBa8BHLBBzWzsQ-99" vertex="1">
                    <mxGeometry y="56" width="122" height="22" as="geometry"/>
                </mxCell>
                <mxCell id="qtC0jDbBa8BHLBBzWzsQ-103" value="Write Add (3 bit)" style="text;strokeColor=none;fillColor=none;spacingLeft=4;spacingRight=4;overflow=hidden;rotatable=1;points=[[0,0.5],[1,0.5]];portConstraint=eastwest;fontSize=12;movable=1;resizable=1;deletable=1;editable=1;connectable=1;" parent="qtC0jDbBa8BHLBBzWzsQ-99" vertex="1">
                    <mxGeometry y="78" width="122" height="30" as="geometry"/>
                </mxCell>
                <mxCell id="nEk47-ToGR5tLwDKOAZd-57" value="Read Data2 " style="text;strokeColor=none;fillColor=none;spacingLeft=4;spacingRight=4;overflow=hidden;rotatable=1;points=[[0,0.5],[1,0.5]];portConstraint=eastwest;fontSize=12;movable=1;resizable=1;deletable=1;editable=1;connectable=1;" parent="qtC0jDbBa8BHLBBzWzsQ-99" vertex="1">
                    <mxGeometry y="108" width="122" height="30" as="geometry"/>
                </mxCell>
                <mxCell id="qtC0jDbBa8BHLBBzWzsQ-196" style="edgeStyle=orthogonalEdgeStyle;rounded=0;orthogonalLoop=1;jettySize=auto;html=1;exitX=1;exitY=0.25;exitDx=0;exitDy=0;entryX=0.379;entryY=1.054;entryDx=0;entryDy=0;entryPerimeter=0;fontSize=12;" parent="1" source="qtC0jDbBa8BHLBBzWzsQ-139" target="qtC0jDbBa8BHLBBzWzsQ-187" edge="1">
                    <mxGeometry relative="1" as="geometry">
                        <Array as="points">
                            <mxPoint x="1315" y="219"/>
                        </Array>
                    </mxGeometry>
                </mxCell>
                <mxCell id="qtC0jDbBa8BHLBBzWzsQ-197" style="edgeStyle=orthogonalEdgeStyle;rounded=0;orthogonalLoop=1;jettySize=auto;html=1;exitX=1;exitY=0.5;exitDx=0;exitDy=0;entryX=0.5;entryY=1;entryDx=0;entryDy=0;fontSize=12;" parent="1" source="qtC0jDbBa8BHLBBzWzsQ-139" target="qtC0jDbBa8BHLBBzWzsQ-187" edge="1">
                    <mxGeometry relative="1" as="geometry">
                        <Array as="points">
                            <mxPoint x="1330" y="248"/>
                        </Array>
                    </mxGeometry>
                </mxCell>
                <mxCell id="qtC0jDbBa8BHLBBzWzsQ-198" style="edgeStyle=orthogonalEdgeStyle;rounded=0;orthogonalLoop=1;jettySize=auto;html=1;exitX=1;exitY=0.75;exitDx=0;exitDy=0;entryX=0.75;entryY=1;entryDx=0;entryDy=0;fontSize=12;" parent="1" source="qtC0jDbBa8BHLBBzWzsQ-139" target="qtC0jDbBa8BHLBBzWzsQ-187" edge="1">
                    <mxGeometry relative="1" as="geometry"/>
                </mxCell>
                <mxCell id="qtC0jDbBa8BHLBBzWzsQ-139" value="Flag reg" style="swimlane;fontStyle=0;childLayout=stackLayout;horizontal=1;startSize=26;horizontalStack=0;resizeParent=1;resizeParentMax=0;resizeLast=0;collapsible=1;marginBottom=0;align=center;fontSize=14;movable=1;resizable=1;rotatable=1;deletable=1;editable=1;connectable=1;" parent="1" vertex="1">
                    <mxGeometry x="1257" y="190" width="50" height="116" as="geometry"/>
                </mxCell>
                <mxCell id="qtC0jDbBa8BHLBBzWzsQ-141" value="cf" style="text;strokeColor=none;fillColor=none;spacingLeft=4;spacingRight=4;overflow=hidden;rotatable=0;points=[[0,0.5],[1,0.5]];portConstraint=eastwest;fontSize=12;movable=0;resizable=0;deletable=0;editable=0;connectable=0;" parent="qtC0jDbBa8BHLBBzWzsQ-139" vertex="1">
                    <mxGeometry y="26" width="50" height="30" as="geometry"/>
                </mxCell>
                <mxCell id="qtC0jDbBa8BHLBBzWzsQ-140" value="zf" style="text;strokeColor=none;fillColor=none;spacingLeft=4;spacingRight=4;overflow=hidden;rotatable=0;points=[[0,0.5],[1,0.5]];portConstraint=eastwest;fontSize=12;movable=0;resizable=0;deletable=0;editable=0;connectable=0;" parent="qtC0jDbBa8BHLBBzWzsQ-139" vertex="1">
                    <mxGeometry y="56" width="50" height="30" as="geometry"/>
                </mxCell>
                <mxCell id="qtC0jDbBa8BHLBBzWzsQ-142" value="nf" style="text;strokeColor=none;fillColor=none;spacingLeft=4;spacingRight=4;overflow=hidden;rotatable=0;points=[[0,0.5],[1,0.5]];portConstraint=eastwest;fontSize=12;movable=0;resizable=0;deletable=0;editable=0;connectable=0;" parent="qtC0jDbBa8BHLBBzWzsQ-139" vertex="1">
                    <mxGeometry y="86" width="50" height="30" as="geometry"/>
                </mxCell>
                <mxCell id="qtC0jDbBa8BHLBBzWzsQ-152" value="Data Memory (16 bit)" style="rounded=0;whiteSpace=wrap;html=1;movable=1;resizable=1;rotatable=1;deletable=1;editable=1;connectable=1;" parent="1" vertex="1">
                    <mxGeometry x="1894" y="223" width="100" height="200" as="geometry"/>
                </mxCell>
                <mxCell id="qtC0jDbBa8BHLBBzWzsQ-156" value="M/W" style="swimlane;fontStyle=0;childLayout=stackLayout;horizontal=1;startSize=26;horizontalStack=0;resizeParent=1;resizeParentMax=0;resizeLast=0;collapsible=1;marginBottom=0;align=center;fontSize=14;movable=1;resizable=1;rotatable=1;deletable=1;editable=1;connectable=1;" parent="1" vertex="1">
                    <mxGeometry x="1340" y="589" width="110" height="116" as="geometry"/>
                </mxCell>
                <mxCell id="qtC0jDbBa8BHLBBzWzsQ-157" value="Regwr, out, in&#10;" style="text;strokeColor=none;fillColor=none;spacingLeft=4;spacingRight=4;overflow=hidden;rotatable=1;points=[[0,0.5],[1,0.5]];portConstraint=eastwest;fontSize=12;movable=1;resizable=1;deletable=1;editable=1;connectable=1;" parent="qtC0jDbBa8BHLBBzWzsQ-156" vertex="1">
                    <mxGeometry y="26" width="110" height="30" as="geometry"/>
                </mxCell>
                <mxCell id="qtC0jDbBa8BHLBBzWzsQ-158" value="ALU Data (16 bit)" style="text;strokeColor=none;fillColor=none;spacingLeft=4;spacingRight=4;overflow=hidden;rotatable=1;points=[[0,0.5],[1,0.5]];portConstraint=eastwest;fontSize=12;movable=1;resizable=1;deletable=1;editable=1;connectable=1;" parent="qtC0jDbBa8BHLBBzWzsQ-156" vertex="1">
                    <mxGeometry y="56" width="110" height="30" as="geometry"/>
                </mxCell>
                <mxCell id="qtC0jDbBa8BHLBBzWzsQ-159" value="Write Add (3 bit)" style="text;strokeColor=none;fillColor=none;spacingLeft=4;spacingRight=4;overflow=hidden;rotatable=1;points=[[0,0.5],[1,0.5]];portConstraint=eastwest;fontSize=12;movable=1;resizable=1;deletable=1;editable=1;connectable=1;" parent="qtC0jDbBa8BHLBBzWzsQ-156" vertex="1">
                    <mxGeometry y="86" width="110" height="30" as="geometry"/>
                </mxCell>
                <mxCell id="qtC0jDbBa8BHLBBzWzsQ-177" style="edgeStyle=orthogonalEdgeStyle;rounded=0;orthogonalLoop=1;jettySize=auto;html=1;entryX=-0.046;entryY=0.636;entryDx=0;entryDy=0;entryPerimeter=0;fontSize=12;" parent="1" source="qtC0jDbBa8BHLBBzWzsQ-159" target="qtC0jDbBa8BHLBBzWzsQ-41" edge="1">
                    <mxGeometry relative="1" as="geometry">
                        <Array as="points">
                            <mxPoint x="590" y="690"/>
                            <mxPoint x="590" y="412"/>
                        </Array>
                    </mxGeometry>
                </mxCell>
                <mxCell id="qtC0jDbBa8BHLBBzWzsQ-181" value="Reg Write" style="text;html=1;strokeColor=none;fillColor=none;align=center;verticalAlign=middle;whiteSpace=wrap;rounded=0;movable=1;resizable=1;rotatable=1;deletable=1;editable=1;connectable=1;" parent="1" vertex="1">
                    <mxGeometry x="687" y="471" width="90" height="30" as="geometry"/>
                </mxCell>
                <mxCell id="qtC0jDbBa8BHLBBzWzsQ-182" style="edgeStyle=orthogonalEdgeStyle;rounded=0;orthogonalLoop=1;jettySize=auto;html=1;fontSize=12;" parent="1" source="qtC0jDbBa8BHLBBzWzsQ-157" target="qtC0jDbBa8BHLBBzWzsQ-181" edge="1">
                    <mxGeometry relative="1" as="geometry"/>
                </mxCell>
                <mxCell id="qtC0jDbBa8BHLBBzWzsQ-185" value="&lt;span style=&quot;font-size: 12px;&quot;&gt;operand2&lt;/span&gt;" style="text;html=1;strokeColor=none;fillColor=none;align=center;verticalAlign=middle;whiteSpace=wrap;rounded=0;fontSize=24;movable=1;resizable=1;rotatable=1;deletable=1;editable=1;connectable=1;" parent="1" vertex="1">
                    <mxGeometry x="1117" y="362" width="93" height="30" as="geometry"/>
                </mxCell>
                <mxCell id="qtC0jDbBa8BHLBBzWzsQ-186" value="Inst [15:0]" style="text;html=1;strokeColor=none;fillColor=none;align=center;verticalAlign=middle;whiteSpace=wrap;rounded=0;movable=1;resizable=1;rotatable=1;deletable=1;editable=1;connectable=1;" parent="1" vertex="1">
                    <mxGeometry x="575" y="587" width="90" height="30" as="geometry"/>
                </mxCell>
                <mxCell id="qtC0jDbBa8BHLBBzWzsQ-202" style="edgeStyle=orthogonalEdgeStyle;rounded=0;orthogonalLoop=1;jettySize=auto;html=1;exitX=0;exitY=0.5;exitDx=0;exitDy=0;fontSize=12;movable=1;resizable=1;rotatable=1;deletable=1;editable=1;connectable=1;entryX=0;entryY=0.5;entryDx=0;entryDy=0;" parent="1" target="qtC0jDbBa8BHLBBzWzsQ-187" edge="1">
                    <mxGeometry relative="1" as="geometry">
                        <mxPoint x="1080" y="217" as="sourcePoint"/>
                        <Array as="points">
                            <mxPoint x="1080" y="117"/>
                            <mxPoint x="1170" y="117"/>
                            <mxPoint x="1170" y="67"/>
                            <mxPoint x="1280" y="67"/>
                        </Array>
                    </mxGeometry>
                </mxCell>
                <mxCell id="qtC0jDbBa8BHLBBzWzsQ-204" style="edgeStyle=orthogonalEdgeStyle;rounded=0;orthogonalLoop=1;jettySize=auto;html=1;exitX=1;exitY=0.5;exitDx=0;exitDy=0;fontSize=12;exitPerimeter=0;" parent="1" source="qtC0jDbBa8BHLBBzWzsQ-209" edge="1">
                    <mxGeometry relative="1" as="geometry">
                        <mxPoint x="100" y="327" as="targetPoint"/>
                        <Array as="points">
                            <mxPoint x="1075" y="37"/>
                            <mxPoint x="100" y="37"/>
                        </Array>
                    </mxGeometry>
                </mxCell>
                <mxCell id="qtC0jDbBa8BHLBBzWzsQ-216" style="edgeStyle=orthogonalEdgeStyle;rounded=0;orthogonalLoop=1;jettySize=auto;html=1;exitX=0.5;exitY=0;exitDx=0;exitDy=0;entryX=0;entryY=0.5;entryDx=0;entryDy=0;entryPerimeter=0;fontSize=12;" parent="1" source="qtC0jDbBa8BHLBBzWzsQ-187" target="qtC0jDbBa8BHLBBzWzsQ-209" edge="1">
                    <mxGeometry relative="1" as="geometry"/>
                </mxCell>
                <mxCell id="qtC0jDbBa8BHLBBzWzsQ-187" value="MUX" style="shape=trapezoid;perimeter=trapezoidPerimeter;whiteSpace=wrap;html=1;fixedSize=1;direction=south;movable=1;resizable=1;rotatable=1;deletable=1;editable=1;connectable=1;rotation=-90;" parent="1" vertex="1">
                    <mxGeometry x="1300" y="7" width="60" height="120" as="geometry"/>
                </mxCell>
                <mxCell id="qtC0jDbBa8BHLBBzWzsQ-195" style="edgeStyle=orthogonalEdgeStyle;rounded=0;orthogonalLoop=1;jettySize=auto;html=1;exitX=1;exitY=0.5;exitDx=0;exitDy=0;entryX=0;entryY=0.5;entryDx=0;entryDy=0;fontSize=12;" parent="1" source="qtC0jDbBa8BHLBBzWzsQ-74" edge="1">
                    <mxGeometry relative="1" as="geometry">
                        <Array as="points">
                            <mxPoint x="981" y="382"/>
                            <mxPoint x="1020" y="382"/>
                            <mxPoint x="1020" y="437"/>
                            <mxPoint x="1380" y="437"/>
                            <mxPoint x="1380" y="347"/>
                        </Array>
                        <mxPoint x="1418" y="347" as="targetPoint"/>
                    </mxGeometry>
                </mxCell>
                <mxCell id="qtC0jDbBa8BHLBBzWzsQ-199" value="" style="edgeStyle=orthogonalEdgeStyle;rounded=0;orthogonalLoop=1;jettySize=auto;html=1;movable=1;resizable=1;rotatable=1;deletable=1;editable=1;connectable=1;entryX=0.25;entryY=1;entryDx=0;entryDy=0;" parent="1" source="qtC0jDbBa8BHLBBzWzsQ-200" target="qtC0jDbBa8BHLBBzWzsQ-187" edge="1">
                    <mxGeometry relative="1" as="geometry">
                        <mxPoint x="1300" y="147" as="targetPoint"/>
                        <Array as="points">
                            <mxPoint x="1300" y="167"/>
                            <mxPoint x="1300" y="127"/>
                        </Array>
                    </mxGeometry>
                </mxCell>
                <mxCell id="qtC0jDbBa8BHLBBzWzsQ-200" value="1" style="text;html=1;strokeColor=none;fillColor=none;align=center;verticalAlign=middle;whiteSpace=wrap;rounded=0;movable=1;resizable=1;rotatable=1;deletable=1;editable=1;connectable=1;" parent="1" vertex="1">
                    <mxGeometry x="1210" y="160" width="60" height="30" as="geometry"/>
                </mxCell>
                <mxCell id="qtC0jDbBa8BHLBBzWzsQ-205" value="" style="endArrow=classic;html=1;rounded=0;fontSize=12;movable=1;resizable=1;rotatable=1;deletable=1;editable=1;connectable=1;exitX=1;exitY=0.5;exitDx=0;exitDy=0;" parent="1" source="qtC0jDbBa8BHLBBzWzsQ-67" edge="1">
                    <mxGeometry width="50" height="50" relative="1" as="geometry">
                        <mxPoint x="1040" y="317" as="sourcePoint"/>
                        <mxPoint x="70" y="397" as="targetPoint"/>
                        <Array as="points">
                            <mxPoint x="1020" y="326"/>
                            <mxPoint x="1020" y="67"/>
                            <mxPoint x="30" y="67"/>
                            <mxPoint x="30" y="397"/>
                        </Array>
                    </mxGeometry>
                </mxCell>
                <mxCell id="qtC0jDbBa8BHLBBzWzsQ-206" value="1" style="text;html=1;strokeColor=none;fillColor=none;align=center;verticalAlign=middle;whiteSpace=wrap;rounded=0;movable=1;resizable=1;rotatable=1;deletable=1;editable=1;connectable=1;" parent="1" vertex="1">
                    <mxGeometry x="50" y="377" width="60" height="30" as="geometry"/>
                </mxCell>
                <mxCell id="qtC0jDbBa8BHLBBzWzsQ-215" style="edgeStyle=orthogonalEdgeStyle;rounded=0;orthogonalLoop=1;jettySize=auto;html=1;exitX=0;exitY=0.25;exitDx=0;exitDy=0;exitPerimeter=0;fontSize=12;entryX=0;entryY=0.25;entryDx=0;entryDy=0;entryPerimeter=0;" parent="1" target="qtC0jDbBa8BHLBBzWzsQ-209" edge="1">
                    <mxGeometry relative="1" as="geometry">
                        <mxPoint x="1050.5" y="147" as="sourcePoint"/>
                        <Array as="points">
                            <mxPoint x="1051" y="77"/>
                            <mxPoint x="1115" y="77"/>
                        </Array>
                    </mxGeometry>
                </mxCell>
                <mxCell id="qtC0jDbBa8BHLBBzWzsQ-209" value="" style="shape=or;whiteSpace=wrap;html=1;shadow=0;strokeColor=#000000;fontSize=12;fillColor=#FFFFFF;rotation=-180;" parent="1" vertex="1">
                    <mxGeometry x="1050" y="17" width="55" height="40" as="geometry"/>
                </mxCell>
                <mxCell id="qtC0jDbBa8BHLBBzWzsQ-217" value="Branch" style="text;html=1;strokeColor=none;fillColor=none;align=center;verticalAlign=middle;whiteSpace=wrap;rounded=0;shadow=0;fontSize=12;" parent="1" vertex="1">
                    <mxGeometry x="1050" y="57" width="60" height="30" as="geometry"/>
                </mxCell>
                <mxCell id="qtC0jDbBa8BHLBBzWzsQ-218" style="edgeStyle=orthogonalEdgeStyle;rounded=0;orthogonalLoop=1;jettySize=auto;html=1;exitX=1;exitY=0.5;exitDx=0;exitDy=0;entryX=1;entryY=0.5;entryDx=0;entryDy=0;fontSize=12;" parent="1" source="qtC0jDbBa8BHLBBzWzsQ-103" target="qtC0jDbBa8BHLBBzWzsQ-159" edge="1">
                    <mxGeometry relative="1" as="geometry"/>
                </mxCell>
                <mxCell id="nEk47-ToGR5tLwDKOAZd-1" value="input port sig&lt;br&gt;output port sig" style="text;html=1;strokeColor=none;fillColor=none;align=center;verticalAlign=middle;whiteSpace=wrap;rounded=0;" parent="1" vertex="1">
                    <mxGeometry x="430" y="87" width="110" height="30" as="geometry"/>
                </mxCell>
                <mxCell id="nEk47-ToGR5tLwDKOAZd-2" value="" style="rounded=0;whiteSpace=wrap;html=1;" parent="1" vertex="1">
                    <mxGeometry x="1150" y="819" width="120" height="90" as="geometry"/>
                </mxCell>
                <mxCell id="nEk47-ToGR5tLwDKOAZd-5" style="edgeStyle=orthogonalEdgeStyle;rounded=0;orthogonalLoop=1;jettySize=auto;html=1;exitX=0;exitY=0.5;exitDx=0;exitDy=0;entryX=0.827;entryY=-0.038;entryDx=0;entryDy=0;entryPerimeter=0;" parent="1" source="qtC0jDbBa8BHLBBzWzsQ-157" target="nEk47-ToGR5tLwDKOAZd-2" edge="1">
                    <mxGeometry relative="1" as="geometry"/>
                </mxCell>
                <mxCell id="nEk47-ToGR5tLwDKOAZd-6" value="output signal" style="text;html=1;strokeColor=none;fillColor=none;align=center;verticalAlign=middle;whiteSpace=wrap;rounded=0;" parent="1" vertex="1">
                    <mxGeometry x="1230" y="769" width="140" height="30" as="geometry"/>
                </mxCell>
                <mxCell id="nEk47-ToGR5tLwDKOAZd-10" value="" style="edgeStyle=orthogonalEdgeStyle;rounded=0;orthogonalLoop=1;jettySize=auto;html=1;" parent="1" source="nEk47-ToGR5tLwDKOAZd-7" target="nEk47-ToGR5tLwDKOAZd-9" edge="1">
                    <mxGeometry relative="1" as="geometry"/>
                </mxCell>
                <mxCell id="nEk47-ToGR5tLwDKOAZd-7" value="tri state buffer" style="text;html=1;strokeColor=none;fillColor=none;align=center;verticalAlign=middle;whiteSpace=wrap;rounded=0;" parent="1" vertex="1">
                    <mxGeometry x="1160" y="849" width="100" height="30" as="geometry"/>
                </mxCell>
                <mxCell id="nEk47-ToGR5tLwDKOAZd-8" style="edgeStyle=orthogonalEdgeStyle;rounded=0;orthogonalLoop=1;jettySize=auto;html=1;exitX=0;exitY=0.5;exitDx=0;exitDy=0;entryX=0;entryY=0.5;entryDx=0;entryDy=0;" parent="1" source="qtC0jDbBa8BHLBBzWzsQ-158" target="nEk47-ToGR5tLwDKOAZd-2" edge="1">
                    <mxGeometry relative="1" as="geometry"/>
                </mxCell>
                <mxCell id="nEk47-ToGR5tLwDKOAZd-9" value="output port" style="rhombus;whiteSpace=wrap;html=1;" parent="1" vertex="1">
                    <mxGeometry x="1350" y="824" width="80" height="80" as="geometry"/>
                </mxCell>
                <mxCell id="nEk47-ToGR5tLwDKOAZd-24" style="edgeStyle=orthogonalEdgeStyle;rounded=0;orthogonalLoop=1;jettySize=auto;html=1;exitX=0.5;exitY=0;exitDx=0;exitDy=0;entryX=0;entryY=0.75;entryDx=0;entryDy=0;" parent="1" source="nEk47-ToGR5tLwDKOAZd-11" target="qtC0jDbBa8BHLBBzWzsQ-55" edge="1">
                    <mxGeometry relative="1" as="geometry">
                        <Array as="points">
                            <mxPoint x="520" y="784"/>
                            <mxPoint x="520" y="472"/>
                        </Array>
                    </mxGeometry>
                </mxCell>
                <mxCell id="nEk47-ToGR5tLwDKOAZd-11" value="" style="shape=trapezoid;perimeter=trapezoidPerimeter;whiteSpace=wrap;html=1;fixedSize=1;rotation=-90;" parent="1" vertex="1">
                    <mxGeometry x="757" y="761.5" width="120" height="45" as="geometry"/>
                </mxCell>
                <mxCell id="nEk47-ToGR5tLwDKOAZd-17" style="edgeStyle=orthogonalEdgeStyle;rounded=0;orthogonalLoop=1;jettySize=auto;html=1;exitX=0;exitY=0.5;exitDx=0;exitDy=0;" parent="1" source="qtC0jDbBa8BHLBBzWzsQ-158" edge="1">
                    <mxGeometry relative="1" as="geometry">
                        <mxPoint x="840" y="759" as="targetPoint"/>
                        <Array as="points">
                            <mxPoint x="950" y="660"/>
                            <mxPoint x="950" y="759"/>
                            <mxPoint x="840" y="759"/>
                        </Array>
                    </mxGeometry>
                </mxCell>
                <mxCell id="nEk47-ToGR5tLwDKOAZd-19" style="edgeStyle=orthogonalEdgeStyle;rounded=0;orthogonalLoop=1;jettySize=auto;html=1;exitX=1;exitY=0.5;exitDx=0;exitDy=0;entryX=0.25;entryY=1;entryDx=0;entryDy=0;" parent="1" source="nEk47-ToGR5tLwDKOAZd-25" target="nEk47-ToGR5tLwDKOAZd-11" edge="1">
                    <mxGeometry relative="1" as="geometry">
                        <mxPoint x="460" y="949" as="sourcePoint"/>
                        <Array as="points">
                            <mxPoint x="860" y="949"/>
                            <mxPoint x="860" y="814"/>
                        </Array>
                    </mxGeometry>
                </mxCell>
                <mxCell id="nEk47-ToGR5tLwDKOAZd-25" value="" style="rhombus;whiteSpace=wrap;html=1;" parent="1" vertex="1">
                    <mxGeometry x="360" y="909" width="80" height="80" as="geometry"/>
                </mxCell>
                <mxCell id="nEk47-ToGR5tLwDKOAZd-26" value="Input signal" style="text;html=1;strokeColor=none;fillColor=none;align=center;verticalAlign=middle;whiteSpace=wrap;rounded=0;" parent="1" vertex="1">
                    <mxGeometry x="750" y="705" width="60" height="30" as="geometry"/>
                </mxCell>
                <mxCell id="nEk47-ToGR5tLwDKOAZd-27" value="Input port" style="text;html=1;strokeColor=none;fillColor=none;align=center;verticalAlign=middle;whiteSpace=wrap;rounded=0;" parent="1" vertex="1">
                    <mxGeometry x="370" y="929" width="60" height="30" as="geometry"/>
                </mxCell>
                <mxCell id="nEk47-ToGR5tLwDKOAZd-32" style="edgeStyle=orthogonalEdgeStyle;rounded=0;orthogonalLoop=1;jettySize=auto;html=1;exitX=0;exitY=0.5;exitDx=0;exitDy=0;" parent="1" source="qtC0jDbBa8BHLBBzWzsQ-157" target="nEk47-ToGR5tLwDKOAZd-11" edge="1">
                    <mxGeometry relative="1" as="geometry"/>
                </mxCell>
                <mxCell id="nEk47-ToGR5tLwDKOAZd-34" value="Read Add" style="text;strokeColor=none;fillColor=none;spacingLeft=4;spacingRight=4;overflow=hidden;rotatable=1;points=[[0,0.5],[1,0.5]];portConstraint=eastwest;fontSize=12;movable=1;resizable=1;deletable=1;editable=1;connectable=1;" parent="1" vertex="1">
                    <mxGeometry x="1899" y="247" width="120" height="30" as="geometry"/>
                </mxCell>
                <mxCell id="nEk47-ToGR5tLwDKOAZd-36" value="-" style="text;strokeColor=none;fillColor=none;spacingLeft=4;spacingRight=4;overflow=hidden;rotatable=1;points=[[0,0.5],[1,0.5]];portConstraint=eastwest;fontSize=12;movable=1;resizable=1;deletable=1;editable=1;connectable=1;" parent="1" vertex="1">
                    <mxGeometry x="1730" y="619" width="120" height="30" as="geometry"/>
                </mxCell>
                <mxCell id="nEk47-ToGR5tLwDKOAZd-44" style="edgeStyle=orthogonalEdgeStyle;rounded=0;orthogonalLoop=1;jettySize=auto;html=1;entryX=0.25;entryY=1;entryDx=0;entryDy=0;" parent="1" source="nEk47-ToGR5tLwDKOAZd-40" target="nEk47-ToGR5tLwDKOAZd-42" edge="1">
                    <mxGeometry relative="1" as="geometry">
                        <Array as="points">
                            <mxPoint x="2110" y="342"/>
                            <mxPoint x="2110" y="550"/>
                            <mxPoint x="1780" y="550"/>
                        </Array>
                    </mxGeometry>
                </mxCell>
                <mxCell id="nEk47-ToGR5tLwDKOAZd-40" value="ReadData" style="text;strokeColor=none;fillColor=none;spacingLeft=4;spacingRight=4;overflow=hidden;rotatable=1;points=[[0,0.5],[1,0.5]];portConstraint=eastwest;fontSize=12;movable=1;resizable=1;deletable=1;editable=1;connectable=1;" parent="1" vertex="1">
                    <mxGeometry x="1938" y="329" width="56" height="30" as="geometry"/>
                </mxCell>
                <mxCell id="nEk47-ToGR5tLwDKOAZd-43" style="edgeStyle=orthogonalEdgeStyle;rounded=0;orthogonalLoop=1;jettySize=auto;html=1;entryX=1;entryY=0.5;entryDx=0;entryDy=0;" parent="1" source="nEk47-ToGR5tLwDKOAZd-42" target="qtC0jDbBa8BHLBBzWzsQ-158" edge="1">
                    <mxGeometry relative="1" as="geometry"/>
                </mxCell>
                <mxCell id="nEk47-ToGR5tLwDKOAZd-42" value="" style="shape=trapezoid;perimeter=trapezoidPerimeter;whiteSpace=wrap;html=1;fixedSize=1;rotation=90;direction=south;" parent="1" vertex="1">
                    <mxGeometry x="1727.5" y="558.5" width="45" height="120" as="geometry"/>
                </mxCell>
                <mxCell id="nEk47-ToGR5tLwDKOAZd-46" style="edgeStyle=orthogonalEdgeStyle;rounded=0;orthogonalLoop=1;jettySize=auto;html=1;exitX=1;exitY=0.5;exitDx=0;exitDy=0;entryX=1;entryY=0.5;entryDx=0;entryDy=0;" parent="1" source="qtC0jDbBa8BHLBBzWzsQ-100" target="nEk47-ToGR5tLwDKOAZd-42" edge="1">
                    <mxGeometry relative="1" as="geometry">
                        <Array as="points">
                            <mxPoint x="1600" y="287"/>
                            <mxPoint x="1600" y="619"/>
                        </Array>
                    </mxGeometry>
                </mxCell>
                <mxCell id="nEk47-ToGR5tLwDKOAZd-47" value="Memory Read" style="text;strokeColor=none;fillColor=none;spacingLeft=4;spacingRight=4;overflow=hidden;rotatable=1;points=[[0,0.5],[1,0.5]];portConstraint=eastwest;fontSize=12;movable=1;resizable=1;deletable=1;editable=1;connectable=1;" parent="1" vertex="1">
                    <mxGeometry x="1890" y="223" width="120" height="30" as="geometry"/>
                </mxCell>
                <mxCell id="nEk47-ToGR5tLwDKOAZd-48" style="edgeStyle=orthogonalEdgeStyle;rounded=0;orthogonalLoop=1;jettySize=auto;html=1;exitX=1;exitY=0.5;exitDx=0;exitDy=0;entryX=0.392;entryY=0.017;entryDx=0;entryDy=0;entryPerimeter=0;" parent="1" source="qtC0jDbBa8BHLBBzWzsQ-100" target="nEk47-ToGR5tLwDKOAZd-47" edge="1">
                    <mxGeometry relative="1" as="geometry">
                        <Array as="points">
                            <mxPoint x="1610" y="287"/>
                            <mxPoint x="1610" y="209"/>
                            <mxPoint x="1729" y="209"/>
                            <mxPoint x="1729" y="199"/>
                            <mxPoint x="1937" y="199"/>
                        </Array>
                    </mxGeometry>
                </mxCell>
                <mxCell id="nEk47-ToGR5tLwDKOAZd-49" value="Mem to reg" style="text;strokeColor=none;fillColor=none;spacingLeft=4;spacingRight=4;overflow=hidden;rotatable=1;points=[[0,0.5],[1,0.5]];portConstraint=eastwest;fontSize=12;movable=1;resizable=1;deletable=1;editable=1;connectable=1;" parent="1" vertex="1">
                    <mxGeometry x="1640" y="619" width="110" height="30" as="geometry"/>
                </mxCell>
                <mxCell id="nEk47-ToGR5tLwDKOAZd-53" value="Memorywrite" style="text;strokeColor=none;fillColor=none;spacingLeft=4;spacingRight=4;overflow=hidden;rotatable=1;points=[[0,0.5],[1,0.5]];portConstraint=eastwest;fontSize=12;movable=1;resizable=1;deletable=1;editable=1;connectable=1;" parent="1" vertex="1">
                    <mxGeometry x="1893" y="357" width="120" height="30" as="geometry"/>
                </mxCell>
                <mxCell id="nEk47-ToGR5tLwDKOAZd-58" style="edgeStyle=orthogonalEdgeStyle;rounded=0;orthogonalLoop=1;jettySize=auto;html=1;exitX=1;exitY=0.5;exitDx=0;exitDy=0;" parent="1" source="qtC0jDbBa8BHLBBzWzsQ-65" target="nEk47-ToGR5tLwDKOAZd-57" edge="1">
                    <mxGeometry relative="1" as="geometry">
                        <Array as="points">
                            <mxPoint x="1000" y="346"/>
                            <mxPoint x="1000" y="497"/>
                            <mxPoint x="1479" y="497"/>
                        </Array>
                    </mxGeometry>
                </mxCell>
                <mxCell id="nEk47-ToGR5tLwDKOAZd-60" value="Write Data" style="text;strokeColor=none;fillColor=none;spacingLeft=4;spacingRight=4;overflow=hidden;rotatable=1;points=[[0,0.5],[1,0.5]];portConstraint=eastwest;fontSize=12;movable=1;resizable=1;deletable=1;editable=1;connectable=1;" parent="1" vertex="1">
                    <mxGeometry x="1891" y="387" width="120" height="30" as="geometry"/>
                </mxCell>
                <mxCell id="nEk47-ToGR5tLwDKOAZd-61" style="edgeStyle=orthogonalEdgeStyle;rounded=0;orthogonalLoop=1;jettySize=auto;html=1;exitX=1;exitY=0.5;exitDx=0;exitDy=0;entryX=0;entryY=0.5;entryDx=0;entryDy=0;" parent="1" source="qtC0jDbBa8BHLBBzWzsQ-100" target="nEk47-ToGR5tLwDKOAZd-53" edge="1">
                    <mxGeometry relative="1" as="geometry">
                        <Array as="points">
                            <mxPoint x="1600" y="287"/>
                            <mxPoint x="1600" y="378"/>
                        </Array>
                    </mxGeometry>
                </mxCell>
                <mxCell id="nEk47-ToGR5tLwDKOAZd-62" style="edgeStyle=orthogonalEdgeStyle;rounded=0;orthogonalLoop=1;jettySize=auto;html=1;exitX=1;exitY=0.5;exitDx=0;exitDy=0;entryX=0;entryY=0.5;entryDx=0;entryDy=0;" parent="1" source="nEk47-ToGR5tLwDKOAZd-57" target="nEk47-ToGR5tLwDKOAZd-60" edge="1">
                    <mxGeometry relative="1" as="geometry">
                        <Array as="points">
                            <mxPoint x="1550" y="369"/>
                            <mxPoint x="1550" y="408"/>
                        </Array>
                    </mxGeometry>
                </mxCell>
                <mxCell id="nEk47-ToGR5tLwDKOAZd-66" style="edgeStyle=orthogonalEdgeStyle;rounded=0;orthogonalLoop=1;jettySize=auto;html=1;exitX=1;exitY=0.5;exitDx=0;exitDy=0;entryX=0.75;entryY=1;entryDx=0;entryDy=0;" parent="1" source="qtC0jDbBa8BHLBBzWzsQ-101" target="nEk47-ToGR5tLwDKOAZd-42" edge="1">
                    <mxGeometry relative="1" as="geometry">
                        <Array as="points">
                            <mxPoint x="1650" y="313"/>
                            <mxPoint x="1650" y="579"/>
                            <mxPoint x="1720" y="579"/>
                        </Array>
                    </mxGeometry>
                </mxCell>
                <mxCell id="nEk47-ToGR5tLwDKOAZd-87" style="edgeStyle=orthogonalEdgeStyle;rounded=0;orthogonalLoop=1;jettySize=auto;html=1;exitX=0.5;exitY=0;exitDx=0;exitDy=0;entryX=0;entryY=0.25;entryDx=0;entryDy=0;" parent="1" source="nEk47-ToGR5tLwDKOAZd-77" target="qtC0jDbBa8BHLBBzWzsQ-80" edge="1">
                    <mxGeometry relative="1" as="geometry">
                        <Array as="points">
                            <mxPoint x="1100" y="517"/>
                            <mxPoint x="1100" y="312"/>
                        </Array>
                    </mxGeometry>
                </mxCell>
                <mxCell id="nEk47-ToGR5tLwDKOAZd-77" value="" style="shape=trapezoid;perimeter=trapezoidPerimeter;whiteSpace=wrap;html=1;fixedSize=1;" parent="1" vertex="1">
                    <mxGeometry x="1030" y="517" width="110" height="40" as="geometry"/>
                </mxCell>
                <mxCell id="nEk47-ToGR5tLwDKOAZd-78" style="edgeStyle=orthogonalEdgeStyle;rounded=0;orthogonalLoop=1;jettySize=auto;html=1;exitX=1;exitY=0.5;exitDx=0;exitDy=0;entryX=0.5;entryY=1;entryDx=0;entryDy=0;" parent="1" edge="1">
                    <mxGeometry relative="1" as="geometry">
                        <Array as="points">
                            <mxPoint x="570" y="311"/>
                            <mxPoint x="570" y="606"/>
                            <mxPoint x="1085" y="606"/>
                        </Array>
                        <mxPoint x="550" y="314" as="sourcePoint"/>
                        <mxPoint x="1085" y="556" as="targetPoint"/>
                    </mxGeometry>
                </mxCell>
                <mxCell id="nEk47-ToGR5tLwDKOAZd-86" style="edgeStyle=orthogonalEdgeStyle;rounded=0;orthogonalLoop=1;jettySize=auto;html=1;exitX=1;exitY=0.5;exitDx=0;exitDy=0;entryX=0.25;entryY=1;entryDx=0;entryDy=0;" parent="1" source="qtC0jDbBa8BHLBBzWzsQ-67" target="nEk47-ToGR5tLwDKOAZd-77" edge="1">
                    <mxGeometry relative="1" as="geometry">
                        <Array as="points">
                            <mxPoint x="1010" y="316"/>
                            <mxPoint x="1010" y="577"/>
                            <mxPoint x="1058" y="577"/>
                        </Array>
                    </mxGeometry>
                </mxCell>
                <mxCell id="nEk47-ToGR5tLwDKOAZd-88" style="edgeStyle=orthogonalEdgeStyle;rounded=0;orthogonalLoop=1;jettySize=auto;html=1;exitX=1;exitY=0.5;exitDx=0;exitDy=0;entryX=0;entryY=0.75;entryDx=0;entryDy=0;" parent="1" source="qtC0jDbBa8BHLBBzWzsQ-65" target="qtC0jDbBa8BHLBBzWzsQ-185" edge="1">
                    <mxGeometry relative="1" as="geometry"/>
                </mxCell>
                <mxCell id="nEk47-ToGR5tLwDKOAZd-89" value="" style="endArrow=classic;html=1;rounded=0;" parent="1" target="nEk47-ToGR5tLwDKOAZd-77" edge="1">
                    <mxGeometry width="50" height="50" relative="1" as="geometry">
                        <mxPoint x="970" y="547" as="sourcePoint"/>
                        <mxPoint x="1020" y="512" as="targetPoint"/>
                        <Array as="points">
                            <mxPoint x="980" y="537"/>
                        </Array>
                    </mxGeometry>
                </mxCell>
                <mxCell id="Ab2W-W3I4nejm09drKdX-4" style="edgeStyle=orthogonalEdgeStyle;rounded=0;orthogonalLoop=1;jettySize=auto;html=1;entryX=0;entryY=0.75;entryDx=0;entryDy=0;" parent="1" edge="1">
                    <mxGeometry relative="1" as="geometry">
                        <mxPoint x="934" y="515" as="sourcePoint"/>
                        <mxPoint x="691.5454545454545" y="-63.88636363636374" as="targetPoint"/>
                        <Array as="points">
                            <mxPoint x="934" y="87"/>
                            <mxPoint x="740" y="87"/>
                            <mxPoint x="740" y="-50"/>
                        </Array>
                    </mxGeometry>
                </mxCell>
                <mxCell id="nEk47-ToGR5tLwDKOAZd-90" value="ALU src" style="text;html=1;strokeColor=none;fillColor=none;align=center;verticalAlign=middle;whiteSpace=wrap;rounded=0;" parent="1" vertex="1">
                    <mxGeometry x="904" y="518" width="60" height="30" as="geometry"/>
                </mxCell>
                <mxCell id="nEk47-ToGR5tLwDKOAZd-91" value="0" style="text;html=1;strokeColor=none;fillColor=none;align=center;verticalAlign=middle;whiteSpace=wrap;rounded=0;" parent="1" vertex="1">
                    <mxGeometry x="1030" y="527" width="60" height="30" as="geometry"/>
                </mxCell>
                <mxCell id="nEk47-ToGR5tLwDKOAZd-92" value="1" style="text;html=1;strokeColor=none;fillColor=none;align=center;verticalAlign=middle;whiteSpace=wrap;rounded=0;" parent="1" vertex="1">
                    <mxGeometry x="1057" y="524.5" width="60" height="30" as="geometry"/>
                </mxCell>
                <mxCell id="Eeik1Y1Iqah8K_Qvoi5j-23" style="edgeStyle=orthogonalEdgeStyle;rounded=0;orthogonalLoop=1;jettySize=auto;html=1;entryX=0;entryY=0.5;entryDx=0;entryDy=0;" parent="1" source="Eeik1Y1Iqah8K_Qvoi5j-1" target="Eeik1Y1Iqah8K_Qvoi5j-2" edge="1">
                    <mxGeometry relative="1" as="geometry">
                        <Array as="points">
                            <mxPoint x="1770" y="-82"/>
                            <mxPoint x="1770" y="-141"/>
                            <mxPoint x="1470" y="-141"/>
                            <mxPoint x="1470" y="-86"/>
                        </Array>
                    </mxGeometry>
                </mxCell>
                <mxCell id="Eeik1Y1Iqah8K_Qvoi5j-1" value="SP" style="whiteSpace=wrap;html=1;aspect=fixed;" parent="1" vertex="1">
                    <mxGeometry x="1662.5" y="-117" width="70" height="70" as="geometry"/>
                </mxCell>
                <mxCell id="Eeik1Y1Iqah8K_Qvoi5j-25" style="edgeStyle=orthogonalEdgeStyle;rounded=0;orthogonalLoop=1;jettySize=auto;html=1;" parent="1" source="Eeik1Y1Iqah8K_Qvoi5j-2" target="Eeik1Y1Iqah8K_Qvoi5j-1" edge="1">
                    <mxGeometry relative="1" as="geometry"/>
                </mxCell>
                <mxCell id="Eeik1Y1Iqah8K_Qvoi5j-29" style="edgeStyle=orthogonalEdgeStyle;rounded=0;orthogonalLoop=1;jettySize=auto;html=1;entryX=0.25;entryY=1;entryDx=0;entryDy=0;" parent="1" source="Eeik1Y1Iqah8K_Qvoi5j-2" target="Eeik1Y1Iqah8K_Qvoi5j-20" edge="1">
                    <mxGeometry relative="1" as="geometry">
                        <Array as="points">
                            <mxPoint x="1590" y="-86"/>
                            <mxPoint x="1590" y="-6"/>
                            <mxPoint x="1600" y="-6"/>
                        </Array>
                    </mxGeometry>
                </mxCell>
                <mxCell id="Eeik1Y1Iqah8K_Qvoi5j-34" style="edgeStyle=orthogonalEdgeStyle;rounded=0;orthogonalLoop=1;jettySize=auto;html=1;entryX=0.75;entryY=1;entryDx=0;entryDy=0;" parent="1" source="Eeik1Y1Iqah8K_Qvoi5j-2" target="Eeik1Y1Iqah8K_Qvoi5j-20" edge="1">
                    <mxGeometry relative="1" as="geometry"/>
                </mxCell>
                <mxCell id="Eeik1Y1Iqah8K_Qvoi5j-2" value="Adder or subtractor by 1" style="whiteSpace=wrap;html=1;aspect=fixed;" parent="1" vertex="1">
                    <mxGeometry x="1490" y="-121" width="70" height="70" as="geometry"/>
                </mxCell>
                <mxCell id="Eeik1Y1Iqah8K_Qvoi5j-3" value="write enable" style="text;html=1;strokeColor=none;fillColor=none;align=center;verticalAlign=middle;whiteSpace=wrap;rounded=0;" parent="1" vertex="1">
                    <mxGeometry x="1673.5" y="-113" width="45" height="15" as="geometry"/>
                </mxCell>
                <mxCell id="Eeik1Y1Iqah8K_Qvoi5j-11" style="edgeStyle=orthogonalEdgeStyle;rounded=0;orthogonalLoop=1;jettySize=auto;html=1;entryX=0;entryY=0.5;entryDx=0;entryDy=0;" parent="1" source="Eeik1Y1Iqah8K_Qvoi5j-4" target="nEk47-ToGR5tLwDKOAZd-34" edge="1">
                    <mxGeometry relative="1" as="geometry"/>
                </mxCell>
                <mxCell id="Eeik1Y1Iqah8K_Qvoi5j-4" value="" style="shape=trapezoid;perimeter=trapezoidPerimeter;whiteSpace=wrap;html=1;fixedSize=1;rotation=90;" parent="1" vertex="1">
                    <mxGeometry x="1667.5" y="263" width="60" height="26" as="geometry"/>
                </mxCell>
                <mxCell id="Eeik1Y1Iqah8K_Qvoi5j-18" style="edgeStyle=orthogonalEdgeStyle;rounded=0;orthogonalLoop=1;jettySize=auto;html=1;entryX=0;entryY=0.25;entryDx=0;entryDy=0;" parent="1" source="qtC0jDbBa8BHLBBzWzsQ-100" target="Eeik1Y1Iqah8K_Qvoi5j-4" edge="1">
                    <mxGeometry relative="1" as="geometry">
                        <Array as="points">
                            <mxPoint x="1550" y="287"/>
                            <mxPoint x="1550" y="169"/>
                            <mxPoint x="1701" y="169"/>
                        </Array>
                    </mxGeometry>
                </mxCell>
                <mxCell id="Eeik1Y1Iqah8K_Qvoi5j-19" style="edgeStyle=orthogonalEdgeStyle;rounded=0;orthogonalLoop=1;jettySize=auto;html=1;entryX=0.25;entryY=1;entryDx=0;entryDy=0;" parent="1" source="qtC0jDbBa8BHLBBzWzsQ-101" target="Eeik1Y1Iqah8K_Qvoi5j-4" edge="1">
                    <mxGeometry relative="1" as="geometry">
                        <Array as="points">
                            <mxPoint x="1630" y="313"/>
                            <mxPoint x="1630" y="261"/>
                        </Array>
                    </mxGeometry>
                </mxCell>
                <mxCell id="Eeik1Y1Iqah8K_Qvoi5j-38" style="edgeStyle=orthogonalEdgeStyle;rounded=0;orthogonalLoop=1;jettySize=auto;html=1;entryX=0.75;entryY=1;entryDx=0;entryDy=0;" parent="1" source="Eeik1Y1Iqah8K_Qvoi5j-20" target="Eeik1Y1Iqah8K_Qvoi5j-4" edge="1">
                    <mxGeometry relative="1" as="geometry">
                        <Array as="points">
                            <mxPoint x="1578" y="109"/>
                            <mxPoint x="1654" y="109"/>
                            <mxPoint x="1654" y="291"/>
                        </Array>
                    </mxGeometry>
                </mxCell>
                <mxCell id="Eeik1Y1Iqah8K_Qvoi5j-20" value="" style="shape=trapezoid;perimeter=trapezoidPerimeter;whiteSpace=wrap;html=1;fixedSize=1;rotation=90;direction=south;" parent="1" vertex="1">
                    <mxGeometry x="1558.75" y="12.75" width="37.5" height="90" as="geometry"/>
                </mxCell>
                <mxCell id="Eeik1Y1Iqah8K_Qvoi5j-21" value="Stack op" style="text;html=1;strokeColor=none;fillColor=none;align=center;verticalAlign=middle;whiteSpace=wrap;rounded=0;" parent="1" vertex="1">
                    <mxGeometry x="1550" y="137" width="60" height="30" as="geometry"/>
                </mxCell>
                <mxCell id="Eeik1Y1Iqah8K_Qvoi5j-30" value="SP" style="text;html=1;strokeColor=none;fillColor=none;align=center;verticalAlign=middle;whiteSpace=wrap;rounded=0;" parent="1" vertex="1">
                    <mxGeometry x="1498.75" y="-3" width="60" height="30" as="geometry"/>
                </mxCell>
                <mxCell id="Eeik1Y1Iqah8K_Qvoi5j-32" value="SP+1" style="text;html=1;strokeColor=none;fillColor=none;align=center;verticalAlign=middle;whiteSpace=wrap;rounded=0;" parent="1" vertex="1">
                    <mxGeometry x="1570" y="-1" width="60" height="30" as="geometry"/>
                </mxCell>
                <mxCell id="Eeik1Y1Iqah8K_Qvoi5j-36" style="edgeStyle=orthogonalEdgeStyle;rounded=0;orthogonalLoop=1;jettySize=auto;html=1;entryX=1;entryY=0.5;entryDx=0;entryDy=0;" parent="1" source="qtC0jDbBa8BHLBBzWzsQ-100" edge="1">
                    <mxGeometry relative="1" as="geometry">
                        <mxPoint x="1542.5" y="55.75" as="targetPoint"/>
                    </mxGeometry>
                </mxCell>
                <mxCell id="Eeik1Y1Iqah8K_Qvoi5j-37" value="0 push 1 pop" style="text;html=1;strokeColor=none;fillColor=none;align=center;verticalAlign=middle;whiteSpace=wrap;rounded=0;" parent="1" vertex="1">
                    <mxGeometry x="1470" y="47" width="60" height="30" as="geometry"/>
                </mxCell>
                <mxCell id="Eeik1Y1Iqah8K_Qvoi5j-39" style="edgeStyle=orthogonalEdgeStyle;rounded=0;orthogonalLoop=1;jettySize=auto;html=1;entryX=0.5;entryY=0;entryDx=0;entryDy=0;" parent="1" source="qtC0jDbBa8BHLBBzWzsQ-100" target="Eeik1Y1Iqah8K_Qvoi5j-3" edge="1">
                    <mxGeometry relative="1" as="geometry">
                        <Array as="points">
                            <mxPoint x="1440" y="-191"/>
                            <mxPoint x="1696" y="-191"/>
                        </Array>
                    </mxGeometry>
                </mxCell>
                <mxCell id="Eeik1Y1Iqah8K_Qvoi5j-40" value="Stack op" style="text;html=1;strokeColor=none;fillColor=none;align=center;verticalAlign=middle;whiteSpace=wrap;rounded=0;" parent="1" vertex="1">
                    <mxGeometry x="1570" y="-221" width="60" height="30" as="geometry"/>
                </mxCell>
                <mxCell id="Eeik1Y1Iqah8K_Qvoi5j-41" style="edgeStyle=orthogonalEdgeStyle;rounded=0;orthogonalLoop=1;jettySize=auto;html=1;entryX=0.5;entryY=0;entryDx=0;entryDy=0;" parent="1" source="qtC0jDbBa8BHLBBzWzsQ-100" target="Eeik1Y1Iqah8K_Qvoi5j-2" edge="1">
                    <mxGeometry relative="1" as="geometry">
                        <Array as="points">
                            <mxPoint x="1460" y="-161"/>
                            <mxPoint x="1525" y="-161"/>
                        </Array>
                    </mxGeometry>
                </mxCell>
                <mxCell id="Eeik1Y1Iqah8K_Qvoi5j-42" value="0 push 1 pop" style="text;html=1;strokeColor=none;fillColor=none;align=center;verticalAlign=middle;whiteSpace=wrap;rounded=0;" parent="1" vertex="1">
                    <mxGeometry x="1454" y="-41" width="60" height="30" as="geometry"/>
                </mxCell>
                <mxCell id="Ab2W-W3I4nejm09drKdX-1" value="0" style="text;strokeColor=none;fillColor=none;spacingLeft=4;spacingRight=4;overflow=hidden;rotatable=1;points=[[0,0.5],[1,0.5]];portConstraint=eastwest;fontSize=12;movable=1;resizable=1;deletable=1;editable=1;connectable=1;" parent="1" vertex="1">
                    <mxGeometry x="1710" y="603.5" width="110" height="30" as="geometry"/>
                </mxCell>
                <mxCell id="Ab2W-W3I4nejm09drKdX-2" value="1" style="text;strokeColor=none;fillColor=none;spacingLeft=4;spacingRight=4;overflow=hidden;rotatable=1;points=[[0,0.5],[1,0.5]];portConstraint=eastwest;fontSize=12;movable=1;resizable=1;deletable=1;editable=1;connectable=1;" parent="1" vertex="1">
                    <mxGeometry x="1780" y="603.5" width="110" height="30" as="geometry"/>
                </mxCell>
                <mxCell id="Ab2W-W3I4nejm09drKdX-14" style="edgeStyle=orthogonalEdgeStyle;rounded=0;orthogonalLoop=1;jettySize=auto;html=1;entryX=0.5;entryY=0;entryDx=0;entryDy=0;fontFamily=Helvetica;fontSize=12;fontColor=default;" parent="1" source="Ab2W-W3I4nejm09drKdX-5" target="qtC0jDbBa8BHLBBzWzsQ-33" edge="1">
                    <mxGeometry relative="1" as="geometry"/>
                </mxCell>
                <mxCell id="Ab2W-W3I4nejm09drKdX-5" value="MUX" style="shape=trapezoid;perimeter=trapezoidPerimeter;whiteSpace=wrap;html=1;fixedSize=1;direction=south;movable=1;resizable=1;rotatable=1;deletable=1;editable=1;connectable=1;rotation=90;" parent="1" vertex="1">
                    <mxGeometry x="607" y="-107.25" width="60" height="120" as="geometry"/>
                </mxCell>
                <mxCell id="Ab2W-W3I4nejm09drKdX-7" value="ALU src" style="text;html=1;strokeColor=none;fillColor=none;align=center;verticalAlign=middle;whiteSpace=wrap;rounded=0;" parent="1" vertex="1">
                    <mxGeometry x="746" y="-47" width="60" height="30" as="geometry"/>
                </mxCell>
                <mxCell id="Ab2W-W3I4nejm09drKdX-15" value="1" style="text;html=1;strokeColor=none;fillColor=none;align=center;verticalAlign=middle;whiteSpace=wrap;rounded=0;" parent="1" vertex="1">
                    <mxGeometry x="647" y="-77" width="60" height="30" as="geometry"/>
                </mxCell>
                <mxCell id="Ab2W-W3I4nejm09drKdX-16" value="0" style="text;html=1;strokeColor=none;fillColor=none;align=center;verticalAlign=middle;whiteSpace=wrap;rounded=0;" parent="1" vertex="1">
                    <mxGeometry x="570" y="-71" width="60" height="30" as="geometry"/>
                </mxCell>
                <mxCell id="Ab2W-W3I4nejm09drKdX-18" style="edgeStyle=orthogonalEdgeStyle;rounded=0;orthogonalLoop=1;jettySize=auto;html=1;fontFamily=Helvetica;fontSize=12;fontColor=default;" parent="1" source="Ab2W-W3I4nejm09drKdX-17" target="Ab2W-W3I4nejm09drKdX-15" edge="1">
                    <mxGeometry relative="1" as="geometry"/>
                </mxCell>
                <mxCell id="Ab2W-W3I4nejm09drKdX-17" value="101" style="text;html=1;strokeColor=none;fillColor=none;align=center;verticalAlign=middle;whiteSpace=wrap;rounded=0;" parent="1" vertex="1">
                    <mxGeometry x="627" y="-170" width="60" height="30" as="geometry"/>
                </mxCell>
            </root>
        </mxGraphModel>
    </diagram>
    <diagram name="Fetch" id="-6R9IsQy4JgUoRrdlkAN">
        <mxGraphModel dx="798" dy="358" grid="1" gridSize="10" guides="1" tooltips="1" connect="1" arrows="1" fold="1" page="1" pageScale="1" pageWidth="850" pageHeight="1100" math="0" shadow="0">
            <root>
                <mxCell id="0"/>
                <mxCell id="1" parent="0"/>
                <mxCell id="wzqQHasQnOR6gNv9NoH4-1" value="" style="edgeStyle=orthogonalEdgeStyle;rounded=0;orthogonalLoop=1;jettySize=auto;html=1;movable=1;resizable=1;rotatable=1;deletable=1;editable=1;connectable=1;" parent="1" source="wzqQHasQnOR6gNv9NoH4-2" edge="1">
                    <mxGeometry relative="1" as="geometry">
                        <mxPoint x="720" y="302.07692307692287" as="targetPoint"/>
                        <Array as="points">
                            <mxPoint x="710" y="347"/>
                            <mxPoint x="710" y="302"/>
                        </Array>
                    </mxGeometry>
                </mxCell>
                <mxCell id="wzqQHasQnOR6gNv9NoH4-2" value="Code Memory" style="rounded=0;whiteSpace=wrap;html=1;movable=1;resizable=1;rotatable=1;deletable=1;editable=1;connectable=1;fillColor=#FF0000;" parent="1" vertex="1">
                    <mxGeometry x="550" y="317" width="120" height="60" as="geometry"/>
                </mxCell>
                <mxCell id="wzqQHasQnOR6gNv9NoH4-3" value="" style="edgeStyle=orthogonalEdgeStyle;rounded=0;orthogonalLoop=1;jettySize=auto;html=1;movable=1;resizable=1;rotatable=1;deletable=1;editable=1;connectable=1;" parent="1" source="wzqQHasQnOR6gNv9NoH4-4" target="wzqQHasQnOR6gNv9NoH4-2" edge="1">
                    <mxGeometry relative="1" as="geometry"/>
                </mxCell>
                <mxCell id="wzqQHasQnOR6gNv9NoH4-4" value="PC (32)" style="rounded=0;whiteSpace=wrap;html=1;movable=1;resizable=1;rotatable=1;deletable=1;editable=1;connectable=1;fillColor=#33FF33;" parent="1" vertex="1">
                    <mxGeometry x="440" y="337" width="60" height="20" as="geometry"/>
                </mxCell>
                <mxCell id="wzqQHasQnOR6gNv9NoH4-5" value="" style="edgeStyle=orthogonalEdgeStyle;rounded=0;orthogonalLoop=1;jettySize=auto;html=1;movable=1;resizable=1;rotatable=1;deletable=1;editable=1;connectable=1;" parent="1" target="wzqQHasQnOR6gNv9NoH4-7" edge="1">
                    <mxGeometry relative="1" as="geometry">
                        <mxPoint x="520" y="347" as="sourcePoint"/>
                        <Array as="points">
                            <mxPoint x="520" y="227"/>
                        </Array>
                    </mxGeometry>
                </mxCell>
                <mxCell id="wzqQHasQnOR6gNv9NoH4-6" style="edgeStyle=orthogonalEdgeStyle;rounded=0;orthogonalLoop=1;jettySize=auto;html=1;movable=1;resizable=1;rotatable=1;deletable=1;editable=1;connectable=1;" parent="1" source="wzqQHasQnOR6gNv9NoH4-7" target="wzqQHasQnOR6gNv9NoH4-11" edge="1">
                    <mxGeometry relative="1" as="geometry">
                        <mxPoint x="218.0666666666666" y="287" as="targetPoint"/>
                        <Array as="points">
                            <mxPoint x="218" y="214"/>
                            <mxPoint x="218" y="307"/>
                        </Array>
                    </mxGeometry>
                </mxCell>
                <mxCell id="wzqQHasQnOR6gNv9NoH4-7" value="ADD" style="rounded=0;whiteSpace=wrap;html=1;movable=1;resizable=1;rotatable=1;deletable=1;editable=1;connectable=1;" parent="1" vertex="1">
                    <mxGeometry x="630" y="221" width="60" height="34" as="geometry"/>
                </mxCell>
                <mxCell id="wzqQHasQnOR6gNv9NoH4-8" value="" style="edgeStyle=orthogonalEdgeStyle;rounded=0;orthogonalLoop=1;jettySize=auto;html=1;movable=1;resizable=1;rotatable=1;deletable=1;editable=1;connectable=1;" parent="1" source="wzqQHasQnOR6gNv9NoH4-9" target="wzqQHasQnOR6gNv9NoH4-7" edge="1">
                    <mxGeometry relative="1" as="geometry"/>
                </mxCell>
                <mxCell id="wzqQHasQnOR6gNv9NoH4-9" value="1" style="text;html=1;strokeColor=none;fillColor=none;align=center;verticalAlign=middle;whiteSpace=wrap;rounded=0;movable=1;resizable=1;rotatable=1;deletable=1;editable=1;connectable=1;" parent="1" vertex="1">
                    <mxGeometry x="520" y="237" width="60" height="30" as="geometry"/>
                </mxCell>
                <mxCell id="JZeG9DBQATsWxO5J3Yk2-17" style="edgeStyle=orthogonalEdgeStyle;rounded=0;orthogonalLoop=1;jettySize=auto;html=1;entryX=0;entryY=0.5;entryDx=0;entryDy=0;" parent="1" source="wzqQHasQnOR6gNv9NoH4-11" target="wzqQHasQnOR6gNv9NoH4-4" edge="1">
                    <mxGeometry relative="1" as="geometry"/>
                </mxCell>
                <mxCell id="wzqQHasQnOR6gNv9NoH4-11" value="MUX" style="shape=trapezoid;perimeter=trapezoidPerimeter;whiteSpace=wrap;html=1;fixedSize=1;direction=south;movable=1;resizable=1;rotatable=1;deletable=1;editable=1;connectable=1;" parent="1" vertex="1">
                    <mxGeometry x="238" y="287" width="60" height="120" as="geometry"/>
                </mxCell>
                <mxCell id="wzqQHasQnOR6gNv9NoH4-12" value="0" style="text;html=1;strokeColor=none;fillColor=none;align=center;verticalAlign=middle;whiteSpace=wrap;rounded=0;movable=1;resizable=1;rotatable=1;deletable=1;editable=1;connectable=1;" parent="1" vertex="1">
                    <mxGeometry x="218" y="297" width="60" height="30" as="geometry"/>
                </mxCell>
                <mxCell id="wzqQHasQnOR6gNv9NoH4-13" value="1" style="text;html=1;strokeColor=none;fillColor=none;align=center;verticalAlign=middle;whiteSpace=wrap;rounded=0;movable=1;resizable=1;rotatable=1;deletable=1;editable=1;connectable=1;" parent="1" vertex="1">
                    <mxGeometry x="220" y="357" width="60" height="30" as="geometry"/>
                </mxCell>
                <mxCell id="wzqQHasQnOR6gNv9NoH4-14" value="Fetch" style="rounded=0;whiteSpace=wrap;html=1;movable=1;resizable=1;rotatable=1;deletable=1;editable=1;connectable=1;" parent="1" vertex="1">
                    <mxGeometry x="110" y="40" width="100" height="140" as="geometry"/>
                </mxCell>
                <mxCell id="wzqQHasQnOR6gNv9NoH4-17" style="edgeStyle=orthogonalEdgeStyle;rounded=0;orthogonalLoop=1;jettySize=auto;html=1;entryX=0.75;entryY=1;entryDx=0;entryDy=0;startArrow=none;" parent="1" source="wzqQHasQnOR6gNv9NoH4-30" target="wzqQHasQnOR6gNv9NoH4-11" edge="1">
                    <mxGeometry relative="1" as="geometry"/>
                </mxCell>
                <mxCell id="wzqQHasQnOR6gNv9NoH4-32" style="edgeStyle=orthogonalEdgeStyle;rounded=0;orthogonalLoop=1;jettySize=auto;html=1;entryX=0;entryY=0.5;entryDx=0;entryDy=0;" parent="1" source="wzqQHasQnOR6gNv9NoH4-15" target="wzqQHasQnOR6gNv9NoH4-30" edge="1">
                    <mxGeometry relative="1" as="geometry"/>
                </mxCell>
                <mxCell id="wzqQHasQnOR6gNv9NoH4-15" value="branchAdd&lt;br&gt;&lt;br&gt;16bit" style="ellipse;whiteSpace=wrap;html=1;aspect=fixed;" parent="1" vertex="1">
                    <mxGeometry x="20" y="332" width="70" height="70" as="geometry"/>
                </mxCell>
                <mxCell id="wzqQHasQnOR6gNv9NoH4-18" value="branchAdd" style="text;html=1;strokeColor=none;fillColor=none;align=center;verticalAlign=middle;whiteSpace=wrap;rounded=0;" parent="1" vertex="1">
                    <mxGeometry x="113" y="81" width="60" height="30" as="geometry"/>
                </mxCell>
                <mxCell id="wzqQHasQnOR6gNv9NoH4-19" value="branch" style="text;html=1;strokeColor=none;fillColor=none;align=center;verticalAlign=middle;whiteSpace=wrap;rounded=0;" parent="1" vertex="1">
                    <mxGeometry x="102" y="54" width="60" height="30" as="geometry"/>
                </mxCell>
                <mxCell id="wzqQHasQnOR6gNv9NoH4-20" value="clk" style="text;html=1;strokeColor=none;fillColor=none;align=center;verticalAlign=middle;whiteSpace=wrap;rounded=0;" parent="1" vertex="1">
                    <mxGeometry x="100" y="130" width="60" height="30" as="geometry"/>
                </mxCell>
                <mxCell id="wzqQHasQnOR6gNv9NoH4-22" style="edgeStyle=orthogonalEdgeStyle;rounded=0;orthogonalLoop=1;jettySize=auto;html=1;entryX=0.75;entryY=0;entryDx=0;entryDy=0;" parent="1" source="wzqQHasQnOR6gNv9NoH4-21" target="wzqQHasQnOR6gNv9NoH4-12" edge="1">
                    <mxGeometry relative="1" as="geometry"/>
                </mxCell>
                <mxCell id="wzqQHasQnOR6gNv9NoH4-21" value="branch" style="ellipse;whiteSpace=wrap;html=1;aspect=fixed;" parent="1" vertex="1">
                    <mxGeometry x="258" y="130" width="60" height="60" as="geometry"/>
                </mxCell>
                <mxCell id="wzqQHasQnOR6gNv9NoH4-23" value="instruction&lt;br&gt;16 bit" style="ellipse;whiteSpace=wrap;html=1;aspect=fixed;" parent="1" vertex="1">
                    <mxGeometry x="732" y="257" width="60" height="60" as="geometry"/>
                </mxCell>
                <mxCell id="wzqQHasQnOR6gNv9NoH4-24" value="PC_Mux_Out" style="text;html=1;strokeColor=none;fillColor=none;align=center;verticalAlign=middle;whiteSpace=wrap;rounded=0;rotation=270;" parent="1" vertex="1">
                    <mxGeometry x="310" y="287" width="60" height="30" as="geometry"/>
                </mxCell>
                <mxCell id="wzqQHasQnOR6gNv9NoH4-26" value="Adder_Out" style="text;html=1;strokeColor=none;fillColor=none;align=center;verticalAlign=middle;whiteSpace=wrap;rounded=0;rotation=0;" parent="1" vertex="1">
                    <mxGeometry x="570" y="180" width="60" height="30" as="geometry"/>
                </mxCell>
                <mxCell id="JZeG9DBQATsWxO5J3Yk2-11" style="edgeStyle=orthogonalEdgeStyle;rounded=0;orthogonalLoop=1;jettySize=auto;html=1;entryX=0.5;entryY=1;entryDx=0;entryDy=0;" parent="1" source="wzqQHasQnOR6gNv9NoH4-27" target="wzqQHasQnOR6gNv9NoH4-4" edge="1">
                    <mxGeometry relative="1" as="geometry">
                        <Array as="points">
                            <mxPoint x="115" y="520"/>
                            <mxPoint x="470" y="520"/>
                        </Array>
                    </mxGeometry>
                </mxCell>
                <mxCell id="wzqQHasQnOR6gNv9NoH4-27" value="clk" style="ellipse;whiteSpace=wrap;html=1;aspect=fixed;" parent="1" vertex="1">
                    <mxGeometry x="20" y="510" width="50" height="50" as="geometry"/>
                </mxCell>
                <mxCell id="wzqQHasQnOR6gNv9NoH4-30" value="sign Extend" style="rounded=0;whiteSpace=wrap;html=1;fillColor=#FFFFFF;" parent="1" vertex="1">
                    <mxGeometry x="130" y="332" width="55" height="60" as="geometry"/>
                </mxCell>
                <mxCell id="wzqQHasQnOR6gNv9NoH4-34" value="16 bit" style="text;html=1;strokeColor=none;fillColor=none;align=center;verticalAlign=middle;whiteSpace=wrap;rounded=0;" parent="1" vertex="1">
                    <mxGeometry x="80" y="332" width="60" height="30" as="geometry"/>
                </mxCell>
                <mxCell id="wzqQHasQnOR6gNv9NoH4-35" value="32 bit" style="text;html=1;strokeColor=none;fillColor=none;align=center;verticalAlign=middle;whiteSpace=wrap;rounded=0;" parent="1" vertex="1">
                    <mxGeometry x="185" y="332" width="60" height="30" as="geometry"/>
                </mxCell>
                <mxCell id="wzqQHasQnOR6gNv9NoH4-36" value="Branch_Address_32bit" style="text;whiteSpace=wrap;html=1;rotation=270;" parent="1" vertex="1">
                    <mxGeometry x="126" y="266" width="150" height="40" as="geometry"/>
                </mxCell>
                <mxCell id="wzqQHasQnOR6gNv9NoH4-37" value="&lt;span style=&quot;color: rgb(0, 0, 0); font-family: Helvetica; font-size: 12px; font-style: normal; font-variant-ligatures: normal; font-variant-caps: normal; font-weight: 400; letter-spacing: normal; orphans: 2; text-align: center; text-indent: 0px; text-transform: none; widows: 2; word-spacing: 0px; -webkit-text-stroke-width: 0px; background-color: rgb(248, 249, 250); text-decoration-thickness: initial; text-decoration-style: initial; text-decoration-color: initial; float: none; display: inline !important;&quot;&gt;instruction&lt;/span&gt;" style="text;whiteSpace=wrap;html=1;" parent="1" vertex="1">
                    <mxGeometry x="181" y="106" width="70" height="20" as="geometry"/>
                </mxCell>
                <mxCell id="JZeG9DBQATsWxO5J3Yk2-5" style="edgeStyle=orthogonalEdgeStyle;rounded=0;orthogonalLoop=1;jettySize=auto;html=1;entryX=0;entryY=0.5;entryDx=0;entryDy=0;" parent="1" target="wzqQHasQnOR6gNv9NoH4-4" edge="1">
                    <mxGeometry relative="1" as="geometry">
                        <mxPoint x="410" y="347" as="sourcePoint"/>
                    </mxGeometry>
                </mxCell>
                <mxCell id="JZeG9DBQATsWxO5J3Yk2-7" style="edgeStyle=orthogonalEdgeStyle;rounded=0;orthogonalLoop=1;jettySize=auto;html=1;entryX=0.25;entryY=1;entryDx=0;entryDy=0;" parent="1" edge="1">
                    <mxGeometry relative="1" as="geometry">
                        <mxPoint x="82" y="460" as="sourcePoint"/>
                        <mxPoint x="457" y="357" as="targetPoint"/>
                        <Array as="points">
                            <mxPoint x="457" y="460"/>
                        </Array>
                    </mxGeometry>
                </mxCell>
                <mxCell id="JZeG9DBQATsWxO5J3Yk2-3" value="reset" style="ellipse;whiteSpace=wrap;html=1;aspect=fixed;" parent="1" vertex="1">
                    <mxGeometry x="20" y="430" width="60" height="60" as="geometry"/>
                </mxCell>
                <mxCell id="JZeG9DBQATsWxO5J3Yk2-12" value="reset" style="text;html=1;strokeColor=none;fillColor=none;align=center;verticalAlign=middle;whiteSpace=wrap;rounded=0;" parent="1" vertex="1">
                    <mxGeometry x="100" y="111" width="60" height="30" as="geometry"/>
                </mxCell>
            </root>
        </mxGraphModel>
    </diagram>
    <diagram name="Execute" id="Lqrcpd1xi2dGwFSwqXGk">
        <mxGraphModel dx="-52" dy="358" grid="1" gridSize="10" guides="1" tooltips="1" connect="1" arrows="1" fold="1" page="1" pageScale="1" pageWidth="850" pageHeight="1100" math="0" shadow="0">
            <root>
                <mxCell id="Zenvrtx0O_84ZCuiPcEg-0"/>
                <mxCell id="Zenvrtx0O_84ZCuiPcEg-1" parent="Zenvrtx0O_84ZCuiPcEg-0"/>
                <mxCell id="5h5PN4SKM-I1K6OmL7lQ-0" style="edgeStyle=orthogonalEdgeStyle;rounded=0;orthogonalLoop=1;jettySize=auto;html=1;exitX=1;exitY=0.25;exitDx=0;exitDy=0;entryX=0;entryY=0.5;entryDx=0;entryDy=0;fontSize=12;movable=0;resizable=0;rotatable=0;deletable=0;editable=0;connectable=0;" parent="Zenvrtx0O_84ZCuiPcEg-1" edge="1">
                    <mxGeometry relative="1" as="geometry">
                        <mxPoint x="1240" y="264" as="targetPoint"/>
                        <mxPoint x="1229" y="525" as="sourcePoint"/>
                    </mxGeometry>
                </mxCell>
                <mxCell id="GzX1gK5q_4ueQN7pYIfo-0" value="Execute" style="rounded=0;whiteSpace=wrap;html=1;movable=1;resizable=1;rotatable=1;deletable=1;editable=1;connectable=1;" parent="Zenvrtx0O_84ZCuiPcEg-1" vertex="1">
                    <mxGeometry x="900" y="40" width="100" height="140" as="geometry"/>
                </mxCell>
                <mxCell id="GzX1gK5q_4ueQN7pYIfo-2" value="controlSIgnals&lt;br&gt;11bit" style="text;html=1;strokeColor=none;fillColor=none;align=center;verticalAlign=middle;whiteSpace=wrap;rounded=0;movable=1;resizable=1;rotatable=1;deletable=1;editable=1;connectable=1;" parent="Zenvrtx0O_84ZCuiPcEg-1" vertex="1">
                    <mxGeometry x="866" y="57" width="168" height="30" as="geometry"/>
                </mxCell>
                <mxCell id="GzX1gK5q_4ueQN7pYIfo-3" value="in1" style="text;html=1;strokeColor=none;fillColor=none;align=center;verticalAlign=middle;whiteSpace=wrap;rounded=0;movable=1;resizable=1;rotatable=1;deletable=1;editable=1;connectable=1;" parent="Zenvrtx0O_84ZCuiPcEg-1" vertex="1">
                    <mxGeometry x="890" y="115" width="60" height="30" as="geometry"/>
                </mxCell>
                <mxCell id="GzX1gK5q_4ueQN7pYIfo-4" value="&lt;span style=&quot;text-align: center;&quot;&gt;aluResult&lt;br&gt;16 bit&lt;br&gt;&lt;/span&gt;" style="text;whiteSpace=wrap;html=1;movable=1;resizable=1;rotatable=1;deletable=1;editable=1;connectable=1;" parent="Zenvrtx0O_84ZCuiPcEg-1" vertex="1">
                    <mxGeometry x="950" y="117" width="70" height="20" as="geometry"/>
                </mxCell>
                <mxCell id="RhgAgKesiTKsyD4kuoQV-0" style="edgeStyle=orthogonalEdgeStyle;rounded=0;orthogonalLoop=1;jettySize=auto;html=1;entryX=0;entryY=0.5;entryDx=0;entryDy=0;fontSize=12;movable=1;resizable=1;rotatable=1;deletable=1;editable=1;connectable=1;exitX=1;exitY=0.5;exitDx=0;exitDy=0;" parent="Zenvrtx0O_84ZCuiPcEg-1" source="RhgAgKesiTKsyD4kuoQV-2" edge="1">
                    <mxGeometry relative="1" as="geometry">
                        <mxPoint x="1424" y="421.0666666666666" as="sourcePoint"/>
                        <mxPoint x="1545" y="395" as="targetPoint"/>
                    </mxGeometry>
                </mxCell>
                <mxCell id="RhgAgKesiTKsyD4kuoQV-1" style="edgeStyle=orthogonalEdgeStyle;rounded=0;orthogonalLoop=1;jettySize=auto;html=1;exitX=1;exitY=0.25;exitDx=0;exitDy=0;entryX=0;entryY=0.5;entryDx=0;entryDy=0;fontSize=12;movable=1;resizable=1;rotatable=1;deletable=1;editable=1;connectable=1;" parent="Zenvrtx0O_84ZCuiPcEg-1" source="RhgAgKesiTKsyD4kuoQV-2" target="RhgAgKesiTKsyD4kuoQV-13" edge="1">
                    <mxGeometry relative="1" as="geometry">
                        <mxPoint x="1367" y="352" as="targetPoint"/>
                    </mxGeometry>
                </mxCell>
                <mxCell id="RhgAgKesiTKsyD4kuoQV-2" value="ALU" style="rounded=0;whiteSpace=wrap;html=1;movable=1;resizable=1;rotatable=1;deletable=1;editable=1;connectable=1;" parent="Zenvrtx0O_84ZCuiPcEg-1" vertex="1">
                    <mxGeometry x="1247" y="377" width="90" height="100" as="geometry"/>
                </mxCell>
                <mxCell id="RhgAgKesiTKsyD4kuoQV-3" style="edgeStyle=orthogonalEdgeStyle;rounded=0;orthogonalLoop=1;jettySize=auto;html=1;entryX=0.5;entryY=0;entryDx=0;entryDy=0;fontSize=24;movable=1;resizable=1;rotatable=1;deletable=1;editable=1;connectable=1;" parent="Zenvrtx0O_84ZCuiPcEg-1" source="RhgAgKesiTKsyD4kuoQV-4" target="RhgAgKesiTKsyD4kuoQV-2" edge="1">
                    <mxGeometry relative="1" as="geometry"/>
                </mxCell>
                <mxCell id="RhgAgKesiTKsyD4kuoQV-4" value="ALU Control" style="ellipse;whiteSpace=wrap;html=1;fontSize=24;movable=1;resizable=1;rotatable=1;deletable=1;editable=1;connectable=1;" parent="Zenvrtx0O_84ZCuiPcEg-1" vertex="1">
                    <mxGeometry x="1232" y="252" width="120" height="80" as="geometry"/>
                </mxCell>
                <mxCell id="RhgAgKesiTKsyD4kuoQV-6" value="&lt;font style=&quot;font-size: 12px;&quot;&gt;alucontrol&lt;/font&gt;" style="text;html=1;strokeColor=none;fillColor=none;align=center;verticalAlign=middle;whiteSpace=wrap;rounded=0;fontSize=24;movable=1;resizable=1;rotatable=1;deletable=1;editable=1;connectable=1;" parent="Zenvrtx0O_84ZCuiPcEg-1" vertex="1">
                    <mxGeometry x="1262" y="368" width="60" height="30" as="geometry"/>
                </mxCell>
                <mxCell id="RhgAgKesiTKsyD4kuoQV-11" value="Flag reg" style="swimlane;fontStyle=0;childLayout=stackLayout;horizontal=1;startSize=26;horizontalStack=0;resizeParent=1;resizeParentMax=0;resizeLast=0;collapsible=1;marginBottom=0;align=center;fontSize=14;movable=1;resizable=1;rotatable=1;deletable=1;editable=1;connectable=1;" parent="Zenvrtx0O_84ZCuiPcEg-1" vertex="1">
                    <mxGeometry x="1384" y="270" width="50" height="116" as="geometry"/>
                </mxCell>
                <mxCell id="RhgAgKesiTKsyD4kuoQV-12" value="cf" style="text;strokeColor=none;fillColor=none;spacingLeft=4;spacingRight=4;overflow=hidden;rotatable=1;points=[[0,0.5],[1,0.5]];portConstraint=eastwest;fontSize=12;movable=1;resizable=1;deletable=1;editable=1;connectable=1;" parent="RhgAgKesiTKsyD4kuoQV-11" vertex="1">
                    <mxGeometry y="26" width="50" height="30" as="geometry"/>
                </mxCell>
                <mxCell id="RhgAgKesiTKsyD4kuoQV-13" value="zf" style="text;strokeColor=none;fillColor=none;spacingLeft=4;spacingRight=4;overflow=hidden;rotatable=1;points=[[0,0.5],[1,0.5]];portConstraint=eastwest;fontSize=12;movable=1;resizable=1;deletable=1;editable=1;connectable=1;" parent="RhgAgKesiTKsyD4kuoQV-11" vertex="1">
                    <mxGeometry y="56" width="50" height="30" as="geometry"/>
                </mxCell>
                <mxCell id="RhgAgKesiTKsyD4kuoQV-14" value="nf" style="text;strokeColor=none;fillColor=none;spacingLeft=4;spacingRight=4;overflow=hidden;rotatable=1;points=[[0,0.5],[1,0.5]];portConstraint=eastwest;fontSize=12;movable=1;resizable=1;deletable=1;editable=1;connectable=1;" parent="RhgAgKesiTKsyD4kuoQV-11" vertex="1">
                    <mxGeometry y="86" width="50" height="30" as="geometry"/>
                </mxCell>
                <mxCell id="RhgAgKesiTKsyD4kuoQV-19" value="&lt;span style=&quot;font-size: 12px;&quot;&gt;in2&lt;/span&gt;" style="text;html=1;strokeColor=none;fillColor=none;align=center;verticalAlign=middle;whiteSpace=wrap;rounded=0;fontSize=24;movable=1;resizable=1;rotatable=1;deletable=1;editable=1;connectable=1;" parent="Zenvrtx0O_84ZCuiPcEg-1" vertex="1">
                    <mxGeometry x="1250" y="442" width="38.5" height="13" as="geometry"/>
                </mxCell>
                <mxCell id="mAo3YqgXeEDAhWGkU-BR-3" style="edgeStyle=orthogonalEdgeStyle;rounded=0;orthogonalLoop=1;jettySize=auto;html=1;entryX=0.5;entryY=0;entryDx=0;entryDy=0;" parent="Zenvrtx0O_84ZCuiPcEg-1" source="mAo3YqgXeEDAhWGkU-BR-0" target="RhgAgKesiTKsyD4kuoQV-4" edge="1">
                    <mxGeometry relative="1" as="geometry"/>
                </mxCell>
                <mxCell id="mAo3YqgXeEDAhWGkU-BR-0" value="controlSIgnals&lt;br&gt;11bit" style="ellipse;whiteSpace=wrap;html=1;aspect=fixed;" parent="Zenvrtx0O_84ZCuiPcEg-1" vertex="1">
                    <mxGeometry x="890" y="316" width="82" height="82" as="geometry"/>
                </mxCell>
                <mxCell id="mAo3YqgXeEDAhWGkU-BR-4" value="&lt;font style=&quot;font-size: 12px;&quot;&gt;out&lt;/font&gt;" style="text;html=1;strokeColor=none;fillColor=none;align=center;verticalAlign=middle;whiteSpace=wrap;rounded=0;fontSize=24;movable=1;resizable=1;rotatable=1;deletable=1;editable=1;connectable=1;" parent="Zenvrtx0O_84ZCuiPcEg-1" vertex="1">
                    <mxGeometry x="1292" y="420" width="60" height="30" as="geometry"/>
                </mxCell>
                <mxCell id="mAo3YqgXeEDAhWGkU-BR-5" value="&lt;font style=&quot;font-size: 12px;&quot;&gt;flag&lt;/font&gt;" style="text;html=1;strokeColor=none;fillColor=none;align=center;verticalAlign=middle;whiteSpace=wrap;rounded=0;fontSize=24;movable=1;resizable=1;rotatable=1;deletable=1;editable=1;connectable=1;" parent="Zenvrtx0O_84ZCuiPcEg-1" vertex="1">
                    <mxGeometry x="1292" y="386" width="60" height="30" as="geometry"/>
                </mxCell>
                <mxCell id="mAo3YqgXeEDAhWGkU-BR-6" value="&lt;span style=&quot;font-size: 12px;&quot;&gt;in1&lt;/span&gt;" style="text;html=1;strokeColor=none;fillColor=none;align=center;verticalAlign=middle;whiteSpace=wrap;rounded=0;fontSize=24;movable=1;resizable=1;rotatable=1;deletable=1;editable=1;connectable=1;" parent="Zenvrtx0O_84ZCuiPcEg-1" vertex="1">
                    <mxGeometry x="1217" y="386" width="93" height="30" as="geometry"/>
                </mxCell>
                <mxCell id="QjbErNG2-Y_RFN7W0oZY-3" style="edgeStyle=orthogonalEdgeStyle;rounded=0;orthogonalLoop=1;jettySize=auto;html=1;entryX=0;entryY=0.25;entryDx=0;entryDy=0;" parent="Zenvrtx0O_84ZCuiPcEg-1" source="QjbErNG2-Y_RFN7W0oZY-0" target="RhgAgKesiTKsyD4kuoQV-2" edge="1">
                    <mxGeometry relative="1" as="geometry">
                        <Array as="points">
                            <mxPoint x="1110" y="430"/>
                            <mxPoint x="1110" y="402"/>
                        </Array>
                    </mxGeometry>
                </mxCell>
                <mxCell id="QjbErNG2-Y_RFN7W0oZY-0" value="readData1" style="ellipse;whiteSpace=wrap;html=1;aspect=fixed;" parent="Zenvrtx0O_84ZCuiPcEg-1" vertex="1">
                    <mxGeometry x="890" y="416" width="82" height="82" as="geometry"/>
                </mxCell>
                <mxCell id="QjbErNG2-Y_RFN7W0oZY-8" style="edgeStyle=orthogonalEdgeStyle;rounded=0;orthogonalLoop=1;jettySize=auto;html=1;entryX=0;entryY=0.75;entryDx=0;entryDy=0;" parent="Zenvrtx0O_84ZCuiPcEg-1" source="QjbErNG2-Y_RFN7W0oZY-4" target="RhgAgKesiTKsyD4kuoQV-2" edge="1">
                    <mxGeometry relative="1" as="geometry">
                        <Array as="points">
                            <mxPoint x="1110" y="550"/>
                            <mxPoint x="1110" y="452"/>
                        </Array>
                    </mxGeometry>
                </mxCell>
                <mxCell id="QjbErNG2-Y_RFN7W0oZY-4" value="readData2" style="ellipse;whiteSpace=wrap;html=1;aspect=fixed;" parent="Zenvrtx0O_84ZCuiPcEg-1" vertex="1">
                    <mxGeometry x="890" y="520" width="82" height="82" as="geometry"/>
                </mxCell>
                <mxCell id="QjbErNG2-Y_RFN7W0oZY-10" value="in2" style="text;html=1;strokeColor=none;fillColor=none;align=center;verticalAlign=middle;whiteSpace=wrap;rounded=0;movable=1;resizable=1;rotatable=1;deletable=1;editable=1;connectable=1;" parent="Zenvrtx0O_84ZCuiPcEg-1" vertex="1">
                    <mxGeometry x="896" y="140" width="60" height="30" as="geometry"/>
                </mxCell>
                <mxCell id="QjbErNG2-Y_RFN7W0oZY-15" style="edgeStyle=orthogonalEdgeStyle;rounded=0;orthogonalLoop=1;jettySize=auto;html=1;entryX=0;entryY=0.5;entryDx=0;entryDy=0;" parent="Zenvrtx0O_84ZCuiPcEg-1" source="QjbErNG2-Y_RFN7W0oZY-14" target="RhgAgKesiTKsyD4kuoQV-4" edge="1">
                    <mxGeometry relative="1" as="geometry">
                        <Array as="points">
                            <mxPoint x="1180" y="671"/>
                            <mxPoint x="1180" y="292"/>
                        </Array>
                    </mxGeometry>
                </mxCell>
                <mxCell id="QjbErNG2-Y_RFN7W0oZY-14" value="function" style="ellipse;whiteSpace=wrap;html=1;aspect=fixed;" parent="Zenvrtx0O_84ZCuiPcEg-1" vertex="1">
                    <mxGeometry x="890" y="630" width="82" height="82" as="geometry"/>
                </mxCell>
                <mxCell id="QjbErNG2-Y_RFN7W0oZY-16" value="aluResult 16 bit" style="ellipse;whiteSpace=wrap;html=1;aspect=fixed;" parent="Zenvrtx0O_84ZCuiPcEg-1" vertex="1">
                    <mxGeometry x="1550" y="353" width="82" height="82" as="geometry"/>
                </mxCell>
                <mxCell id="QjbErNG2-Y_RFN7W0oZY-18" value="clk" style="text;html=1;strokeColor=none;fillColor=none;align=center;verticalAlign=middle;whiteSpace=wrap;rounded=0;movable=1;resizable=1;rotatable=1;deletable=1;editable=1;connectable=1;" parent="Zenvrtx0O_84ZCuiPcEg-1" vertex="1">
                    <mxGeometry x="890" y="85" width="60" height="30" as="geometry"/>
                </mxCell>
                <mxCell id="QjbErNG2-Y_RFN7W0oZY-20" style="edgeStyle=orthogonalEdgeStyle;rounded=0;orthogonalLoop=1;jettySize=auto;html=1;entryX=0.633;entryY=1.025;entryDx=0;entryDy=0;entryPerimeter=0;" parent="Zenvrtx0O_84ZCuiPcEg-1" source="QjbErNG2-Y_RFN7W0oZY-19" target="RhgAgKesiTKsyD4kuoQV-14" edge="1">
                    <mxGeometry relative="1" as="geometry">
                        <Array as="points">
                            <mxPoint x="1416" y="770"/>
                        </Array>
                    </mxGeometry>
                </mxCell>
                <mxCell id="QjbErNG2-Y_RFN7W0oZY-19" value="clk" style="ellipse;whiteSpace=wrap;html=1;aspect=fixed;" parent="Zenvrtx0O_84ZCuiPcEg-1" vertex="1">
                    <mxGeometry x="918" y="740" width="82" height="82" as="geometry"/>
                </mxCell>
                <mxCell id="QjbErNG2-Y_RFN7W0oZY-21" value="&lt;div style=&quot;color: rgb(212, 212, 212); background-color: rgb(30, 30, 30); font-family: Consolas, &amp;quot;Courier New&amp;quot;, monospace; font-weight: normal; font-size: 14px; line-height: 19px;&quot;&gt;&lt;div&gt;&lt;span style=&quot;color: #d4d4d4;&quot;&gt;AluOperation&lt;/span&gt;&lt;/div&gt;&lt;/div&gt;" style="text;whiteSpace=wrap;html=1;" parent="Zenvrtx0O_84ZCuiPcEg-1" vertex="1">
                    <mxGeometry x="1198.5" y="337" width="130" height="40" as="geometry"/>
                </mxCell>
            </root>
        </mxGraphModel>
    </diagram>
    <diagram id="8qGAITJodTe7av3k_6oe" name="Branch Logic">
        <mxGraphModel dx="746" dy="716" grid="1" gridSize="10" guides="1" tooltips="1" connect="1" arrows="1" fold="1" page="1" pageScale="1" pageWidth="850" pageHeight="1100" math="0" shadow="0">
            <root>
                <mxCell id="d7V7ZqRPhG9-_Uplc2N--0"/>
                <mxCell id="d7V7ZqRPhG9-_Uplc2N--1" parent="d7V7ZqRPhG9-_Uplc2N--0"/>
                <mxCell id="C3_hDsGnpYzvq5k_EzW2-1" value="Branch Logic" style="rounded=0;whiteSpace=wrap;html=1;movable=1;resizable=1;rotatable=1;deletable=1;editable=1;connectable=1;" parent="d7V7ZqRPhG9-_Uplc2N--1" vertex="1">
                    <mxGeometry x="900" y="2" width="100" height="140" as="geometry"/>
                </mxCell>
                <mxCell id="C3_hDsGnpYzvq5k_EzW2-16" style="edgeStyle=orthogonalEdgeStyle;rounded=0;orthogonalLoop=1;jettySize=auto;html=1;entryX=0.5;entryY=0;entryDx=0;entryDy=0;" parent="d7V7ZqRPhG9-_Uplc2N--1" edge="1">
                    <mxGeometry relative="1" as="geometry">
                        <mxPoint x="1292" y="252" as="targetPoint"/>
                    </mxGeometry>
                </mxCell>
                <mxCell id="C3_hDsGnpYzvq5k_EzW2-31" value="clk" style="ellipse;whiteSpace=wrap;html=1;aspect=fixed;" parent="d7V7ZqRPhG9-_Uplc2N--1" vertex="1">
                    <mxGeometry x="918" y="740" width="82" height="82" as="geometry"/>
                </mxCell>
                <mxCell id="dKmvwfnDgj5hVQDiPWAi-0" style="edgeStyle=orthogonalEdgeStyle;rounded=0;orthogonalLoop=1;jettySize=auto;html=1;exitX=0.5;exitY=0;exitDx=0;exitDy=0;entryX=0;entryY=0.75;entryDx=0;entryDy=0;entryPerimeter=0;" parent="d7V7ZqRPhG9-_Uplc2N--1" source="wFkIGgpBgwuFOl8wDZO9-8" target="661ocbSoApSG3uP6cKCp-0" edge="1">
                    <mxGeometry relative="1" as="geometry">
                        <Array as="points">
                            <mxPoint x="1408" y="320"/>
                        </Array>
                    </mxGeometry>
                </mxCell>
                <mxCell id="wFkIGgpBgwuFOl8wDZO9-8" value="MUX" style="shape=trapezoid;perimeter=trapezoidPerimeter;whiteSpace=wrap;html=1;fixedSize=1;direction=south;movable=1;resizable=1;rotatable=1;deletable=1;editable=1;connectable=1;rotation=-90;" parent="d7V7ZqRPhG9-_Uplc2N--1" vertex="1">
                    <mxGeometry x="1365" y="290" width="60" height="120" as="geometry"/>
                </mxCell>
                <mxCell id="wFkIGgpBgwuFOl8wDZO9-9" value="" style="edgeStyle=orthogonalEdgeStyle;rounded=0;orthogonalLoop=1;jettySize=auto;html=1;movable=1;resizable=1;rotatable=1;deletable=1;editable=1;connectable=1;entryX=0.25;entryY=1;entryDx=0;entryDy=0;" parent="d7V7ZqRPhG9-_Uplc2N--1" source="wFkIGgpBgwuFOl8wDZO9-10" target="wFkIGgpBgwuFOl8wDZO9-8" edge="1">
                    <mxGeometry relative="1" as="geometry">
                        <mxPoint x="1365" y="430" as="targetPoint"/>
                        <Array as="points">
                            <mxPoint x="1365" y="450"/>
                            <mxPoint x="1365" y="410"/>
                        </Array>
                    </mxGeometry>
                </mxCell>
                <mxCell id="wFkIGgpBgwuFOl8wDZO9-10" value="1" style="text;html=1;strokeColor=none;fillColor=none;align=center;verticalAlign=middle;whiteSpace=wrap;rounded=0;movable=1;resizable=1;rotatable=1;deletable=1;editable=1;connectable=1;" parent="d7V7ZqRPhG9-_Uplc2N--1" vertex="1">
                    <mxGeometry x="1275" y="443" width="60" height="30" as="geometry"/>
                </mxCell>
                <mxCell id="kaIltLbjSVbomvbdnHw9-0" style="edgeStyle=orthogonalEdgeStyle;rounded=0;orthogonalLoop=1;jettySize=auto;html=1;entryX=0;entryY=0.25;entryDx=0;entryDy=0;" parent="d7V7ZqRPhG9-_Uplc2N--1" source="wFkIGgpBgwuFOl8wDZO9-11" target="wFkIGgpBgwuFOl8wDZO9-8" edge="1">
                    <mxGeometry relative="1" as="geometry">
                        <Array as="points">
                            <mxPoint x="1349" y="259"/>
                        </Array>
                    </mxGeometry>
                </mxCell>
                <mxCell id="wFkIGgpBgwuFOl8wDZO9-11" value="sel" style="ellipse;whiteSpace=wrap;html=1;aspect=fixed;" parent="d7V7ZqRPhG9-_Uplc2N--1" vertex="1">
                    <mxGeometry x="918" y="228" width="62" height="62" as="geometry"/>
                </mxCell>
                <mxCell id="wFkIGgpBgwuFOl8wDZO9-20" style="edgeStyle=orthogonalEdgeStyle;rounded=0;orthogonalLoop=1;jettySize=auto;html=1;entryX=0.628;entryY=1.043;entryDx=0;entryDy=0;entryPerimeter=0;" parent="d7V7ZqRPhG9-_Uplc2N--1" source="wFkIGgpBgwuFOl8wDZO9-12" target="wFkIGgpBgwuFOl8wDZO9-8" edge="1">
                    <mxGeometry relative="1" as="geometry">
                        <Array as="points">
                            <mxPoint x="969" y="510"/>
                            <mxPoint x="1410" y="510"/>
                        </Array>
                    </mxGeometry>
                </mxCell>
                <mxCell id="wFkIGgpBgwuFOl8wDZO9-12" value="cf" style="ellipse;whiteSpace=wrap;html=1;aspect=fixed;" parent="d7V7ZqRPhG9-_Uplc2N--1" vertex="1">
                    <mxGeometry x="928" y="410" width="82" height="82" as="geometry"/>
                </mxCell>
                <mxCell id="wFkIGgpBgwuFOl8wDZO9-14" style="edgeStyle=orthogonalEdgeStyle;rounded=0;orthogonalLoop=1;jettySize=auto;html=1;entryX=0.75;entryY=1;entryDx=0;entryDy=0;" parent="d7V7ZqRPhG9-_Uplc2N--1" source="wFkIGgpBgwuFOl8wDZO9-13" target="wFkIGgpBgwuFOl8wDZO9-8" edge="1">
                    <mxGeometry relative="1" as="geometry"/>
                </mxCell>
                <mxCell id="wFkIGgpBgwuFOl8wDZO9-13" value="zf" style="ellipse;whiteSpace=wrap;html=1;aspect=fixed;" parent="d7V7ZqRPhG9-_Uplc2N--1" vertex="1">
                    <mxGeometry x="928" y="520" width="82" height="82" as="geometry"/>
                </mxCell>
                <mxCell id="wFkIGgpBgwuFOl8wDZO9-22" style="edgeStyle=orthogonalEdgeStyle;rounded=0;orthogonalLoop=1;jettySize=auto;html=1;entryX=0.5;entryY=1;entryDx=0;entryDy=0;" parent="d7V7ZqRPhG9-_Uplc2N--1" source="wFkIGgpBgwuFOl8wDZO9-21" target="wFkIGgpBgwuFOl8wDZO9-8" edge="1">
                    <mxGeometry relative="1" as="geometry">
                        <Array as="points">
                            <mxPoint x="1173" y="341"/>
                            <mxPoint x="1173" y="470"/>
                            <mxPoint x="1395" y="470"/>
                        </Array>
                    </mxGeometry>
                </mxCell>
                <mxCell id="wFkIGgpBgwuFOl8wDZO9-21" value="nf" style="ellipse;whiteSpace=wrap;html=1;aspect=fixed;" parent="d7V7ZqRPhG9-_Uplc2N--1" vertex="1">
                    <mxGeometry x="928" y="300" width="82" height="82" as="geometry"/>
                </mxCell>
                <mxCell id="0cfxuwzQQRg2xq0S5Hxz-1" style="edgeStyle=orthogonalEdgeStyle;rounded=0;orthogonalLoop=1;jettySize=auto;html=1;entryX=0;entryY=0.5;entryDx=0;entryDy=0;" parent="d7V7ZqRPhG9-_Uplc2N--1" source="661ocbSoApSG3uP6cKCp-0" target="0cfxuwzQQRg2xq0S5Hxz-0" edge="1">
                    <mxGeometry relative="1" as="geometry">
                        <Array as="points">
                            <mxPoint x="1398" y="100"/>
                            <mxPoint x="1550" y="100"/>
                        </Array>
                    </mxGeometry>
                </mxCell>
                <mxCell id="661ocbSoApSG3uP6cKCp-0" value="" style="shape=or;whiteSpace=wrap;html=1;shadow=0;strokeColor=#000000;fontSize=12;fillColor=#FFFFFF;rotation=-90;" parent="d7V7ZqRPhG9-_Uplc2N--1" vertex="1">
                    <mxGeometry x="1370" y="130" width="55" height="40" as="geometry"/>
                </mxCell>
                <mxCell id="SxI_akzh5L7NyeaA849Q-0" style="edgeStyle=orthogonalEdgeStyle;rounded=0;orthogonalLoop=1;jettySize=auto;html=1;entryX=0;entryY=0.25;entryDx=0;entryDy=0;entryPerimeter=0;" parent="d7V7ZqRPhG9-_Uplc2N--1" source="dKmvwfnDgj5hVQDiPWAi-1" target="661ocbSoApSG3uP6cKCp-0" edge="1">
                    <mxGeometry relative="1" as="geometry"/>
                </mxCell>
                <mxCell id="dKmvwfnDgj5hVQDiPWAi-1" value="Branch&lt;br&gt;Control Signal" style="ellipse;whiteSpace=wrap;html=1;aspect=fixed;" parent="d7V7ZqRPhG9-_Uplc2N--1" vertex="1">
                    <mxGeometry x="1030" y="170" width="70" height="70" as="geometry"/>
                </mxCell>
                <mxCell id="kaIltLbjSVbomvbdnHw9-1" value="2 bits" style="text;html=1;strokeColor=none;fillColor=none;align=center;verticalAlign=middle;whiteSpace=wrap;rounded=0;" parent="d7V7ZqRPhG9-_Uplc2N--1" vertex="1">
                    <mxGeometry x="990" y="228" width="60" height="30" as="geometry"/>
                </mxCell>
                <mxCell id="0cfxuwzQQRg2xq0S5Hxz-0" value="&lt;div style=&quot;color: rgb(212, 212, 212); background-color: rgb(30, 30, 30); font-family: Consolas, &amp;quot;Courier New&amp;quot;, monospace; font-size: 14px; line-height: 19px;&quot;&gt;branch_out&lt;/div&gt;" style="ellipse;whiteSpace=wrap;html=1;aspect=fixed;" parent="d7V7ZqRPhG9-_Uplc2N--1" vertex="1">
                    <mxGeometry x="1560" y="60" width="82" height="82" as="geometry"/>
                </mxCell>
                <mxCell id="BsQdd8OrRHQa1xoYRhGN-0" value="sel" style="text;html=1;strokeColor=none;fillColor=none;align=center;verticalAlign=middle;whiteSpace=wrap;rounded=0;" parent="d7V7ZqRPhG9-_Uplc2N--1" vertex="1">
                    <mxGeometry x="890" y="32" width="60" height="28" as="geometry"/>
                </mxCell>
                <mxCell id="BsQdd8OrRHQa1xoYRhGN-2" value="zf" style="text;html=1;strokeColor=none;fillColor=none;align=center;verticalAlign=middle;whiteSpace=wrap;rounded=0;" parent="d7V7ZqRPhG9-_Uplc2N--1" vertex="1">
                    <mxGeometry x="890" y="118" width="60" height="30" as="geometry"/>
                </mxCell>
                <mxCell id="BsQdd8OrRHQa1xoYRhGN-3" value="branch_out" style="text;html=1;strokeColor=none;fillColor=none;align=center;verticalAlign=middle;whiteSpace=wrap;rounded=0;" parent="d7V7ZqRPhG9-_Uplc2N--1" vertex="1">
                    <mxGeometry x="939" y="40" width="60" height="30" as="geometry"/>
                </mxCell>
                <mxCell id="BsQdd8OrRHQa1xoYRhGN-4" value="branch" style="text;html=1;strokeColor=none;fillColor=none;align=center;verticalAlign=middle;whiteSpace=wrap;rounded=0;" parent="d7V7ZqRPhG9-_Uplc2N--1" vertex="1">
                    <mxGeometry x="890" y="2" width="60" height="30" as="geometry"/>
                </mxCell>
                <mxCell id="BsQdd8OrRHQa1xoYRhGN-5" value="nf" style="text;html=1;strokeColor=none;fillColor=none;align=center;verticalAlign=middle;whiteSpace=wrap;rounded=0;" parent="d7V7ZqRPhG9-_Uplc2N--1" vertex="1">
                    <mxGeometry x="890" y="80" width="60" height="30" as="geometry"/>
                </mxCell>
                <mxCell id="BsQdd8OrRHQa1xoYRhGN-7" value="cf" style="text;html=1;strokeColor=none;fillColor=none;align=center;verticalAlign=middle;whiteSpace=wrap;rounded=0;" parent="d7V7ZqRPhG9-_Uplc2N--1" vertex="1">
                    <mxGeometry x="890" y="101" width="60" height="30" as="geometry"/>
                </mxCell>
                <mxCell id="BsQdd8OrRHQa1xoYRhGN-8" value="flag" style="text;html=1;strokeColor=none;fillColor=none;align=center;verticalAlign=middle;whiteSpace=wrap;rounded=0;" parent="d7V7ZqRPhG9-_Uplc2N--1" vertex="1">
                    <mxGeometry x="1410" y="260" width="60" height="30" as="geometry"/>
                </mxCell>
            </root>
        </mxGraphModel>
    </diagram>
    <diagram id="uAFF0Xgp85ENqpXlgJwJ" name="Phase 2">
        <mxGraphModel dx="798" dy="358" grid="1" gridSize="10" guides="1" tooltips="1" connect="1" arrows="1" fold="1" page="1" pageScale="1" pageWidth="850" pageHeight="1100" math="0" shadow="0">
            <root>
                <mxCell id="ocRDd07aJLn9eDBGDgBp-0"/>
                <mxCell id="ocRDd07aJLn9eDBGDgBp-1" parent="ocRDd07aJLn9eDBGDgBp-0"/>
            </root>
        </mxGraphModel>
    </diagram>
</mxfile>